<?xml version="1.0" encoding="UTF-8"?>
<svg xmlns="http://www.w3.org/2000/svg" xmlns:xlink="http://www.w3.org/1999/xlink" width="700" height="450">
	<rect width="700" height="450" fill="#f00"/>
	<rect x="50" y="50" width="600" height="350" fill="#009"/>
	<g id="v">
		<circle id="c" cx="50" cy="50" r="25" fill="#009"/>
		<use xlink:href="#c" y="50"/>
		<use xlink:href="#c" y="100"/>
		<use xlink:href="#c" y="150"/>
		<use xlink:href="#c" y="200"/>
		<use xlink:href="#c" y="250"/>
		<use xlink:href="#c" y="300"/>
		<use xlink:href="#c" y="350"/>
	</g>
	<use xlink:href="#v" x="600"/>
	<g id="h">
		<use xlink:href="#c" x="50"/>
		<use xlink:href="#c" x="100"/>
		<use xlink:href="#c" x="150"/>
		<use xlink:href="#c" x="200"/>
		<use xlink:href="#c" x="250"/>
		<use xlink:href="#c" x="300"/>
		<use xlink:href="#c" x="350"/>
		<use xlink:href="#c" x="400"/>
		<use xlink:href="#c" x="450"/>
		<use xlink:href="#c" x="500"/>
		<use xlink:href="#c" x="550"/>
	</g>
	<use xlink:href="#h" y="350"/>
	<path id="f" d="M 182.193,275.713 C 184.946,272.735 189.795,266.876 191.766,260.678 C 193.968,253.757 192.986,243.928 192.451,239.953 C 203.57,244.774 211.445,245.336 220.01,241.893 C 220.01,241.893 222.213,241.007 222.22,241.01 L 218.523,239.427 C 212.589,236.918 202.774,232.731 198.363,217.225 L 214.576,217.225 L 214.576,206.213 L 207.44,206.213 C 208.224,184.377 220.615,172.17 229.454,171.756 C 233.808,171.551 236.619,174.173 237.16,178.948 C 237.94,186.178 233.823,195.636 233.782,195.731 L 232.833,197.879 L 235.034,197.046 C 246.474,192.717 256.274,185.337 263.376,175.709 C 275.263,159.592 271.305,142.352 261.252,133.651 C 251.753,125.429 235.387,123.833 220.238,138.793 C 202.476,156.349 194.121,191.225 193.538,206.207 L 191.146,206.207 C 191.054,188.268 191.115,177.156 200.225,153.722 C 215.481,114.503 209.368,80.764 182.192,53.364 C 155.013,80.764 148.901,114.503 164.152,153.723 C 173.266,177.157 173.324,188.269 173.234,206.211 L 170.839,206.211 C 170.261,191.227 161.902,156.349 144.139,138.796 C 128.992,123.834 112.626,125.43 103.126,133.652 C 93.074,142.355 89.118,159.594 101.005,175.712 C 108.108,185.339 117.907,192.719 129.344,197.049 L 131.546,197.885 L 130.597,195.733 C 130.555,195.638 126.437,186.18 127.22,178.951 C 127.765,174.176 130.571,171.553 134.928,171.759 C 143.767,172.173 156.155,184.377 156.942,206.215 L 149.805,206.215 L 149.805,217.227 L 166.017,217.227 C 161.606,232.733 151.793,236.92 145.857,239.428 L 142.162,241.014 C 142.171,241.008 144.374,241.895 144.374,241.895 C 152.939,245.336 160.815,244.776 171.932,239.956 C 171.399,243.928 170.413,253.758 172.618,260.679 C 174.59,266.876 179.441,272.735 182.193,275.713 z" fill="#ffd700"/>
	<use xlink:href="#f" x="335"/>
	<use xlink:href="#f" x="167.5" y="115"/>
</svg>