<?xml version="1.0" encoding="UTF-8" standalone="no"?>
<!-- Creator: CorelDRAW -->
<svg
   xmlns:dc="http://purl.org/dc/elements/1.1/"
   xmlns:cc="http://web.resource.org/cc/"
   xmlns:rdf="http://www.w3.org/1999/02/22-rdf-syntax-ns#"
   xmlns:svg="http://www.w3.org/2000/svg"
   xmlns="http://www.w3.org/2000/svg"
   xmlns:sodipodi="http://sodipodi.sourceforge.net/DTD/sodipodi-0.dtd"
   xmlns:inkscape="http://www.inkscape.org/namespaces/inkscape"
   xml:space="preserve"
   width="10.6299in"
   height="7.08661in"
   style="shape-rendering:geometricPrecision; text-rendering:geometricPrecision; image-rendering:optimizeQuality; fill-rule:evenodd"
   viewBox="0 0 10630 7086"
   id="svg2"
   sodipodi:version="0.32"
   inkscape:version="0.44.1"
   sodipodi:docname="Bandeira Reino Brasil azul.svg"
   sodipodi:docbase="C:\Documents and Settings\jsobral.SANTAREM.000\Desktop\bandeira"><metadata
   id="metadata1226"><rdf:RDF><cc:Work
       rdf:about=""><dc:format>image/svg+xml</dc:format><dc:type
         rdf:resource="http://purl.org/dc/dcmitype/StillImage" /></cc:Work></rdf:RDF></metadata><sodipodi:namedview
   inkscape:window-height="964"
   inkscape:window-width="1280"
   inkscape:pageshadow="2"
   inkscape:pageopacity="0.0"
   guidetolerance="10.0"
   gridtolerance="10.0"
   objecttolerance="10.0"
   borderopacity="1.0"
   bordercolor="#666666"
   pagecolor="#ffffff"
   id="base"
   inkscape:zoom="0.83594043"
   inkscape:cx="386.51929"
   inkscape:cy="366.72418"
   inkscape:window-x="-4"
   inkscape:window-y="-4"
   inkscape:current-layer="svg2"
   showgrid="false" />
 <defs
   id="defs4">
  <style
   type="text/css"
   id="style6">
   
    .str1 {stroke:#131516;stroke-width:5}
    .str2 {stroke:#131516;stroke-width:5}
    .str0 {stroke:#131516;stroke-width:5}
    .str3 {stroke:#131516;stroke-width:5}
    .str5 {stroke:#131516;stroke-width:5}
    .str4 {stroke:#131516;stroke-width:5}
    .fil26 {fill:none}
    .fil0 {fill:#FFFFFF}
    .fil17 {fill:#005797}
    .fil23 {fill:#009544}
    .fil27 {fill:#131516}
    .fil28 {fill:#213481}
    .fil16 {fill:#2B2828}
    .fil20 {fill:#623032}
    .fil1 {fill:#933435}
    .fil2 {fill:#96343A}
    .fil3 {fill:#9B3440}
    .fil4 {fill:#A03345}
    .fil5 {fill:#A73248}
    .fil6 {fill:#AB334B}
    .fil7 {fill:#AF324F}
    .fil8 {fill:#B63153}
    .fil9 {fill:#BB3054}
    .fil10 {fill:#C22F59}
    .fil11 {fill:#C72C62}
    .fil12 {fill:#CD2864}
    .fil13 {fill:#D22669}
    .fil14 {fill:#D5266D}
    .fil22 {fill:#D52C27}
    .fil24 {fill:#D62C26}
    .fil15 {fill:#D8276E}
    .fil18 {fill:#EFB700}
    .fil21 {fill:#F5D700}
    .fil25 {fill:#F5DB00}
    .fil19 {fill:#FFFFFF}
   
  </style>
 
  
 
   
   
  <metadata
   id="CorelCorpID_0Corel-Layer" />
 
  <clipPath
   id="id78">
       <path
   id="path3732"
   d="M103722 125258c-2424.2,-1008.4 -6446.3,1340.9 -9019.8,1197.8 -828.3,-46.1 -2024.9,-92.1 -2024.9,-92.1 0,0 874.5,2303.5 3451.5,3823.9 2577.1,1520.4 5108.1,2487.9 7823.3,2165.4 2715.1,-322.5 3497.4,-1151.7 4970,-1566.4 1472.6,-414.7 2301,-552.9 2301,-552.9 -322.2,-752.5 -284.4,-1805.1 -966.4,-2257.5 -1965.9,-1304.1 -4356.5,-1812.2 -6534.7,-2718.2z" />
      </clipPath>
      <mask
   id="id76">
          <radialGradient
   fy="114457"
   fx="96050.5"
   r="1534.82"
   cy="114457"
   cx="96050.5"
   gradientUnits="userSpaceOnUse"
   id="id77">
           <stop
   id="stop298"
   stop-color="white"
   stop-opacity="0"
   offset="0" />
           <stop
   id="stop300"
   stop-color="white"
   stop-opacity="1"
   offset="1" />
          </radialGradient>
         <rect
   id="rect302"
   height="3185.6"
   width="3185.6"
   y="113169"
   x="94714"
   fill="url(#id77)" />
        </mask>
        <mask
   id="id74">
          <radialGradient
   fy="114457"
   fx="96050.5"
   r="605.244"
   cy="114457"
   cx="96050.5"
   gradientUnits="userSpaceOnUse"
   id="id75">
           <stop
   id="stop290"
   stop-color="white"
   stop-opacity="0"
   offset="0" />
           <stop
   id="stop292"
   stop-color="white"
   stop-opacity="1"
   offset="1" />
          </radialGradient>
         <rect
   id="rect294"
   height="3185.6"
   width="3185.6"
   y="113169"
   x="94714"
   fill="url(#id75)" />
        </mask>
        <mask
   id="id72">
          <radialGradient
   fy="102455"
   fx="94050.2"
   r="1534.82"
   cy="102455"
   cx="94050.2"
   gradientUnits="userSpaceOnUse"
   id="id73">
           <stop
   id="stop282"
   stop-color="white"
   stop-opacity="0"
   offset="0" />
           <stop
   id="stop284"
   stop-color="white"
   stop-opacity="1"
   offset="1" />
          </radialGradient>
         <rect
   id="rect286"
   height="3185.6"
   width="3185.6"
   y="101168"
   x="92713.7"
   fill="url(#id73)" />
        </mask>
        <mask
   id="id70">
          <radialGradient
   fy="102455"
   fx="94050.2"
   r="605.244"
   cy="102455"
   cx="94050.2"
   gradientUnits="userSpaceOnUse"
   id="id71">
           <stop
   id="stop274"
   stop-color="white"
   stop-opacity="0"
   offset="0" />
           <stop
   id="stop276"
   stop-color="white"
   stop-opacity="1"
   offset="1" />
          </radialGradient>
         <rect
   id="rect278"
   height="3185.6"
   width="3185.6"
   y="101168"
   x="92713.7"
   fill="url(#id71)" />
        </mask>
        <mask
   id="id68">
          <radialGradient
   fy="88663.2"
   fx="94787.1"
   r="1534.82"
   cy="88663.2"
   cx="94787.1"
   gradientUnits="userSpaceOnUse"
   id="id69">
           <stop
   id="stop266"
   stop-color="white"
   stop-opacity="0"
   offset="0" />
           <stop
   id="stop268"
   stop-color="white"
   stop-opacity="1"
   offset="1" />
          </radialGradient>
         <rect
   id="rect270"
   height="3185.6"
   width="3185.6"
   y="87376"
   x="93450.6"
   fill="url(#id69)" />
        </mask>
        <mask
   id="id66">
          <radialGradient
   fy="88663.2"
   fx="94787.1"
   r="605.244"
   cy="88663.2"
   cx="94787.1"
   gradientUnits="userSpaceOnUse"
   id="id67">
           <stop
   id="stop258"
   stop-color="white"
   stop-opacity="0"
   offset="0" />
           <stop
   id="stop260"
   stop-color="white"
   stop-opacity="1"
   offset="1" />
          </radialGradient>
         <rect
   id="rect262"
   height="3185.6"
   width="3185.6"
   y="87376"
   x="93450.6"
   fill="url(#id67)" />
        </mask>
        <mask
   id="id64">
          <radialGradient
   fy="90031.8"
   fx="92786.8"
   r="1534.82"
   cy="90031.8"
   cx="92786.8"
   gradientUnits="userSpaceOnUse"
   id="id65">
           <stop
   id="stop250"
   stop-color="white"
   stop-opacity="0"
   offset="0" />
           <stop
   id="stop252"
   stop-color="white"
   stop-opacity="1"
   offset="1" />
          </radialGradient>
         <rect
   id="rect254"
   height="3185.6"
   width="3185.6"
   y="88744.6"
   x="91450.3"
   fill="url(#id65)" />
        </mask>
        <mask
   id="id62">
          <radialGradient
   fy="90031.8"
   fx="92786.8"
   r="605.244"
   cy="90031.8"
   cx="92786.8"
   gradientUnits="userSpaceOnUse"
   id="id63">
           <stop
   id="stop242"
   stop-color="white"
   stop-opacity="0"
   offset="0" />
           <stop
   id="stop244"
   stop-color="white"
   stop-opacity="1"
   offset="1" />
          </radialGradient>
         <rect
   id="rect246"
   height="3185.6"
   width="3185.6"
   y="88744.6"
   x="91450.3"
   fill="url(#id63)" />
        </mask>
        <mask
   id="id60">
          <radialGradient
   fy="77977.4"
   fx="92628.9"
   r="1534.82"
   cy="77977.4"
   cx="92628.9"
   gradientUnits="userSpaceOnUse"
   id="id61">
           <stop
   id="stop234"
   stop-color="white"
   stop-opacity="0"
   offset="0" />
           <stop
   id="stop236"
   stop-color="white"
   stop-opacity="1"
   offset="1" />
          </radialGradient>
         <rect
   id="rect238"
   height="3185.6"
   width="3185.6"
   y="76690.2"
   x="91292.4"
   fill="url(#id61)" />
        </mask>
        <mask
   id="id58">
          <radialGradient
   fy="77977.4"
   fx="92628.9"
   r="605.244"
   cy="77977.4"
   cx="92628.9"
   gradientUnits="userSpaceOnUse"
   id="id59">
           <stop
   id="stop226"
   stop-color="white"
   stop-opacity="0"
   offset="0" />
           <stop
   id="stop228"
   stop-color="white"
   stop-opacity="1"
   offset="1" />
          </radialGradient>
         <rect
   id="rect230"
   height="3185.6"
   width="3185.6"
   y="76690.2"
   x="91292.4"
   fill="url(#id59)" />
        </mask>
        <mask
   id="id56">
          <radialGradient
   fy="81065.6"
   fx="94506.4"
   r="1534.82"
   cy="81065.6"
   cx="94506.4"
   gradientUnits="userSpaceOnUse"
   id="id57">
           <stop
   id="stop218"
   stop-color="white"
   stop-opacity="0"
   offset="0" />
           <stop
   id="stop220"
   stop-color="white"
   stop-opacity="1"
   offset="1" />
          </radialGradient>
         <rect
   id="rect222"
   height="3185.6"
   width="3185.6"
   y="79778.4"
   x="93169.9"
   fill="url(#id57)" />
        </mask>
        <mask
   id="id54">
          <radialGradient
   fy="81065.6"
   fx="94506.4"
   r="605.244"
   cy="81065.6"
   cx="94506.4"
   gradientUnits="userSpaceOnUse"
   id="id55">
           <stop
   id="stop210"
   stop-color="white"
   stop-opacity="0"
   offset="0" />
           <stop
   id="stop212"
   stop-color="white"
   stop-opacity="1"
   offset="1" />
          </radialGradient>
         <rect
   id="rect214"
   height="3185.6"
   width="3185.6"
   y="79778.4"
   x="93169.9"
   fill="url(#id55)" />
        </mask>
        <mask
   id="id52">
          <radialGradient
   fy="87084"
   fx="92471"
   r="1534.82"
   cy="87084"
   cx="92471"
   gradientUnits="userSpaceOnUse"
   id="id53">
           <stop
   id="stop202"
   stop-color="white"
   stop-opacity="0"
   offset="0" />
           <stop
   id="stop204"
   stop-color="white"
   stop-opacity="1"
   offset="1" />
          </radialGradient>
         <rect
   id="rect206"
   height="3185.6"
   width="3185.6"
   y="85796.8"
   x="91134.5"
   fill="url(#id53)" />
        </mask>
        <mask
   id="id50">
          <radialGradient
   fy="87084"
   fx="92471"
   r="605.244"
   cy="87084"
   cx="92471"
   gradientUnits="userSpaceOnUse"
   id="id51">
           <stop
   id="stop194"
   stop-color="white"
   stop-opacity="0"
   offset="0" />
           <stop
   id="stop196"
   stop-color="white"
   stop-opacity="1"
   offset="1" />
          </radialGradient>
         <rect
   id="rect198"
   height="3185.6"
   width="3185.6"
   y="85796.8"
   x="91134.5"
   fill="url(#id51)" />
        </mask>
        <mask
   id="id48">
          <radialGradient
   fy="100876"
   fx="91997.2"
   r="1534.82"
   cy="100876"
   cx="91997.2"
   gradientUnits="userSpaceOnUse"
   id="id49">
           <stop
   id="stop186"
   stop-color="white"
   stop-opacity="0"
   offset="0" />
           <stop
   id="stop188"
   stop-color="white"
   stop-opacity="1"
   offset="1" />
          </radialGradient>
         <rect
   id="rect190"
   height="3185.6"
   width="3185.6"
   y="99588.3"
   x="90660.7"
   fill="url(#id49)" />
        </mask>
        <mask
   id="id46">
          <radialGradient
   fy="100876"
   fx="91997.2"
   r="605.244"
   cy="100876"
   cx="91997.2"
   gradientUnits="userSpaceOnUse"
   id="id47">
           <stop
   id="stop178"
   stop-color="white"
   stop-opacity="0"
   offset="0" />
           <stop
   id="stop180"
   stop-color="white"
   stop-opacity="1"
   offset="1" />
          </radialGradient>
         <rect
   id="rect182"
   height="3185.6"
   width="3185.6"
   y="99588.3"
   x="90660.7"
   fill="url(#id47)" />
        </mask>
        <mask
   id="id44">
          <radialGradient
   fy="98506.6"
   fx="94155.2"
   r="1534.82"
   cy="98506.6"
   cx="94155.2"
   gradientUnits="userSpaceOnUse"
   id="id45">
           <stop
   id="stop170"
   stop-color="white"
   stop-opacity="0"
   offset="0" />
           <stop
   id="stop172"
   stop-color="white"
   stop-opacity="1"
   offset="1" />
          </radialGradient>
         <rect
   id="rect174"
   height="3185.6"
   width="3185.5"
   y="97219.4"
   x="92818.7"
   fill="url(#id45)" />
        </mask>
        <mask
   id="id42">
          <radialGradient
   fy="98506.6"
   fx="94155.2"
   r="605.244"
   cy="98506.6"
   cx="94155.2"
   gradientUnits="userSpaceOnUse"
   id="id43">
           <stop
   id="stop162"
   stop-color="white"
   stop-opacity="0"
   offset="0" />
           <stop
   id="stop164"
   stop-color="white"
   stop-opacity="1"
   offset="1" />
          </radialGradient>
         <rect
   id="rect166"
   height="3185.6"
   width="3185.5"
   y="97219.4"
   x="92818.7"
   fill="url(#id43)" />
        </mask>
        <mask
   id="id40">
          <radialGradient
   fy="112404"
   fx="93944.9"
   r="1534.82"
   cy="112404"
   cx="93944.9"
   gradientUnits="userSpaceOnUse"
   id="id41">
           <stop
   id="stop154"
   stop-color="white"
   stop-opacity="0"
   offset="0" />
           <stop
   id="stop156"
   stop-color="white"
   stop-opacity="1"
   offset="1" />
          </radialGradient>
         <rect
   id="rect158"
   height="3185.6"
   width="3185.6"
   y="111116"
   x="92608.4"
   fill="url(#id41)" />
        </mask>
        <mask
   id="id38">
          <radialGradient
   fy="112404"
   fx="93944.9"
   r="605.244"
   cy="112404"
   cx="93944.9"
   gradientUnits="userSpaceOnUse"
   id="id39">
           <stop
   id="stop146"
   stop-color="white"
   stop-opacity="0"
   offset="0" />
           <stop
   id="stop148"
   stop-color="white"
   stop-opacity="1"
   offset="1" />
          </radialGradient>
         <rect
   id="rect150"
   height="3185.6"
   width="3185.6"
   y="111116"
   x="92608.4"
   fill="url(#id39)" />
        </mask>
        <mask
   id="id36">
          <radialGradient
   fy="111561"
   fx="96471.6"
   r="1534.82"
   cy="111561"
   cx="96471.6"
   gradientUnits="userSpaceOnUse"
   id="id37">
           <stop
   id="stop138"
   stop-color="white"
   stop-opacity="0"
   offset="0" />
           <stop
   id="stop140"
   stop-color="white"
   stop-opacity="1"
   offset="1" />
          </radialGradient>
         <rect
   id="rect142"
   height="3185.6"
   width="3185.6"
   y="110274"
   x="95135.1"
   fill="url(#id37)" />
        </mask>
        <mask
   id="id34">
          <radialGradient
   fy="111561"
   fx="96471.6"
   r="605.244"
   cy="111561"
   cx="96471.6"
   gradientUnits="userSpaceOnUse"
   id="id35">
           <stop
   id="stop130"
   stop-color="white"
   stop-opacity="0"
   offset="0" />
           <stop
   id="stop132"
   stop-color="white"
   stop-opacity="1"
   offset="1" />
          </radialGradient>
         <rect
   id="rect134"
   height="3185.6"
   width="3185.6"
   y="110274"
   x="95135.1"
   fill="url(#id35)" />
        </mask>
        <mask
   id="id32">
          <radialGradient
   fy="124247"
   fx="101157"
   r="1534.82"
   cy="124247"
   cx="101157"
   gradientUnits="userSpaceOnUse"
   id="id33">
           <stop
   id="stop122"
   stop-color="white"
   stop-opacity="0"
   offset="0" />
           <stop
   id="stop124"
   stop-color="white"
   stop-opacity="1"
   offset="1" />
          </radialGradient>
         <rect
   id="rect126"
   height="3185.6"
   width="3185.6"
   y="122960"
   x="99820"
   fill="url(#id33)" />
        </mask>
        <mask
   id="id30">
          <radialGradient
   fy="124247"
   fx="101157"
   r="605.244"
   cy="124247"
   cx="101157"
   gradientUnits="userSpaceOnUse"
   id="id31">
           <stop
   id="stop114"
   stop-color="white"
   stop-opacity="0"
   offset="0" />
           <stop
   id="stop116"
   stop-color="white"
   stop-opacity="1"
   offset="1" />
          </radialGradient>
         <rect
   id="rect118"
   height="3185.6"
   width="3185.6"
   y="122960"
   x="99820"
   fill="url(#id31)" />
        </mask>
        <mask
   id="id28">
          <radialGradient
   fy="121780"
   fx="102186"
   r="1534.82"
   cy="121780"
   cx="102186"
   gradientUnits="userSpaceOnUse"
   id="id29">
           <stop
   id="stop106"
   stop-color="white"
   stop-opacity="0"
   offset="0" />
           <stop
   id="stop108"
   stop-color="white"
   stop-opacity="1"
   offset="1" />
          </radialGradient>
         <rect
   id="rect110"
   height="3185.6"
   width="3185.6"
   y="120492"
   x="100850"
   fill="url(#id29)" />
        </mask>
        <mask
   id="id26">
          <radialGradient
   fy="121780"
   fx="102186"
   r="605.244"
   cy="121780"
   cx="102186"
   gradientUnits="userSpaceOnUse"
   id="id27">
           <stop
   id="stop98"
   stop-color="white"
   stop-opacity="0"
   offset="0" />
           <stop
   id="stop100"
   stop-color="white"
   stop-opacity="1"
   offset="1" />
          </radialGradient>
         <rect
   id="rect102"
   height="3185.6"
   width="3185.6"
   y="120492"
   x="100850"
   fill="url(#id27)" />
        </mask>
        <mask
   id="id24">
          <radialGradient
   fy="123563"
   fx="104157"
   r="1534.82"
   cy="123563"
   cx="104157"
   gradientUnits="userSpaceOnUse"
   id="id25">
           <stop
   id="stop90"
   stop-color="white"
   stop-opacity="0"
   offset="0" />
           <stop
   id="stop92"
   stop-color="white"
   stop-opacity="1"
   offset="1" />
          </radialGradient>
         <rect
   id="rect94"
   height="3185.6"
   width="3185.6"
   y="122276"
   x="102820"
   fill="url(#id25)" />
        </mask>
        <mask
   id="id22">
          <radialGradient
   fy="123563"
   fx="104157"
   r="605.244"
   cy="123563"
   cx="104157"
   gradientUnits="userSpaceOnUse"
   id="id23">
           <stop
   id="stop82"
   stop-color="white"
   stop-opacity="0"
   offset="0" />
           <stop
   id="stop84"
   stop-color="white"
   stop-opacity="1"
   offset="1" />
          </radialGradient>
         <rect
   id="rect86"
   height="3185.6"
   width="3185.6"
   y="122276"
   x="102820"
   fill="url(#id23)" />
        </mask>
        <mask
   id="id20">
          <radialGradient
   fy="131564"
   fx="111263"
   r="1534.82"
   cy="131564"
   cx="111263"
   gradientUnits="userSpaceOnUse"
   id="id21">
           <stop
   id="stop74"
   stop-color="white"
   stop-opacity="0"
   offset="0" />
           <stop
   id="stop76"
   stop-color="white"
   stop-opacity="1"
   offset="1" />
          </radialGradient>
         <rect
   id="rect78"
   height="3185.6"
   width="3185.5"
   y="130277"
   x="109927"
   fill="url(#id21)" />
        </mask>
        <mask
   id="id18">
          <radialGradient
   fy="131564"
   fx="111263"
   r="605.244"
   cy="131564"
   cx="111263"
   gradientUnits="userSpaceOnUse"
   id="id19">
           <stop
   id="stop66"
   stop-color="white"
   stop-opacity="0"
   offset="0" />
           <stop
   id="stop68"
   stop-color="white"
   stop-opacity="1"
   offset="1" />
          </radialGradient>
         <rect
   id="rect70"
   height="3185.6"
   width="3185.5"
   y="130277"
   x="109927"
   fill="url(#id19)" />
        </mask>
        <mask
   id="id16">
          <radialGradient
   fy="129196"
   fx="112474"
   r="1534.82"
   cy="129196"
   cx="112474"
   gradientUnits="userSpaceOnUse"
   id="id17">
           <stop
   id="stop58"
   stop-color="white"
   stop-opacity="0"
   offset="0" />
           <stop
   id="stop60"
   stop-color="white"
   stop-opacity="1"
   offset="1" />
          </radialGradient>
         <rect
   id="rect62"
   height="3185.6"
   width="3185.6"
   y="127908"
   x="111138"
   fill="url(#id17)" />
        </mask>
        <mask
   id="id14">
          <radialGradient
   fy="129196"
   fx="112474"
   r="605.244"
   cy="129196"
   cx="112474"
   gradientUnits="userSpaceOnUse"
   id="id15">
           <stop
   id="stop50"
   stop-color="white"
   stop-opacity="0"
   offset="0" />
           <stop
   id="stop52"
   stop-color="white"
   stop-opacity="1"
   offset="1" />
          </radialGradient>
         <rect
   id="rect54"
   height="3185.6"
   width="3185.6"
   y="127908"
   x="111138"
   fill="url(#id15)" />
        </mask>
        <clipPath
   id="id13">
       <path
   id="path46"
   d="M85314 84115.9c0,0 -552.3,5344.2 736.2,8016.4 1288.5,2672.2 3267.3,4330.7 4693.9,5712.9 1426.7,1382.2 2485.1,2441.9 2485.1,2441.9 0,0 460.3,-3040.7 -92,-5851.1 -552.3,-2810.4 -1610.7,-4054.4 -3083.3,-5390.5 -1472.6,-1336.1 -2531.1,-2626.2 -3175.3,-3225.1 -644.3,-598.8 -1564.6,-1704.5 -1564.6,-1704.5z" />
      </clipPath>
      <clipPath
   id="id12">
       <path
   id="path3567"
   d="M85314 97983.4c-849.9,4413.7 346.8,8919 4279.7,11379.8 2208.9,1382.2 4233.9,1520.4 4786,1889 552.2,368.6 920.4,506.8 920.4,506.8 0,0 -138.1,-3040.7 -1196.6,-4791.5 -1058.4,-1750.8 -2577.1,-3409.3 -4371.8,-5160 -1794.7,-1750.8 -2669,-2349.7 -3267.3,-2948.6 -598.3,-599 -1150.4,-875.5 -1150.4,-875.5z" />
      </clipPath>
      <clipPath
   id="id11">
       <path
   id="path40"
   d="M104044 136315c0,0 2209,2165.3 5108.2,2441.8 2899.1,276.4 3773.6,368.6 6994.9,-1382.2 3221.3,-1750.7 3129.3,-2441.7 4417.8,-2902.5 1288.5,-460.7 1794.7,-1013.6 1794.7,-1013.6l-1380.5 -875.3 -1978.9 46.1c0,0 -6534.6,-230.4 -7915.2,-92.2 -2481.2,248.3 -3816.5,2269.5 -5936.5,3179 -644.3,276.3 -1104.5,598.9 -1104.5,598.9z" />
      </clipPath>
      <clipPath
   id="id10">
       <path
   id="path3562"
   d="M123795 134022c0,0 -1985.8,-1073.1 -2201.7,-2825.5 -216,-1752.5 258.1,-3127.7 -1657.2,-6005.6 -1920.3,-2885.3 -3639.1,-4581.3 -6955.1,-6338.9 1025.2,2432.4 58.6,5266.3 1020.7,7869.5 671.5,1817.1 2247.6,3483.5 3302.7,4564 1055.1,1080.5 2227.4,2317.3 2227.4,2317.3l1744.8 806.1 1998.3 330.3 520.1 -717.2z" />
      </clipPath>
      <clipPath
   id="id9">
       <path
   id="path34"
   d="M107127 115030c0,0 2117,1750.6 2899.2,3685.7 782.3,1935.1 1196.5,3501.6 1196.5,5068 0,1566.4 -506.3,2902.5 -644.3,3777.8 -138,875.4 -138,1889 -138,1889l-4786 -3086.8c0,0 -598.2,-4238.6 -92,-6680.5 506.1,-2441.8 1564.6,-4653.2 1564.6,-4653.2z" />
      </clipPath>
      <clipPath
   id="id8">
       <path
   id="path3557"
   d="M85682 111344c93.9,3903.7 2271.5,9291.9 6212.7,10780.9 2438.9,921.4 4417.7,644.8 6212.5,598.8 1794.8,-46 3037.3,184.3 3037.3,184.3 0,0 184.1,-506.6 -414.1,-1888.8 -598.3,-1382.3 -3911.7,-3685.9 -6856.9,-5298.4 -2945.3,-1612.5 -5844.5,-2856.4 -6718.9,-3409.3 -874.3,-552.8 -1472.6,-967.5 -1472.6,-967.5z" />
      </clipPath>
      <clipPath
   id="id7">
       <path
   id="path28"
   d="M104366 104526c876.3,3289.5 1220.2,8537.4 -736.3,11518 -1058.4,1612.5 -3267.3,3870 -3267.3,3870l-1656.7 1105.8 -3451.4 -4054.4c0,0 1518.6,-2718.2 3635.5,-5528.6 1671.9,-2219.8 3504.6,-4936.8 5476.2,-6910.8z" />
      </clipPath>
      <clipPath
   id="id6">
       <path
   id="path3552"
   d="M103768 95633.8c0,0 414.2,2534 -46,4699.4 -460.2,2165.3 -874.5,3363.2 -2393.1,4791.4 -1518.6,1428.2 -2300.9,2027.2 -4003.6,3086.8 -1702.7,1059.7 -2577.1,1889 -2577.1,1889 0,0 -1472.7,-1244 -598.3,-3962.2 874.5,-2718.2 1840.9,-3870.2 4049.8,-5943.3 2208.9,-2073.2 3635.6,-2395.7 4417.8,-2994.6 782.3,-599 1150.5,-1566.5 1150.5,-1566.5z" />
      </clipPath>
      <clipPath
   id="id5">
       <path
   id="path22"
   d="M104320 85405.9c0,0 -276.2,3409.2 -1196.6,5436.4 -920.3,2027.2 -1288.5,3225 -2715.1,4192.5 -1426.6,967.6 -1978.8,1243.9 -3405.4,1842.9 -1426.6,599 -1840.8,138.3 -2669.2,829.3 -828.3,691.1 -598.2,552.9 -598.2,552.9 0,0 46.1,-2257.5 1380.6,-4607.2 1334.5,-2349.6 1840.8,-3547.5 4647.9,-5160 2807.2,-1612.5 4556,-3086.8 4556,-3086.8z" />
      </clipPath>
      <clipPath
   id="id4">
       <path
   id="path3547"
   d="M103676 74901.5c0,0 -230.2,3271.1 -1334.6,5252.1 -1104.5,1981.1 -1978.7,3178.9 -2899.2,3824 -920.4,645 -1242.5,783.2 -2439,1336.1 -1196.6,552.8 -2623.1,2165.3 -2623.1,2165.3 0,0 -184.2,-2626 552.2,-4100.3 736.4,-1474.3 1288.5,-2718.2 3405.4,-4607.2 2116.9,-1888.9 2669.1,-2027.1 3773.6,-2580 1104.4,-552.9 1564.7,-1290 1564.7,-1290z" />
      </clipPath>
      <clipPath
   id="id3">
       <path
   id="path16"
   d="M85175.9 74578.9c0,0 92.1,3317.2 828.3,5206.2 736.3,1888.9 1886.7,3363.1 3451.4,4376.8 1564.7,1013.6 2899.2,783.3 3589.5,1612.5 690.3,829.3 1288.5,1704.6 1288.5,1704.6 0,0 -368.1,-3086.8 -1242.5,-5113.9 -874.3,-2027.2 -1334.5,-3132.8 -2853.1,-4699.3 -1518.6,-1566.5 -2439.1,-1889 -3313.4,-2257.5 -874.4,-368.6 -1748.7,-829.4 -1748.7,-829.4z" />
      </clipPath>
      <clipPath
   id="id2">
       <path
   id="path13"
   d="M100960 67576c0,0 322.2,3179 -184,4146.5 -506.3,967.5 -1150.5,2119.3 -2301,2672.1 -1150.5,552.9 -2024.9,1105.7 -2669.2,1658.6 -644.2,552.9 -1288.5,1842.9 -1288.5,1842.9 0,0 -567.2,-2714.8 184.1,-4238.6 1827.9,-3707.4 4242.2,-3211.7 6258.6,-6081.5z" />
      </clipPath>
      <clipPath
   id="id1">
       <path
   id="path10"
   d="M88443.2 66746.7c0,0 -368.2,1428.2 -276.1,3086.8 92.1,1658.6 -46.1,3777.9 1748.7,4929.7 1794.8,1151.8 2254.9,737.2 3175.3,1428.3 920.4,691.1 1288.6,1382.1 1288.6,1382.1 0,0 -0.1,-1520.3 -230.2,-2856.4 -230,-1336.1 -275.9,-2718.2 -1840.7,-4054.3 -1564.7,-1336.1 -2070.7,-1658.6 -2761.1,-2395.8 -690.4,-737.1 -1104.5,-1520.4 -1104.5,-1520.4z" />
      </clipPath>
      <clipPath
   id="id0">
       <path
   id="path7"
   d="M94297 62259.3c0,0 62.2,714.4 -560.3,1688.5 -622.6,974.1 -1182.9,2143.1 -1120.6,3441.9 62.2,1298.9 186.7,2078.2 809.3,3377 622.5,1298.8 871.6,2337.9 871.6,2337.9 0,0 124.5,-389.6 871.5,-1428.7 747.1,-1039.1 1307.4,-2792.5 1245.1,-4351.1 -62.2,-1558.6 -498,-2467.8 -933.8,-3377 -435.8,-909.2 -1182.8,-1688.5 -1182.8,-1688.5z" />
      </clipPath>
      
  
  
 
   
   
  </defs>
 <rect
   style="fill:#213481;stroke:black;stroke-opacity:1.0;stroke-width:11.11121588;stroke-miterlimit:4;stroke-dasharray:none;fill-opacity:1"
   id="rect9"
   height="7087"
   width="10630"
   y="0"
   x="0"
   class="fil0" />
<g
   id="g2698"><path
     transform="matrix(1.050369,0,0,1.058772,-450.3222,-1984.759)"
     d="M 7084.5696 5305.2271 A 1581.7332 1581.7332 0 1 1  3921.1033,5305.2271 A 1581.7332 1581.7332 0 1 1  7084.5696 5305.2271 z"
     sodipodi:ry="1581.7332"
     sodipodi:rx="1581.7332"
     sodipodi:cy="5305.2271"
     sodipodi:cx="5502.8364"
     id="path4962"
     style="opacity:1;fill:#213481;fill-opacity:1;fill-rule:nonzero;stroke:black;stroke-width:3;stroke-linecap:square;stroke-miterlimit:4;stroke-dasharray:none;stroke-dashoffset:0;stroke-opacity:1"
     sodipodi:type="arc" /><g
     transform="matrix(0.120876,0,0,0.123718,-11257.32,-5912.88)"
     id="g3735"
     style="fill-rule:evenodd"><g
       id="g310"
       transform="translate(21567.64,-4129.973)">
    
    
   </g><g
       id="g314"
       transform="translate(2294.43,-10095.49)">
    
    <g
   id="g1026">
     
     
     
     
     
     
     
     
     
     
     
     
     
     
     
     
     
     
     
     
     
     
     <g
   clip-path="url(#id4)"
   id="g1768">
      
     </g>
     
     
     
     
     
     
     
     
     
     
     
     
     
     
     
     
     
     
     
     
     
     
     
     
     
     
     
     
     
     
     
     
     
     
     
     
     
     
     
     
     
     
     
     
     
     
     
     
     
     
     
     
     
     
     
     
     
     
     
     
     
     
     
     
     <g
   id="g7020">
      
      
      
      
      
      <g
   id="g7032">
       
       <g
   id="g7036">
        
        <polygon
   points="133728,73441.2 136273,73441 136273,85866.4 148698,85866.4 148699,88411.4 136273,88411.4 136273,100837 133728,100837 133728,88411.5 121303,88411.5 121303,85866.5 133728,85866.5 133728,73441.2 "
   id="polygon7040"
   style="fill:#213481;fill-opacity:1" />
        <path
   d="M 135001,73108.1 L 135001.3,73108.1 L 135001.9,73108.1 L 135001.9,73109.2 C 135034.4,73109.2 135066.7,73109.3 135098.9,73109.8 C 138934.5,73136 142404.8,74701.3 144921.9,77218.6 C 147460.3,79757.1 149030.6,83264.5 149030.8,87138.2 L 149031.8,87138.2 L 149031.8,87139 L 149031.8,87139.3 L 149030.8,87139.3 C 149030.7,91013.1 147460.2,94520.8 144921.7,97059.4 C 142400.5,99580.7 138923.4,101146.9 135080.4,101168.2 C 135054.6,101168.5 135028.7,101168.8 135002.8,101168.8 L 135002.8,101169.8 L 135001.7,101169.8 L 135001.5,101169.8 L 135001,101169.8 L 135000.6,101169.8 L 135000.1,101169.8 L 135000.1,101168.8 L 134964.4,101168.6 L 134928.9,101168.3 L 134922.8,101168.2 C 131079.2,101147.3 127601.5,99580.9 125080.1,97059.2 C 122541.7,94520.7 120971.4,91013.2 120971.2,87139.7 L 120970.1,87139.7 L 120970.1,87139 L 120970.1,87138.6 L 120971.2,87138.6 C 120971.2,83264.6 122541.7,79756.9 125080.3,77218.3 C 127599.2,74699.3 131072.6,73133.7 134911.3,73109.7 C 134940.5,73109.3 134969.7,73109.2 134999.1,73109.2 L 134999.1,73108.1 L 135000.3,73108.1 L 135000.5,73108.1 L 135001,73108.1 L 135001,73108.1 z M 135338.1,75716 L 135338.1,79079.9 L 138809.8,79079.9 C 138654.3,78498.6 138482.6,77952.4 138296.2,77446.6 C 138121.2,76971.3 137932.7,76531.2 137732.9,76130.9 C 137575.5,75815.8 137412.3,75527.7 137244.5,75268.8 C 137220.5,75281.7 137195.8,75294.2 137170.5,75306.6 L 137169.5,75307.2 L 137168.5,75307.7 L 137159.8,75311.9 L 137151,75316.1 L 137144.8,75319.2 L 137135.8,75323.4 L 137107.6,75336.7 L 137106.3,75337.3 C 137060.2,75358.6 137012.6,75379.1 136963.3,75398.7 C 136916.8,75417.2 136868.7,75434.9 136819.1,75452 L 136816.1,75453.1 L 136808.8,75455.5 L 136808.4,75455.7 L 136769.5,75468.8 L 136767.6,75469.4 L 136765,75470.3 L 136763.3,75470.9 C 136719.7,75485.3 136675.2,75499.2 136629.5,75512.5 C 136563.9,75531.6 136497,75549.3 136429.3,75565.6 C 136164.8,75629.4 135871.5,75676 135559.4,75701.6 L 135559.1,75701.6 L 135549.7,75702.4 L 135503.4,75705.9 L 135491.4,75706.7 L 135463.7,75708.7 L 135457.2,75709.1 L 135456.8,75709.1 L 135433.4,75710.7 L 135423,75711.4 L 135409.9,75712.1 L 135362.9,75714.8 L 135354.1,75715.3 L 135339.2,75716 L 135338.1,75716 L 135338.1,75716 z M 135338.1,79748 L 135338.1,86805 L 139767.7,86805 C 139745,84206 139457.9,81788.8 138977.6,79748 L 135338.1,79748 z M 135338.1,87473 L 135338.1,94530 L 138977.9,94530 C 138993.9,94461.9 139009.9,94393.4 139025.6,94324.2 C 139477.7,92325.6 139746.7,89983.3 139768.7,87473 L 135338.1,87473 z M 135338.1,95198 L 135338.1,98560.6 C 135956.8,98591 136515.9,98704 136944.5,98871.1 C 137042.8,98909.5 137137.3,98952.4 137227,98999.6 L 137244.8,99008.9 C 137844.3,98085.6 138367.7,96821.4 138780.5,95309.7 C 138790.6,95272.6 138800.6,95235.4 138810.5,95198 L 135338.1,95198 L 135338.1,95198 z M 134663.8,98561.7 L 134663.8,95198 L 131192.4,95198 C 131347.8,95779.3 131519.3,96325.5 131705.7,96831.2 C 131880.8,97306.4 132069.2,97746.5 132269.1,98146.7 C 132426.5,98462 132589.5,98750 132757.2,99008.9 C 132932.8,98914.8 133140.6,98832.7 133372.5,98765.3 C 133435,98747.2 133502.2,98729.4 133573.7,98712.2 C 133788.8,98660.4 134022.9,98619.7 134270.5,98592.6 L 134276.1,98592 L 134331.7,98586.3 L 134338.3,98585.6 L 134342.3,98585.2 L 134350.4,98584.4 C 134403.2,98579.3 134456.6,98574.8 134510.5,98570.9 L 134522.4,98570.1 L 134544.8,98568.5 L 134545.8,98568.5 L 134569,98567 L 134578.9,98566.3 L 134592.5,98565.5 L 134613.3,98564.3 L 134616,98564.2 L 134639.6,98562.8 L 134647.8,98562.5 L 134663.2,98561.7 L 134663.8,98561.7 L 134663.8,98561.7 z M 134663.8,94530 L 134663.8,87473 L 130234.2,87473 C 130257,90072.2 130544.2,92489.2 131024.6,94530 L 134663.8,94530 z M 134663.8,86805 L 134663.8,79748 L 131024.1,79748 C 131008.1,79816 130992.1,79884.6 130976.5,79953.7 C 130524.3,81952.3 130255.2,84294.7 130233.2,86805 L 134663.8,86805 z M 134663.8,79079.9 L 134663.8,75717 C 134045.2,75686.6 133486.1,75573.9 133057.5,75406.7 C 132988.6,75379.8 132921.8,75350.4 132856.9,75319.1 L 132856.5,75318.9 L 132832.3,75307.1 L 132830.5,75306.2 C 132811.8,75297.1 132793.3,75287.8 132775.1,75278.3 L 132757.1,75268.8 C 132157.6,76192.1 131634.4,77456.4 131221.6,78968.2 C 131211.5,79005.3 131201.5,79042.5 131191.5,79079.9 L 134663.8,79079.9 z M 123688.9,94530 L 126491.5,94530 C 125581.4,92472.3 125039.4,90058.7 124996.3,87473 L 121492.1,87473 C 121555.2,90073.5 122354.4,92492.5 123688.9,94530 L 123688.9,94530 z M 127057.3,94530 L 130493,94530 C 130020,92475.3 129737.8,90060.8 129715.5,87473 L 125513,87473 C 125557.3,90074.1 126118.9,92492.4 127057.3,94530 z M 139508.9,94530 L 142944.8,94530 C 143883.1,92492.3 144444.6,90074.2 144488.9,87473 L 140285.4,87473 C 140263.3,90024 139989.9,92405.2 139530.1,94437.7 L 139508.9,94530 z M 143510.3,94530 L 146313,94530 C 147647.5,92492.5 148446.7,90073.6 148509.9,87473 L 145005.7,87473 C 144962.6,90058.7 144420.5,92472.3 143510.3,94530 z M 145846.3,95198 L 143195.8,95198 C 142869.3,95850.3 142504.3,96461.8 142105.3,97025.5 C 141183,98328.1 140079.6,99377.6 138851.9,100094.6 C 141034.2,99446.3 142986.4,98261.4 144555,96692.7 C 145020.6,96227 145452.3,95727.4 145846.3,95198 L 145846.3,95198 z M 142616.3,95198 L 139345,95198 C 139323.4,95280.9 139301.4,95363.4 139279,95445.4 C 138848.4,97022.2 138296.8,98345.7 137660.8,99316.9 C 137814.6,99479.4 137899.6,99662.9 137899.8,99860.7 L 137900.8,99860.7 L 137900.8,99861.2 L 137900.8,99861.5 L 137899.8,99861.5 C 137899.7,99914 137893.6,99965.3 137881.9,100015.6 C 139330.4,99357.5 140629.3,98217.3 141683.9,96727.7 C 142020.7,96251.9 142332.4,95740.4 142616.3,95198 L 142616.3,95198 z M 130656.8,95198 L 127385.6,95198 C 127669.5,95740.3 127981.2,96251.7 128318,96727.5 C 129372.5,98217.1 130671.5,99357.4 132120,100015.6 C 132108.3,99965.4 132102.2,99914.1 132102.2,99861.6 L 132101.2,99861.6 L 132101.2,99861.2 L 132101.2,99860.8 L 132102.2,99860.8 C 132102.3,99663 132187.3,99479.5 132341.2,99316.8 C 132153.7,99030.8 131974.6,98717 131805.1,98377.7 C 131597.7,97962.4 131401.9,97504.8 131219.4,97009.5 C 131013.7,96451.1 130825.4,95845 130656.8,95198 L 130656.8,95198 z M 126806.1,95198 L 124155.6,95198 C 124549.6,95727.3 124981.2,96226.9 125446.8,96692.5 C 127015.4,98261.3 128967.6,99446.3 131150.1,100094.6 C 129922.3,99377.6 128818.8,98328 127896.6,97025.3 C 127497.6,96461.7 127132.6,95850.3 126806.1,95198 L 126806.1,95198 z M 121492.1,86805 L 124996.2,86805 C 125039.3,84219.4 125581,81805.6 126491.2,79748 L 123688.3,79748 C 122354.1,81785.4 121555.3,84204.5 121492.1,86805 L 121492.1,86805 z M 125513.1,86805 L 129716.6,86805 C 129738.6,84254 130012.1,81872.8 130472,79840.2 L 130493.1,79748 L 127057.3,79748 C 126118.8,81785.7 125557.4,84203.9 125513.1,86805 z M 140286.4,86805 L 144488.9,86805 C 144444.6,84203.8 143883.2,81785.7 142944.7,79748 L 139509.2,79748 C 139982.2,81802.6 140264.1,84217.4 140286.4,86805 z M 145005.7,86805 L 148509.8,86805 C 148446.7,84204.6 147647.8,81785.5 146313.5,79748 L 143510.7,79748 C 144421,81805.6 144962.7,84219.4 145005.7,86805 L 145005.7,86805 z M 124155.1,79079.9 L 126805.9,79079.9 C 127132.6,78427.6 127497.6,77816.2 127896.7,77252.4 C 128819.1,75949.6 129922.8,74899.8 131150.8,74182.8 C 128968.2,74831 127015.8,76016.2 125447,77585 C 124981.1,78050.9 124549.3,78550.5 124155.1,79079.9 L 124155.1,79079.9 z M 127385.6,79079.9 L 130657.1,79079.9 C 130678.7,78997 130700.8,78914.6 130723.1,78832.5 C 131153.7,77255.7 131705.2,75932.1 132341.1,74960.9 C 132187.3,74798.3 132102.4,74615 132102.2,74417.2 L 132101.2,74417.2 L 132101.2,74416.7 L 132101.2,74416.4 L 132102.2,74416.4 C 132102.2,74363.9 132108.3,74312.4 132120,74262.1 C 130671.6,74920.2 129372.6,76060.7 128318.1,77550.3 C 127981.2,78026.1 127669.5,78537.5 127385.6,79079.9 z M 139345.4,79079.9 L 142616.4,79079.9 C 142332.5,78537.5 142020.8,78026.3 141684,77550.5 C 140629.4,76060.8 139330.4,74920.2 137881.9,74262 C 137893.6,74312.4 137899.7,74363.8 137899.8,74416.3 L 137900.8,74416.3 L 137900.8,74416.7 L 137900.8,74417.1 L 137899.8,74417.1 C 137899.6,74614.9 137814.6,74798.2 137660.8,74960.8 C 137848.3,75246.8 138027.4,75560.8 138196.8,75900 C 138404.2,76315.3 138600,76773 138782.5,77268.2 C 138988.3,77826.8 139176.7,78432.9 139345.4,79079.9 L 139345.4,79079.9 z M 143196,79079.9 L 145846.8,79079.9 C 145452.6,78550.6 145021,78051 144555.2,77585.3 C 142986.4,76016.4 141033.9,74831.1 138851.3,74182.8 C 140079.3,74899.8 141183,75949.7 142105.3,77252.6 C 142504.4,77816.3 142869.4,78427.7 143196,79079.9 z M 135001.9,73625.8 L 135001.9,73626.9 L 135001.3,73626.9 L 135001,73626.9 L 135000.5,73626.9 L 135000.3,73626.9 L 134999.1,73626.9 L 134999.1,73625.8 C 134960.1,73625.8 134921.1,73626.1 134882.1,73626.8 L 134878.5,73626.9 L 134869.7,73627.1 C 134836.5,73627.7 134803.5,73628.7 134770.4,73629.8 L 134730,73631.4 L 134682.4,73633.5 C 134114.7,73661.7 133608.8,73764.1 133229.1,73915.1 C 132852.2,74064.7 132619,74243.8 132618.9,74416.4 L 132619.9,74416.4 L 132619.9,74416.7 L 132619.9,74417.2 L 132618.9,74417.2 C 132618.9,74491.3 132662.1,74566.3 132740.9,74639.9 L 132833.9,74709.6 L 132834.3,74709.2 C 132889.7,74749.5 132949.9,74786.7 133014.2,74820.4 C 133081.4,74855.7 133159,74890.5 133246,74924.4 C 133693.2,75098.9 134312.3,75206.6 135001,75206.6 L 135002.3,75206.6 L 135002.8,75206.6 L 135002.8,75207.6 L 135024.6,75207.6 L 135035.2,75207.5 L 135047,75207.4 C 135086.4,75207.1 135125.5,75206.4 135164.3,75205.5 L 135180.3,75205.1 L 135183.2,75205 C 135239.5,75203.5 135295.2,75201.2 135350.3,75198.1 L 135354.5,75197.9 L 135354.9,75197.9 L 135357.2,75197.8 C 135701.7,75178.5 136023.6,75131.7 136307.7,75063.2 C 136369.8,75048.2 136429.2,75032.5 136485.6,75016.1 C 136608.8,74980.2 136722.4,74940.3 136824.8,74897.2 L 136829.3,74895.2 C 136962.6,74838.7 137076.7,74776.5 137168.3,74709.8 L 137248.4,74651.4 C 137335.2,74574.1 137383,74495.1 137383.1,74417.1 L 137382.1,74417.1 L 137382.1,74416.7 L 137382.1,74416.3 L 137383.1,74416.3 C 137382.9,74243.8 137149.8,74064.8 136773.1,73915.1 C 136392.3,73763.7 135884.5,73661 135314.9,73633.3 L 135274.5,73631.5 L 135230.1,73629.7 C 135197.3,73628.6 135164.4,73627.8 135131.5,73627.1 L 135123.1,73626.9 L 135118.7,73626.8 C 135079.9,73626.2 135040.9,73625.8 135001.9,73625.8 L 135001.9,73625.8 z M 134999.7,99071.3 L 134999.1,99071.3 L 134999.1,99070.3 L 134977.3,99070.3 L 134966.7,99070.3 L 134954.9,99070.3 L 134934.3,99070.5 L 134932.5,99070.5 L 134910.2,99070.8 L 134889.8,99071.1 L 134888,99071.1 L 134869.7,99071.5 L 134865.8,99071.6 L 134843.7,99072.1 L 134837.6,99072.2 L 134821.5,99072.7 L 134805.6,99073.1 L 134799.6,99073.2 L 134777.5,99074 L 134773.8,99074.1 L 134755.6,99074.8 L 134741.9,99075.3 L 134733.7,99075.6 L 134712,99076.5 L 134710.3,99076.6 L 134690.2,99077.6 C 134327.8,99095.1 133990,99143.1 133693.3,99214.6 L 133668.8,99220.5 L 133668.8,99220.5 L 133666,99221.2 L 133663.3,99221.9 L 133657.8,99223.2 L 133655.1,99224 L 133646.8,99226 L 133644,99226.8 C 133601.8,99237.5 133559.2,99249.3 133516.4,99261.7 C 133494.7,99268 133473.4,99274.2 133452.3,99280.8 L 133450.5,99281.4 L 133437.5,99285.5 L 133424.7,99289.6 L 133411.8,99293.7 L 133405.7,99295.7 L 133399.1,99297.9 L 133386.4,99302.1 L 133373.9,99306.3 L 133361.3,99310.6 L 133360.1,99310.9 L 133349,99314.8 L 133337.6,99318.7 L 133336.6,99319.1 L 133324.4,99323.5 L 133315.5,99326.7 L 133312.1,99327.8 C 133283.8,99338.1 133256.1,99348.7 133229.1,99359.4 C 133205.6,99368.8 133182.6,99378.1 133160.2,99387.8 L 133150.7,99391.8 C 133026.9,99445.9 132920.2,99505 132833.7,99567.9 L 132753.3,99626.5 C 132666.6,99703.7 132618.9,99783 132618.9,99860.8 L 132619.9,99860.8 L 132619.9,99861.2 L 132619.9,99861.6 L 132618.9,99861.6 C 132619,100034.1 132852.1,100213.1 133228.8,100362.8 C 133631.2,100522.8 134175.6,100628 134784.8,100648.3 C 134814.3,100649.3 134843.8,100650.2 134873.4,100650.8 L 134886.9,100651 C 134924.5,100651.7 134962.3,100652.1 135000.1,100652.1 L 135000.1,100651 L 135000.6,100651 L 135001,100651 L 135001.5,100651 L 135001.7,100651 L 135002.8,100651 L 135002.8,100652.1 C 135040.8,100652.1 135078.6,100651.6 135116.5,100650.9 L 135123.5,100650.9 L 135132.3,100650.7 C 135161.3,100650.1 135190.4,100649.2 135219.4,100648.3 L 135260.1,100646.9 L 135291.6,100645.5 C 135870.5,100619.3 136386.9,100516.3 136772.8,100362.8 C 137149.7,100213.2 137383,100034.1 137383.1,99861.5 L 137382.1,99861.5 L 137382.1,99861.2 L 137382.1,99860.7 L 137383.1,99860.7 C 137383,99786.8 137339.9,99711.5 137261.3,99638 L 137168.2,99568 L 137167.8,99568.6 C 137112.4,99528.3 137052.1,99491.1 136987.9,99457.4 C 136920.7,99422.1 136843.1,99387.3 136756.1,99353.3 C 136308.8,99178.9 135689.6,99071.3 135001,99071.3 L 134999.7,99071.3 L 134999.7,99071.3 z "
   id="path7042"
   style="fill:#f5db00;fill-opacity:1;fill-rule:nonzero;stroke:black;stroke-width:90.86049652;stroke-miterlimit:4;stroke-dasharray:none;stroke-opacity:1" />
        <path
   sodipodi:nodetypes="ccccc"
   d="M 124383.09,77887.145 L 148214.04,91821.692 C 147625.04,93562.792 146751.53,94986.137 145563.43,96336.837 L 121732.47,82509.726 C 122321.67,80768.826 123194.99,79237.745 124383.09,77887.145 z "
   id="path7044"
   style="fill:#f5db00;fill-opacity:1;stroke:black;stroke-width:272.58148193;stroke-miterlimit:4;stroke-dasharray:none;stroke-opacity:1" />
        <path
   d="M 124411,78746.7 L 147566.6,92115.6 C 147523.8,92223.4 147479.7,92330.5 147434.3,92436.9 L 124198.5,79021.7 C 124268.2,78929.1 124339,78837.5 124411,78746.7 L 124411,78746.7 z M 145590,95530.9 L 122434.6,82162.2 C 122477.4,82054.4 122521.5,81947.4 122567,81841 L 145802.6,95256.1 C 145732.9,95348.6 145662,95440.2 145590,95530.9 L 145590,95530.9 z "
   id="path7046"
   style="fill:#806600;fill-rule:nonzero" />
       </g>
      </g>
      
     </g>
    </g>
   </g></g></g></svg>