<!-- Created with Inkscape (http://www.inkscape.org/) -->
<svg xmlns:rdf="http://www.w3.org/1999/02/22-rdf-syntax-ns#" xmlns="http://www.w3.org/2000/svg" height="300" width="500" version="1.1" xmlns:cc="http://creativecommons.org/ns#" xmlns:xlink="http://www.w3.org/1999/xlink" xmlns:dc="http://purl.org/dc/elements/1.1/">
 <metadata>
  <rdf:RDF>
   <cc:Work rdf:about="">
    <dc:format>image/svg+xml</dc:format>
    <dc:type rdf:resource="http://purl.org/dc/dcmitype/StillImage"/>
    <dc:title/>
   </cc:Work>
  </rdf:RDF>
 </metadata>
 <g transform="translate(0,-752.36219)">
  <rect height="150" width="500" y="752.36" x="-3.5119E-7" fill="#da121a"/>
  <rect height="150" width="500" y="902.36" x="-4.6825E-7" fill="none"/>
  <path style="color:#000000;enable-background:accumulate;" fill="#FFF" stroke-miterlimit="4" d="M0,902.36,0.71538,1052.4,500,1052.1,499.97,902.53"/>
 </g>
 <g transform="matrix(1.32,0,0,1.32,661.90248,-39.25478)">
  <path d="m-371.49,119.36,118.93,0,0,49.725c0.14639,22.731-29.739,47.529-58.842,47.653-29.103,0.12432-60.163-24.309-60.085-47.653z" stroke="#000" stroke-dasharray="none" stroke-miterlimit="4" stroke-width="2" fill="#FFF"/>
  <path id="path6373" d="m-362.17,126.41c0.96042-0.61943,4.8311,0.95165,7.0193,6.6049,1.4239,3.6787-4.1759,4.3353-1.3498,6.044,7.9776,4.8233,3.9778,13.304-3.0827,14.65-1.8824,0.35871-7.569-5.2786-5.3158-6.9837,1.1907-0.90107,7.4134,2.8215,4.8408-0.19246-2.7068-3.171-6.1192-7.4113-3.6938-8.7167,2.8171-1.5162,4.7207-4.5094,3.941-6.1951-1.1507-2.4877-3.5205-4.4615-2.3589-5.2107z" fill="#000"/>
  <use xlink:href="#path6373" transform="translate(22.458123,51.776828)" height="490" width="441" y="0" x="0"/>
  <use xlink:href="#path6373" transform="translate(68.884,51.759055)" height="490" width="441" y="0" x="0"/>
  <use xlink:href="#path6373" transform="translate(23.994563,0)" height="490" width="441" y="0" x="0"/>
  <use xlink:href="#path6373" transform="translate(11.214784,26.163649)" height="490" width="441" y="0" x="0"/>
  <use xlink:href="#path6373" transform="translate(46.834864,0.08582044)" height="490" width="441" y="0" x="0"/>
  <use xlink:href="#path6373" transform="translate(34.830518,26.24947)" height="490" width="441" y="0" x="0"/>
  <use xlink:href="#path6373" transform="translate(69.346607,0.08582044)" height="490" width="441" y="0" x="0"/>
  <use xlink:href="#path6373" transform="translate(93.69319,0)" height="490" width="441" y="0" x="0"/>
  <use xlink:href="#path6373" transform="translate(57.594034,26.285018)" height="490" width="441" y="0" x="0"/>
  <use xlink:href="#path6373" transform="translate(80.768577,26.353065)" height="490" width="441" y="0" x="0"/>
  <path stroke-linejoin="round" d="m-288.26,185.64c-0.40045,1.535-1.0225,1.7892-1.9652,2.4568m-1.9689,4.4472c2.3579,3.1665,3.7354,4.8176,3.7588,6.1654m-46.267-13.216c-0.40045,1.535-1.0225,1.7892-1.9652,2.4568m-1.9689,4.4472c2.3579,3.1665,3.7354,4.8176,3.7588,6.1654m58.484-38.415c-0.40045,1.535-1.0225,1.7892-1.9652,2.4568m-1.9689,4.4472c2.3579,3.1665,3.7354,4.8176,3.7588,6.1654m-22.826-13.216c-0.40045,1.535-1.0225,1.7892-1.9652,2.4568m-1.9689,4.4472c2.3579,3.1665,3.7354,4.8176,3.7588,6.1654m-22.679-13.069c-0.40045,1.535-1.0225,1.7892-1.9652,2.4568m-1.9689,4.4472c2.3579,3.1665,3.7354,4.8176,3.7588,6.1654m-23.412-12.923c-0.40045,1.535-1.0225,1.7892-1.9652,2.4568m-1.9689,4.4472c2.3579,3.1665,3.7354,4.8176,3.7588,6.1654m82.804-39.147c-0.40045,1.535-1.0225,1.7892-1.9652,2.4568m-1.9689,4.4472c2.3579,3.1665,3.7354,4.8176,3.7588,6.1654m-24.291-13.216c-0.40045,1.535-1.0225,1.7892-1.9652,2.4568m-1.9689,4.4472c2.3579,3.1665,3.7354,4.8176,3.7588,6.1654m-22.533-13.069c-0.40045,1.535-1.0225,1.7892-1.9652,2.4568m-1.9689,4.4472c2.3579,3.1665,3.7354,4.8176,3.7588,6.1654m-22.386-13.069c-0.40045,1.535-1.0225,1.7892-1.9652,2.4568m1.7899,10.613c-2.3579-3.1665-3.7354-4.8176-3.7588-6.1654m-19.991-7.1037c-0.40045,1.535-1.0225,1.7892-1.9652,2.4568m-1.9689,4.4472c2.3579,3.1665,3.7354,4.8176,3.7588,6.1654" stroke="#FFF" stroke-linecap="round" stroke-miterlimit="4" stroke-dasharray="none" stroke-width="2" fill="none"/>
 </g>
 <g transform="matrix(1.32,0,0,1.32,661.90248,-39.25478)">
  <rect height="49.725" width="118.93" stroke="#000" stroke-dasharray="none" stroke-miterlimit="4" y="69.743" x="-371.49" stroke-width="2" fill="#da121a"/>
  <path id="path6519" d="m-357,98c4-7,10-7,14,0,2-4,5-5,11-5l-4,40c-9-1-18-1-27,0l-4-40c6,0,8,1,10,5z" transform="translate(0,-18)" fill="#fcdd09"/>
  <path d="m-309.13-106.5c0,1.2587-0.83485,2.2791-1.8647,2.2791s-1.8647-1.0204-1.8647-2.2791,0.83486-2.2791,1.8647-2.2791,1.8647,1.0204,1.8647,2.2791z" transform="matrix(1.0850004,0,0,0.8877276,-3.2174505,187.72702)" fill="#FFF"/>
  <path d="m-309.13-106.5c0,1.2587-0.83485,2.2791-1.8647,2.2791s-1.8647-1.0204-1.8647-2.2791,0.83486-2.2791,1.8647-2.2791,1.8647,1.0204,1.8647,2.2791z" transform="matrix(1.0850004,0,0,0.8877276,-9.4605854,187.72702)" fill="#FFF"/>
  <path d="m-309.13-106.5c0,1.2587-0.83485,2.2791-1.8647,2.2791s-1.8647-1.0204-1.8647-2.2791,0.83486-2.2791,1.8647-2.2791,1.8647,1.0204,1.8647,2.2791z" transform="matrix(1.0850004,0,0,0.8877276,-15.56418,187.72702)" fill="#FFF"/>
  <path d="m-309.13-106.5c0,1.2587-0.83485,2.2791-1.8647,2.2791s-1.8647-1.0204-1.8647-2.2791,0.83486-2.2791,1.8647-2.2791,1.8647,1.0204,1.8647,2.2791z" transform="matrix(1.0850004,0,0,0.8877276,-20.874963,187.72702)" fill="#FFF"/>
  <path d="m-309.13-106.5c0,1.2587-0.83485,2.2791-1.8647,2.2791s-1.8647-1.0204-1.8647-2.2791,0.83486-2.2791,1.8647-2.2791,1.8647,1.0204,1.8647,2.2791z" transform="matrix(1.1935004,0,0,0.97650036,10.173434,185.6284)" fill="#FFF"/>
  <path d="m-309.13-106.5c0,1.2587-0.83485,2.2791-1.8647,2.2791s-1.8647-1.0204-1.8647-2.2791,0.83486-2.2791,1.8647-2.2791,1.8647,1.0204,1.8647,2.2791z" transform="matrix(1.1935004,0,0,0.97650036,33.536218,186.08231)" fill="#FFF"/>
  <path d="m-309.13-106.5c0,1.2587-0.83485,2.2791-1.8647,2.2791s-1.8647-1.0204-1.8647-2.2791,0.83486-2.2791,1.8647-2.2791,1.8647,1.0204,1.8647,2.2791z" transform="matrix(1.1935004,0,0,0.97650036,19.572161,187.46074)" fill="#FFF"/>
  <path d="m-309.13-106.5c0,1.2587-0.83485,2.2791-1.8647,2.2791s-1.8647-1.0204-1.8647-2.2791,0.83486-2.2791,1.8647-2.2791,1.8647,1.0204,1.8647,2.2791z" transform="matrix(1.1935004,0,0,0.97650036,23.085895,187.49669)" fill="#FFF"/>
  <path d="m-309.13-106.5c0,1.2587-0.83485,2.2791-1.8647,2.2791s-1.8647-1.0204-1.8647-2.2791,0.83486-2.2791,1.8647-2.2791,1.8647,1.0204,1.8647,2.2791z" transform="matrix(1.1935004,0,0,0.97650036,21.225434,183.77153)" fill="#FFF"/>
  <use xlink:href="#path6519" transform="translate(73.966428,0)" height="490" width="441" y="0" x="0"/>
  <use xlink:href="#path6519" transform="translate(36.8647,0)" height="490" width="441" y="0" x="0"/>
  <path d="m-309.13-106.5c0,1.2587-0.83485,2.2791-1.8647,2.2791s-1.8647-1.0204-1.8647-2.2791,0.83486-2.2791,1.8647-2.2791,1.8647,1.0204,1.8647,2.2791z" transform="matrix(1.0850004,0,0,0.8877276,33.448746,187.67812)" fill="#FFF"/>
  <path d="m-309.13-106.5c0,1.2587-0.83485,2.2791-1.8647,2.2791s-1.8647-1.0204-1.8647-2.2791,0.83486-2.2791,1.8647-2.2791,1.8647,1.0204,1.8647,2.2791z" transform="matrix(1.0850004,0,0,0.8877276,27.205616,187.67812)" fill="#FFF"/>
  <path d="m-309.13-106.5c0,1.2587-0.83485,2.2791-1.8647,2.2791s-1.8647-1.0204-1.8647-2.2791,0.83486-2.2791,1.8647-2.2791,1.8647,1.0204,1.8647,2.2791z" transform="matrix(1.0850004,0,0,0.8877276,21.102016,187.67812)" fill="#FFF"/>
  <path d="m-309.13-106.5c0,1.2587-0.83485,2.2791-1.8647,2.2791s-1.8647-1.0204-1.8647-2.2791,0.83486-2.2791,1.8647-2.2791,1.8647,1.0204,1.8647,2.2791z" transform="matrix(1.0850004,0,0,0.8877276,15.791236,187.67812)" fill="#FFF"/>
  <path d="m-309.13-106.5c0,1.2587-0.83485,2.2791-1.8647,2.2791s-1.8647-1.0204-1.8647-2.2791,0.83486-2.2791,1.8647-2.2791,1.8647,1.0204,1.8647,2.2791z" transform="matrix(1.1935004,0,0,0.97650036,46.839636,185.5795)" fill="#FFF"/>
  <path d="m-309.13-106.5c0,1.2587-0.83485,2.2791-1.8647,2.2791s-1.8647-1.0204-1.8647-2.2791,0.83486-2.2791,1.8647-2.2791,1.8647,1.0204,1.8647,2.2791z" transform="matrix(1.1935004,0,0,0.97650036,70.202416,186.03341)" fill="#FFF"/>
  <path d="m-309.13-106.5c0,1.2587-0.83485,2.2791-1.8647,2.2791s-1.8647-1.0204-1.8647-2.2791,0.83486-2.2791,1.8647-2.2791,1.8647,1.0204,1.8647,2.2791z" transform="matrix(1.1935004,0,0,0.97650036,56.238366,187.41184)" fill="#FFF"/>
  <path d="m-309.13-106.5c0,1.2587-0.83485,2.2791-1.8647,2.2791s-1.8647-1.0204-1.8647-2.2791,0.83486-2.2791,1.8647-2.2791,1.8647,1.0204,1.8647,2.2791z" transform="matrix(1.1935004,0,0,0.97650036,59.752096,187.44779)" fill="#FFF"/>
  <path d="m-309.13-106.5c0,1.2587-0.83485,2.2791-1.8647,2.2791s-1.8647-1.0204-1.8647-2.2791,0.83486-2.2791,1.8647-2.2791,1.8647,1.0204,1.8647,2.2791z" transform="matrix(1.1935004,0,0,0.97650036,57.891636,183.72263)" fill="#FFF"/>
  <path stroke-linejoin="round" d="m-264.98,101.02c1.2427-2.0323,1-4-1-8,2-3,6-8,3-12m-19.164,9.9324,0-4m6,4,0-6m7,6,0-4m0,12,0-4m-7,4,0-4m-6,5,0-5m-4,6c-1.2427-2.0323-1-4,1-8-2-3-6-8-3-12m19,27,0-5m-7,5,0-5m-6,5,0-5m15,0c-5-1-12-1-17,0m19,4-1,5c-7-1-12-1-19,0l-1-5m-16.026-5.9323c1.2427-2.0323,1-4-1-8,2-3,6-8,3-12m-19.164,9.9324,0-4m6,4,0-6m7,6,0-4m0,12,0-4m-7,4,0-4m-6,5,0-5m-4,6c-1.2427-2.0323-1-4,1-8-2-3-6-8-3-12m19,27,0-5m-7,5,0-5m-6,5,0-5m15,0c-5-1-12-1-17,0m19,4-1,5c-7-1-12-1-19,0l-1-5m-15.502-5.8834c1.2427-2.0323,1-4-1-8,2-3,6-8,3-12m-19.17,9.93v-4m6,4,0-6m7,6,0-4m0,12,0-4m-7,4,0-4m-6,5,0-5m-4,6c-1.2427-2.0323-1-4,1-8-2-3-6-8-3-12m19,27,0-5m-7,5,0-5m-6,5,0-5m15,0c-5-1-12-1-17,0m19,4-1,5c-7-1-12-1-19,0l-1-5" stroke="#FFF" stroke-linecap="round" stroke-miterlimit="4" stroke-dasharray="none" stroke-width="2" fill="none"/>
  <path d="m-309.13-106.5c0,1.2587-0.83485,2.2791-1.8647,2.2791s-1.8647-1.0204-1.8647-2.2791,0.83486-2.2791,1.8647-2.2791,1.8647,1.0204,1.8647,2.2791z" transform="matrix(1.0850004,0,0,0.8877276,70.639149,187.67812)" fill="#FFF"/>
  <path d="m-309.13-106.5c0,1.2587-0.83485,2.2791-1.8647,2.2791s-1.8647-1.0204-1.8647-2.2791,0.83486-2.2791,1.8647-2.2791,1.8647,1.0204,1.8647,2.2791z" transform="matrix(1.0850004,0,0,0.8877276,64.396019,187.67812)" fill="#FFF"/>
  <path d="m-309.13-106.5c0,1.2587-0.83485,2.2791-1.8647,2.2791s-1.8647-1.0204-1.8647-2.2791,0.83486-2.2791,1.8647-2.2791,1.8647,1.0204,1.8647,2.2791z" transform="matrix(1.0850004,0,0,0.8877276,58.292419,187.67812)" fill="#FFF"/>
  <path d="m-309.13-106.5c0,1.2587-0.83485,2.2791-1.8647,2.2791s-1.8647-1.0204-1.8647-2.2791,0.83486-2.2791,1.8647-2.2791,1.8647,1.0204,1.8647,2.2791z" transform="matrix(1.0850004,0,0,0.8877276,52.981639,187.67812)" fill="#FFF"/>
  <path d="m-309.13-106.5c0,1.2587-0.83485,2.2791-1.8647,2.2791s-1.8647-1.0204-1.8647-2.2791,0.83486-2.2791,1.8647-2.2791,1.8647,1.0204,1.8647,2.2791z" transform="matrix(1.1935004,0,0,0.97650036,84.030039,185.5795)" fill="#FFF"/>
  <path d="m-309.13-106.5c0,1.2587-0.83485,2.2791-1.8647,2.2791s-1.8647-1.0204-1.8647-2.2791,0.83486-2.2791,1.8647-2.2791,1.8647,1.0204,1.8647,2.2791z" transform="matrix(1.1935004,0,0,0.97650036,107.39282,186.03341)" fill="#FFF"/>
  <path d="m-309.13-106.5c0,1.2587-0.83485,2.2791-1.8647,2.2791s-1.8647-1.0204-1.8647-2.2791,0.83486-2.2791,1.8647-2.2791,1.8647,1.0204,1.8647,2.2791z" transform="matrix(1.1935004,0,0,0.97650036,93.428769,187.41184)" fill="#FFF"/>
  <path d="m-309.13-106.5c0,1.2587-0.83485,2.2791-1.8647,2.2791s-1.8647-1.0204-1.8647-2.2791,0.83486-2.2791,1.8647-2.2791,1.8647,1.0204,1.8647,2.2791z" transform="matrix(1.1935004,0,0,0.97650036,96.942499,187.44779)" fill="#FFF"/>
  <path d="m-309.13-106.5c0,1.2587-0.83485,2.2791-1.8647,2.2791s-1.8647-1.0204-1.8647-2.2791,0.83486-2.2791,1.8647-2.2791,1.8647,1.0204,1.8647,2.2791z" transform="matrix(1.1935004,0,0,0.97650036,95.082039,183.72263)" fill="#FFF"/>
 </g>
</svg>
