<?xml version="1.0" encoding="utf-8"?>
<!-- Generator: Adobe Illustrator 16.0.0, SVG Export Plug-In . SVG Version: 6.00 Build 0)  -->
<!DOCTYPE svg PUBLIC "-//W3C//DTD SVG 1.1//EN" "http://www.w3.org/Graphics/SVG/1.1/DTD/svg11.dtd">
<svg version="1.1" id="Layer_1" xmlns="http://www.w3.org/2000/svg" xmlns:xlink="http://www.w3.org/1999/xlink" x="0px" y="0px"
	 width="800px" height="533px" viewBox="0 0 800 533" enable-background="new 0 0 800 533" xml:space="preserve">
<g>
	<rect fill="#FFFFFF" width="800" height="533"/>
	<rect fill="#DD0000" width="800" height="177"/>
	<rect y="356" fill="#003893" width="800" height="177"/>
</g>
<g>
	<g>
		<circle fill="#FFFFFF" stroke="#444444" stroke-width="0.8509" stroke-miterlimit="10" cx="507.276" cy="137.595" r="5.749"/>
		<circle fill="#FFFFFF" stroke="#444444" stroke-width="0.8509" stroke-miterlimit="10" cx="504.723" cy="153.762" r="5.749"/>
		<circle fill="#FFFFFF" stroke="#444444" stroke-width="0.8509" stroke-miterlimit="10" cx="328.155" cy="106.961" r="5.748"/>
		<circle fill="#FFFFFF" stroke="#444444" stroke-width="0.8509" stroke-miterlimit="10" cx="293.266" cy="153.762" r="5.748"/>
		<circle fill="#FFFFFF" stroke="#444444" stroke-width="0.8509" stroke-miterlimit="10" cx="290.714" cy="137.595" r="5.748"/>
		<circle fill="#FFFFFF" stroke="#444444" stroke-width="0.8509" stroke-miterlimit="10" cx="296.67" cy="123.129" r="5.748"/>
		<circle fill="#FFFFFF" stroke="#444444" stroke-width="0.8509" stroke-miterlimit="10" cx="309.434" cy="114.62" r="5.749"/>
		<circle fill="#FFFFFF" stroke="#444444" stroke-width="0.8509" stroke-miterlimit="10" cx="340.068" cy="96.75" r="5.748"/>
		<circle fill="#FFFFFF" stroke="#444444" stroke-width="0.8509" stroke-miterlimit="10" cx="354.533" cy="95.048" r="5.748"/>
		<circle fill="#FFFFFF" stroke="#444444" stroke-width="0.8509" stroke-miterlimit="10" cx="368.999" cy="98.452" r="5.748"/>
		<circle fill="#FFFFFF" stroke="#444444" stroke-width="0.8509" stroke-miterlimit="10" cx="382.614" cy="102.707" r="5.748"/>
		<circle fill="#FFFFFF" stroke="#444444" stroke-width="0.8509" stroke-miterlimit="10" cx="469.834" cy="106.961" r="5.749"/>
		<circle fill="#FFFFFF" stroke="#444444" stroke-width="0.8509" stroke-miterlimit="10" cx="501.319" cy="123.129" r="5.749"/>
		<circle fill="#FFFFFF" stroke="#444444" stroke-width="0.8509" stroke-miterlimit="10" cx="488.555" cy="114.62" r="5.749"/>
		<circle fill="#FFFFFF" stroke="#444444" stroke-width="0.8509" stroke-miterlimit="10" cx="457.921" cy="96.75" r="5.749"/>
		<circle fill="#FFFFFF" stroke="#444444" stroke-width="0.8509" stroke-miterlimit="10" cx="443.456" cy="95.048" r="5.749"/>
		<circle fill="#FFFFFF" stroke="#444444" stroke-width="0.8509" stroke-miterlimit="10" cx="428.99" cy="98.452" r="5.749"/>
		<circle fill="#FFFFFF" stroke="#444444" stroke-width="0.8509" stroke-miterlimit="10" cx="415.375" cy="102.707" r="5.748"/>
		<path fill="#FFD200" stroke="#444444" stroke-miterlimit="10" d="M495.996,161.953c-0.093,0.003-0.183,0.013-0.274,0.018
			c0.116-2.578,0.273-5.534,1.995-6.25c3.111-1.294,19.869-37.809-29.94-41.178c-0.563-4.028-2.648-7.959-7.127-11.197
			c-15.888-11.487-35.413,2.979-44.942,3.616c-5.332,0.357-8.567-1.189-10.385-2.622c1.613-1.617,2.586-3.848,2.586-6.313
			c0-4.047-2.408-7.46-6.408-8.56V78.5h11v-5h-11v-11h-5v11h-12v5h12v10.966c-4,1.1-6.409,4.513-6.409,8.56
			c0,2.463,0.983,4.692,2.595,6.308c-1.816,1.434-5.059,2.984-10.396,2.626c-9.53-0.638-29.06-15.104-44.947-3.616
			c-4.478,3.238-6.566,7.169-7.129,11.197c-49.81,3.369-33.052,39.884-29.941,41.178c1.722,0.716,1.879,3.672,1.996,6.25
			c-0.092-0.005-0.182-0.015-0.275-0.018c-7.233-0.213-8.722,9.296-3.191,7.807c14.678-4.042,38.079,21.741,38.079,21.741h62.118
			h62.109c0,0,23.4-25.783,38.079-21.741C504.719,171.249,503.229,161.74,495.996,161.953z M315.608,167.431
			c-1.905,2.423-4.936-2.583-9.896-4.647c0.765-2.064,1.575-4.585,2.865-6.021c1.053-1.173,2.846-1.344,4.563-1.155
			c0.024,1.046,0.531,2.115,1.404,3.075C316.671,161.022,317.948,164.452,315.608,167.431z M345.391,163.974
			c-4.893,4.467-6.808,3.617-10.637-1.276c-3.829-4.893-7.446-7.871-4.68-2.339c2.766,5.531,0.851,10.425-3.829,10.851
			c-4.68,0.425-7.233-6.591-6.382-9.995c0.851-3.404,0.639-11.269-3.403-9.566c-0.143,0.06-0.27,0.126-0.404,0.189
			c-5.129-10.837-13.793,6.87-14.104-11.577c-0.287-16.98,20.805-20.933,28.167-21.795c0.38,4.57,2.361,9.014,4.685,12.469
			c-0.012,5.09,4.379,10.452,0.377,14.105c-4.893,4.467,3.404,7.233,7.446,8.083C346.667,153.975,350.283,159.507,345.391,163.974z
			 M394.745,116.959c-5.744,7.871,3.404,14.679-4.467,14.679s-8.297,7.02-3.191,9.36c5.106,2.34,5.318,11.275,0.639,14.253
			c-4.68,2.979-6.808-1.489-9.148-5.957c-2.34-4.467-8.722-13.402-6.595-3.829c2.127,9.573-5.744,17.019-12.125,11.488
			c-6.382-5.531,1.063-6.169,0-15.743c-1.064-9.573-9.147,0.851-11.275-4.467c-1.273-3.184-4.528-7.964-7.62-10.015
			c-3.415-5.397-8.605-17.159,7.257-21.682c20.326-5.798,29.515,15.398,47.377,1.239c0.084,0.035,0.173,0.062,0.259,0.095
			C397.388,107.833,399.195,110.861,394.745,116.959z M438.133,141.211c-1.063,9.573,6.382,10.211,0,15.743
			c-6.382,5.531-14.253-1.915-12.126-11.488c2.128-9.573-4.254-0.638-6.595,3.829c-2.34,4.467-4.467,8.935-9.147,5.957
			c-4.68-2.978-4.467-11.913,0.639-14.253c5.105-2.34,4.68-9.36-3.191-9.36s1.276-6.808-4.467-14.679
			c-4.445-6.09-2.649-9.118-1.116-10.573c0.089-0.034,0.181-0.063,0.269-0.099c17.86,14.155,27.048-7.039,47.373-1.241
			c15.862,4.523,10.672,16.285,7.258,21.682c-3.093,2.051-6.348,6.831-7.62,10.015C447.28,142.062,439.196,131.638,438.133,141.211z
			 M482.382,167.431c-2.341-2.979-1.064-6.409,1.063-8.749c0.873-0.96,1.379-2.029,1.403-3.075c1.717-0.188,3.511-0.018,4.563,1.155
			c1.29,1.437,2.101,3.957,2.865,6.021C487.317,164.847,484.285,169.854,482.382,167.431z M481.935,151.838
			c-0.134-0.063-0.261-0.129-0.404-0.189c-4.042-1.702-4.255,6.163-3.403,9.566c0.851,3.404-1.702,10.42-6.382,9.995
			c-4.681-0.426-6.595-5.32-3.829-10.851c2.765-5.531-0.852-2.554-4.681,2.339c-3.829,4.893-5.744,5.743-10.637,1.276
			s-1.276-9.999,2.766-10.85c4.042-0.851,12.339-3.616,7.445-8.083c-4.001-3.654,0.39-9.015,0.377-14.105
			c2.324-3.456,4.306-7.899,4.685-12.469c7.362,0.863,28.453,4.815,28.168,21.795C495.728,158.708,487.063,141,481.935,151.838z"/>
		
			<ellipse transform="matrix(0.3989 -0.917 0.917 0.3989 27.9006 388.2184)" fill="#DD0000" stroke="#444444" stroke-width="0.8509" stroke-miterlimit="10" cx="310.076" cy="172.827" rx="3.131" ry="4.501"/>
		<circle fill="#FFFFFF" stroke="#444444" stroke-width="0.8509" stroke-miterlimit="10" cx="372.403" cy="141.25" r="5.536"/>
		<circle fill="#FFFFFF" stroke="#444444" stroke-width="0.8509" stroke-miterlimit="10" cx="328.155" cy="155.715" r="4.067"/>
		
			<ellipse transform="matrix(0.953 -0.303 0.303 0.953 -28.1185 111.6798)" fill="#003893" stroke="#444444" stroke-width="0.8509" stroke-miterlimit="10" cx="345.816" cy="146.448" rx="3.617" ry="5.199"/>
		<path fill="#003893" stroke="#444444" stroke-miterlimit="10" d="M406.5,164.046c0-1.333-0.923-1.546-2.254-1.546h-11.345
			c-1.331,0-2.401,0.213-2.401,1.546v6.237c0,1.333,1.07,3.217,2.401,3.217h11.345c1.331,0,2.254-1.884,2.254-3.217V164.046z"/>
		<path fill="#DD0000" stroke="#444444" stroke-width="0.8509" stroke-miterlimit="10" d="M365.567,168.492
			c-0.281-1.094-1.396-1.754-2.491-1.473l-8.776,2.254c-1.095,0.281-1.755,1.396-1.473,2.49l1.319,5.137
			c0.281,1.095,1.396,1.754,2.49,1.473l8.777-2.253c1.095-0.281,1.754-1.396,1.474-2.491L365.567,168.492z"/>
		<path fill="#003893" stroke="#444444" stroke-width="0.8509" stroke-miterlimit="10" d="M333.875,179.146
			c-0.505-0.711-1.492-0.877-2.203-0.371l-5.7,4.056c-0.711,0.506-0.878,1.493-0.372,2.203l2.374,3.336
			c0.506,0.711,1.493,0.877,2.203,0.371l5.7-4.057c0.711-0.505,0.877-1.492,0.372-2.203L333.875,179.146z"/>
		
			<ellipse transform="matrix(-0.3991 -0.9169 0.9169 -0.3991 524.1445 689.1751)" fill="#DD0000" stroke="#444444" stroke-width="0.8509" stroke-miterlimit="10" cx="487.913" cy="172.827" rx="3.131" ry="4.5"/>
		<circle fill="#FFFFFF" stroke="#444444" stroke-width="0.8509" stroke-miterlimit="10" cx="425.586" cy="141.25" r="5.536"/>
		<circle fill="#FFFFFF" stroke="#444444" stroke-width="0.8509" stroke-miterlimit="10" cx="469.835" cy="155.715" r="4.067"/>
		
			<ellipse transform="matrix(-0.953 -0.3031 0.3031 -0.953 838.6896 423.0584)" fill="#003893" stroke="#444444" stroke-width="0.8509" stroke-miterlimit="10" cx="452.173" cy="146.448" rx="3.616" ry="5.199"/>
		<path fill="#DD0000" stroke="#444444" stroke-width="0.8509" stroke-miterlimit="10" d="M432.422,168.492
			c0.28-1.094,1.396-1.754,2.491-1.473l8.776,2.254c1.095,0.281,1.755,1.396,1.473,2.49l-1.318,5.137
			c-0.281,1.095-1.397,1.754-2.491,1.473l-8.776-2.253c-1.095-0.281-1.754-1.396-1.473-2.491L432.422,168.492z"/>
		<path fill="#003893" stroke="#444444" stroke-width="0.8509" stroke-miterlimit="10" d="M464.115,179.146
			c0.506-0.711,1.492-0.877,2.202-0.371l5.7,4.056c0.711,0.506,0.877,1.493,0.371,2.203l-2.374,3.336
			c-0.506,0.711-1.492,0.877-2.203,0.371l-5.699-4.057c-0.712-0.505-0.878-1.492-0.372-2.203L464.115,179.146z"/>
		
			<ellipse fill="#DD0000" stroke="#444444" stroke-width="0.8509" stroke-miterlimit="10" cx="398.999" cy="137.595" rx="5.105" ry="7.576"/>
		
			<ellipse fill="#003893" stroke="#444444" stroke-width="0.8509" stroke-miterlimit="10" cx="398.999" cy="191.416" rx="62.449" ry="8.084"/>
	</g>
	<g>
		<path fill="#003893" d="M510.86,230.5c0,0-31.062-0.5-30.543-35.5h-80.325h-79.807c0.518,35-30.576,35.5-30.576,35.5
			C335.213,293,286.5,329,286.5,329c8.81,57,56.487,52.5,56.487,52.5c-0.518,9,4.664,29.5,27.984,29.5s29.021,21,29.021,21
			s5.959-21,29.279-21s28.633-20.5,28.114-29.5c0,0,47.742,4.5,56.552-52.5C513.938,329,465.257,293,510.86,230.5z"/>
		<path fill="#FFFFFF" d="M513.655,330.684c-5.2,0.973-12.967,0.527-21.567-2.848c-13.162-5.164-31.289-2.088-38.38-0.768
			c-7.091,1.321-22.979,4.098-29.636,2.266c-6.656-1.834-24.072-6.621-44.443-1.764c-20.371,4.855-23.68,2.802-34.072-0.764
			c-10.393-3.566-29.155-0.844-37.267,0.85c-4.626,0.967-14.226,1.792-21.625,2.323c9.206,55.958,56.322,51.521,56.322,51.521
			c-0.061,1.063-0.04,2.291,0.079,3.623c13.677,0.678,32.669,0.398,43.752-1.623c17.818-3.25,30.682,0.75,41.682,1.5
			c7.731,0.527,21.381,0.189,28.816-0.057c0.107-1.262,0.128-2.429,0.069-3.443C457.386,381.5,504.17,385.9,513.655,330.684z"/>
		<path fill="#DD0000" d="M512.037,338.249c-5.688,0.985-12.803,1.273-20.037-1.999c-10.5-4.75-26.25-3.25-38.25,0
			s-20.5,2-32.87-0.5s-30.38-2.5-41.395,0.75s-14.485,2.25-37.81-2.25c-16.215-3.129-39.932,2.023-52.884,5.455
			c5.634,20.214,16.883,30.726,27.684,36.158c10.625-3.196,26.84-3.066,31.656-1.613c6.631,2,22.369,3.5,32.426,1.283
			C402.864,369.565,420.25,374.25,426,375s10.5,1,26.25-1.25c11.11-1.587,26.438-0.313,34.513,0.574
			C496.922,368.375,507.01,357.617,512.037,338.249z"/>
		<path fill="#FFFFFF" d="M480.317,195H400v93h91.676c-1.559-15.309,2.495-34.627,19.185-57.5C510.86,230.5,479.799,230,480.317,195
			z"/>
		<rect x="400" y="213" fill="#DD0000" width="19" height="19"/>
		<rect x="400" y="251" fill="#DD0000" width="19" height="19"/>
		<rect x="419" y="195" fill="#DD0000" width="19" height="18"/>
		<rect x="419" y="232" fill="#DD0000" width="19" height="19"/>
		<rect x="419" y="270" fill="#DD0000" width="19" height="18"/>
		<rect x="438" y="213" fill="#DD0000" width="19" height="19"/>
		<rect x="438" y="251" fill="#DD0000" width="19" height="19"/>
		<rect x="457" y="195" fill="#DD0000" width="19" height="18"/>
		<rect x="457" y="232" fill="#DD0000" width="19" height="19"/>
		<rect x="457" y="270" fill="#DD0000" width="19" height="18"/>
		<path fill="#DD0000" d="M495,225.63c-4.282-2.588-8.496-6.555-11.307-12.63H476v19h19V225.63z"/>
		<path fill="#DD0000" d="M495,251h-19v19h16.494c0.582-3.132,1.401-6.376,2.506-9.735V251z"/>
		<path fill="#DD0000" d="M495,232v19h3.651c2.76-6.021,6.417-12.359,11.135-19H495z"/>
		<polygon fill="#FFD200" stroke="#D69F18" stroke-miterlimit="10" points="400,294.287 404.165,301.5 412.494,301.5 408.329,308.5 
			412.494,315.5 404.165,315.5 400,322.713 395.835,315.5 387.506,315.5 391.671,308.5 387.506,301.5 395.835,301.5 		"/>
		<g>
			<path fill="#FFD200" stroke="#444444" stroke-width="0.389" stroke-miterlimit="10" d="M371.093,263.381
				c-0.243-0.729-0.632-0.778-0.924-1.264c-0.292-0.486,0.778-2.383,1.507-2.869s-1.078-2.675-2.8-1.119
				c-1.723,1.556-1.217-1.07-2.044-2.286l-8.782-1.07l-8.607,1.07c-0.827,1.216-0.146,3.842-1.868,2.286
				c-1.723-1.556-3.53,0.632-2.8,1.119s1.799,2.383,1.507,2.869c-0.292,0.486-0.681,0.535-0.924,1.264
				c-0.486,1.994-2.237,0.535-1.604,1.459c0.632,0.924,2.966-1.07,2.237,0.924s0.486,1.994,0.632,2.626
				c0.146,0.632,0.292,1.118-1.362,2.285c-1.653,1.168-0.243,2.627,0,2.092s1.41-1.557,1.556-0.486
				c0.146,1.069,3.745-0.341,2.772,1.652c-0.973,1.994,0.097,2.627,0.681,4.135c0.583,1.507-0.681,1.069,0,1.264
				c0.681,0.195,0.924-0.875,0.924-0.875c0.194,1.313,0.875,0.826,1.604,1.167s0.34,1.945,0.973,1.556
				c0.632-0.389,0.875,0.292,1.265-0.777c0.389-1.07,0.681,0.777,1.41,0.438s0.389-1.459,0.632-0.535s0.973,1.702,0.973,1.702
				s0.904-0.778,1.147-1.702s-0.009,0.195,0.72,0.535c0.729,0.34,1.065-1.508,1.455-0.438c0.389,1.069,0.653,0.389,1.286,0.777
				c0.632,0.39,0.254-1.215,0.983-1.556c0.729-0.341,1.416,0.146,1.611-1.167c0,0,0.246,1.07,0.927,0.875
				c0.681-0.194-0.583,0.243,0.001-1.264c0.583-1.508,1.654-2.141,0.682-4.135c-0.973-1.993,2.626-0.583,2.771-1.652
				c0.146-1.07,1.314-0.049,1.557,0.486s1.653-0.924,0-2.092c-1.653-1.167-1.507-1.653-1.362-2.285
				c0.146-0.633,1.362-0.633,0.632-2.626s1.605,0,2.237-0.924C373.33,263.917,371.579,265.375,371.093,263.381z"/>
			<path fill="#FFD200" stroke="#444444" stroke-width="0.389" stroke-miterlimit="10" d="M358.05,255.455
				c4.605,0,8.408,0.61,9.076,1.405l4.93-5.441c0,0-2.383-2.042-5.398,1.41c0,0,0.34-2.431-0.729-3.793c0,0-1.799-0.243-4.037,3.015
				c0,0,0.049-2.821-3.842-5.058c-3.939,2.237-3.696,5.058-3.696,5.058c-2.237-3.258-3.89-3.015-3.89-3.015
				c-1.07,1.362-0.729,3.793-0.729,3.793c-3.015-3.453-5.398-1.41-5.398-1.41l4.797,5.294
				C350.119,255.991,353.731,255.455,358.05,255.455z"/>
			<path fill="none" stroke="#444444" stroke-width="0.389" stroke-miterlimit="10" d="M347.574,254.992c0,0,9.837-3.526,21.244,0"
				/>
			<path fill="#FFD200" d="M361.81,266.922c-0.486-1.459-1.172-2.812-1.221-5.146l-2.393-1.167l-2.334,1.167
				c-0.049,2.334-0.778,3.687-1.265,5.146c-0.486,1.458,0.583,2.812,0.583,2.554c0-0.256,1.216-1.317,1.508-0.49
				c0.292,0.826,1.361,0.839,1.361,0.839s1.245-0.013,1.537-0.839c0.292-0.827,1.596,0.234,1.596,0.49
				C361.182,269.734,362.296,268.381,361.81,266.922z"/>
			<path fill="none" stroke="#444444" stroke-width="0.389" stroke-miterlimit="10" d="M355.862,261.777
				c-0.049,2.334-0.778,3.687-1.265,5.146c-0.486,1.458,0.583,2.812,0.583,2.554c0-0.256,1.216-1.317,1.508-0.49
				c0.292,0.826,1.361,0.839,1.361,0.839s1.245-0.013,1.537-0.839c0.292-0.827,1.596,0.234,1.596,0.49
				c0,0.258,1.114-1.096,0.627-2.554c-0.486-1.459-1.172-2.812-1.221-5.146"/>
			<path fill="#FFFFFF" d="M350.505,261.255c0,0,0.931-0.572,1.879-0.548c0.948,0.024,1.831,0.85,2.65,1.07
				C355.035,261.777,353.125,264.501,350.505,261.255z"/>
			<path fill="none" stroke="#444444" stroke-width="0.389" stroke-miterlimit="10" d="M355.035,261.777c0,0-1.911,2.725-4.53-0.522
				"/>
			<path fill="#444444" d="M353.605,261.091c-0.395-0.203-0.801-0.374-1.22-0.384c-0.149-0.004-0.296,0.01-0.442,0.032
				c-0.008,0.075-0.015,0.15-0.015,0.228c0,0.699,0.377,1.264,0.843,1.264C353.208,262.231,353.563,261.73,353.605,261.091z"/>
			<path fill="none" stroke="#444444" stroke-width="0.389" stroke-miterlimit="10" d="M358.225,259.978
				c0,0-0.953,2.188-2.947,1.799c-1.994-0.389-2.528-1.945-4.912-0.438c-2.383,1.508-2.917,0-3.161-1.118
				c-0.243-1.119-0.924-1.167-1.216-1.167"/>
			<path fill="none" stroke="#444444" stroke-width="0.389" stroke-miterlimit="10" d="M347.983,263.479
				c0,0,2.573,6.249,4.787,8.121c2.213,1.873,0.951,4.183,2.556,4.377"/>
			<path fill="#FFFFFF" d="M366.158,261.255c0,0-0.931-0.572-1.879-0.548c-0.948,0.024-1.832,0.85-2.65,1.07
				C361.629,261.777,363.539,264.501,366.158,261.255z"/>
			<path fill="none" stroke="#444444" stroke-width="0.389" stroke-miterlimit="10" d="M361.629,261.777c0,0,1.91,2.725,4.529-0.522
				"/>
			<path fill="#444444" d="M363.059,261.091c0.394-0.203,0.801-0.374,1.22-0.384c0.149-0.004,0.296,0.01,0.442,0.032
				c0.009,0.075,0.016,0.15,0.016,0.228c0,0.699-0.378,1.264-0.844,1.264C363.456,262.231,363.102,261.73,363.059,261.091z"/>
			<path fill="none" stroke="#444444" stroke-width="0.389" stroke-miterlimit="10" d="M358.439,259.978
				c0,0,0.953,2.188,2.947,1.799c1.994-0.389,2.529-1.945,4.912-0.438c2.383,1.508,2.918,0,3.161-1.118
				c0.243-1.119,0.924-1.167,1.215-1.167"/>
			<path fill="none" stroke="#444444" stroke-width="0.389" stroke-miterlimit="10" d="M368.68,263.479c0,0-2.573,6.249-4.787,8.121
				c-2.212,1.873-0.951,4.183-2.556,4.377"/>
			<path fill="none" stroke="#444444" stroke-width="0.389" stroke-miterlimit="10" d="M359.266,276.269c0,0-0.652,1.167,0,2.869"/>
			<path fill="none" stroke="#444444" stroke-width="0.389" stroke-miterlimit="10" d="M356.883,275.977
				c0,0-1.216,0.146-0.243,1.727"/>
			<path fill="none" stroke="#444444" stroke-width="0.389" stroke-miterlimit="10" d="M351.047,270.773c0,0-0.973,1.508,0,3.016"/>
			<path fill="none" stroke="#444444" stroke-width="0.389" stroke-miterlimit="10" d="M352.312,273.205c0,0-0.973,2.967,0,4.498"/>
			<path fill="none" stroke="#444444" stroke-width="0.389" stroke-miterlimit="10" d="M348.616,267.516
				c0,0,0.056,2.188-1.042,2.723"/>
			<path fill="none" stroke="#444444" stroke-width="0.389" stroke-miterlimit="10" d="M347.574,264.792
				c0,0-1.293,0.486-0.417,1.945"/>
			<path fill="none" stroke="#444444" stroke-width="0.389" stroke-miterlimit="10" d="M357.223,259.54c0,0,0.924,1.07,2.529,0"/>
			<path fill="#9E1E1E" stroke="#444444" stroke-width="0.3383" stroke-miterlimit="10" d="M358.184,271.313
				c0,0-0.94,0.56-1.669,0.505c-0.729-0.054-1.921-2.479-2.467-1.957c-0.545,0.521,0.02,1.123,0.602,1.962s0.826,2.366,1.474,2.168
				c0.649-0.196,1.368-1.368,2.061-1.24c0.692,0.13,1.385,1.474,1.943,1.513c0.558,0.037,1.181-1.311,1.607-2.02
				c0.425-0.709,1.522-2.882,0.168-2.457C361.269,269.988,359.974,272.994,358.184,271.313z"/>
			<path fill="none" stroke="#444444" stroke-width="0.3383" stroke-miterlimit="10" d="M360.676,275.247
				c0,0,1.225,0.341,0.661,2.091"/>
			<path fill="none" stroke="#444444" stroke-width="0.3383" stroke-miterlimit="10" d="M355.619,275.247
				c0,0-0.535,0.486-0.292,2.286"/>
			<path fill="none" stroke="#444444" stroke-width="0.3383" stroke-miterlimit="10" d="M365.326,278.688
				c0,0,0.066-1.593-0.589-2.712"/>
			<path fill="none" stroke="#444444" stroke-width="0.3383" stroke-miterlimit="10" d="M351.193,278.457
				c0,0-0.184-1.799,0.686-2.066"/>
			<path fill="none" stroke="#444444" stroke-width="0.3383" stroke-miterlimit="10" d="M354.26,281.043c0,0-0.484-1.577,0-3.711"/>
			<path fill="none" stroke="#444444" stroke-width="0.3383" stroke-miterlimit="10" d="M362.417,274.264
				c0,0,0.933,1.859,0.447,3.439"/>
			<path fill="none" stroke="#444444" stroke-width="0.3383" stroke-miterlimit="10" d="M365.328,271.746c0,0,0.591,0.243,0,2.236"
				/>
			<path fill="none" stroke="#444444" stroke-width="0.3383" stroke-miterlimit="10" d="M367.192,269.728
				c0,0-0.34,1.289,0.583,1.483"/>
			<path fill="none" stroke="#444444" stroke-width="0.3383" stroke-miterlimit="10" d="M368.116,267.223
				c0,0-0.639,1.945,0.702,2.821"/>
			<path fill="none" stroke="#444444" stroke-width="0.3383" stroke-miterlimit="10" d="M367.964,265.097
				c0,0,0.583-0.014,0.854,1.299"/>
			<path fill="none" stroke="#444444" stroke-width="0.389" stroke-miterlimit="10" d="M350.388,268.391
				c0,0-1.432,1.459-1.432,3.063"/>
			<path fill="none" stroke="#444444" stroke-width="0.389" stroke-miterlimit="10" d="M347.213,262.847
				c0,0,0.382,0.729,1.743,0.875"/>
			<path fill="none" stroke="#444444" stroke-width="0.389" stroke-miterlimit="10" d="M369.332,262.847
				c0,0-0.548,0.778-1.878,1.313"/>
			<path fill="none" stroke="#444444" stroke-width="0.389" stroke-miterlimit="10" d="M356.263,257.692
				c0,0,1.058,3.286-1.471,2.324"/>
			<path fill="none" stroke="#444444" stroke-width="0.389" stroke-miterlimit="10" d="M360.044,257.692
				c0,0,0.058,3.188,1.585,2.324"/>
			<path fill="none" stroke="#444444" stroke-width="0.389" stroke-miterlimit="10" d="M353.605,263.722
				c0,0-2.979,0.195-2.429,2.675"/>
			<path fill="none" stroke="#444444" stroke-width="0.389" stroke-miterlimit="10" d="M364.557,263.722c0,0,0.794,0.56,1.034,2.079
				"/>
			<path fill="none" stroke="#444444" stroke-width="0.389" stroke-miterlimit="10" d="M354.48,267.516c0,0,2.677-3.016,7.452,0"/>
		</g>
		<g>
			<path fill="#FFD200" stroke="#444444" stroke-width="0.389" stroke-miterlimit="10" d="M352.093,227.381
				c-0.243-0.729-0.632-0.778-0.924-1.264c-0.292-0.486,0.778-2.383,1.507-2.869s-1.078-2.675-2.8-1.119
				c-1.723,1.556-1.217-1.07-2.044-2.286l-8.782-1.07l-8.607,1.07c-0.827,1.216-0.146,3.842-1.868,2.286
				c-1.723-1.556-3.53,0.632-2.8,1.119s1.799,2.383,1.507,2.869c-0.292,0.486-0.681,0.535-0.924,1.264
				c-0.486,1.994-2.237,0.535-1.604,1.459c0.632,0.924,2.966-1.07,2.237,0.924c-0.729,1.994,0.486,1.994,0.632,2.626
				c0.146,0.632,0.292,1.118-1.362,2.285c-1.653,1.167-0.243,2.626,0,2.091c0.243-0.535,1.41-1.556,1.556-0.486
				s3.745-0.34,2.772,1.653c-0.973,1.994,0.097,2.626,0.681,4.134c0.583,1.507-0.681,1.07,0,1.264
				c0.681,0.195,0.924-0.875,0.924-0.875c0.194,1.313,0.875,0.827,1.604,1.167s0.34,1.945,0.973,1.556s0.875,0.292,1.265-0.778
				c0.389-1.07,0.681,0.778,1.41,0.438s0.389-1.459,0.632-0.535s0.973,1.702,0.973,1.702s0.904-0.778,1.147-1.702
				s-0.009,0.195,0.72,0.535c0.729,0.34,1.065-1.508,1.455-0.438s0.653,0.389,1.286,0.778s0.254-1.216,0.983-1.556
				c0.729-0.34,1.416,0.146,1.611-1.167c0,0,0.246,1.07,0.927,0.875c0.681-0.194-0.583,0.243,0.001-1.264
				c0.583-1.508,1.654-2.14,0.682-4.134c-0.973-1.994,2.626-0.583,2.771-1.653c0.146-1.07,1.314-0.048,1.557,0.486
				c0.243,0.535,1.653-0.924,0-2.091c-1.653-1.167-1.507-1.653-1.362-2.285c0.146-0.632,1.362-0.632,0.632-2.626
				c-0.729-1.994,1.605,0,2.237-0.924C354.33,227.917,352.579,229.375,352.093,227.381z"/>
			<path fill="#FFD200" stroke="#444444" stroke-width="0.389" stroke-miterlimit="10" d="M339.05,219.455
				c4.605,0,8.408,0.61,9.076,1.405l4.93-5.441c0,0-2.383-2.042-5.398,1.41c0,0,0.34-2.431-0.729-3.793c0,0-1.799-0.243-4.037,3.015
				c0,0,0.049-2.821-3.842-5.058c-3.939,2.237-3.696,5.058-3.696,5.058c-2.237-3.258-3.89-3.015-3.89-3.015
				c-1.07,1.362-0.729,3.793-0.729,3.793c-3.015-3.453-5.398-1.41-5.398-1.41l4.797,5.294
				C331.119,219.991,334.731,219.455,339.05,219.455z"/>
			<path fill="none" stroke="#444444" stroke-width="0.389" stroke-miterlimit="10" d="M328.574,218.992c0,0,9.837-3.526,21.244,0"
				/>
			<path fill="#FFD200" d="M342.81,230.922c-0.486-1.459-1.172-2.812-1.221-5.146l-2.393-1.167l-2.334,1.167
				c-0.049,2.334-0.778,3.687-1.265,5.146s0.583,2.812,0.583,2.555s1.216-1.318,1.508-0.491c0.292,0.827,1.361,0.839,1.361,0.839
				s1.245-0.012,1.537-0.839c0.292-0.827,1.596,0.234,1.596,0.491S343.296,232.381,342.81,230.922z"/>
			<path fill="none" stroke="#444444" stroke-width="0.389" stroke-miterlimit="10" d="M336.862,225.777
				c-0.049,2.334-0.778,3.687-1.265,5.146s0.583,2.812,0.583,2.555s1.216-1.318,1.508-0.491c0.292,0.827,1.361,0.839,1.361,0.839
				s1.245-0.012,1.537-0.839c0.292-0.827,1.596,0.234,1.596,0.491s1.114-1.096,0.627-2.555s-1.172-2.812-1.221-5.146"/>
			<path fill="#FFFFFF" d="M331.505,225.255c0,0,0.931-0.572,1.879-0.548c0.948,0.024,1.831,0.85,2.65,1.07
				C336.035,225.777,334.125,228.501,331.505,225.255z"/>
			<path fill="none" stroke="#444444" stroke-width="0.389" stroke-miterlimit="10" d="M336.035,225.777c0,0-1.911,2.725-4.53-0.522
				"/>
			<path fill="#444444" d="M334.605,225.091c-0.395-0.203-0.801-0.374-1.22-0.384c-0.149-0.004-0.296,0.01-0.442,0.032
				c-0.008,0.075-0.015,0.15-0.015,0.228c0,0.699,0.377,1.264,0.843,1.264C334.208,226.231,334.563,225.73,334.605,225.091z"/>
			<path fill="none" stroke="#444444" stroke-width="0.389" stroke-miterlimit="10" d="M339.225,223.978
				c0,0-0.953,2.188-2.947,1.799c-1.994-0.389-2.528-1.945-4.912-0.438c-2.383,1.508-2.917,0-3.161-1.118
				c-0.243-1.119-0.924-1.167-1.216-1.167"/>
			<path fill="none" stroke="#444444" stroke-width="0.389" stroke-miterlimit="10" d="M328.983,227.479
				c0,0,2.573,6.249,4.787,8.122c2.213,1.872,0.951,4.182,2.556,4.376"/>
			<path fill="#FFFFFF" d="M347.158,225.255c0,0-0.931-0.572-1.879-0.548c-0.948,0.024-1.832,0.85-2.65,1.07
				C342.629,225.777,344.539,228.501,347.158,225.255z"/>
			<path fill="none" stroke="#444444" stroke-width="0.389" stroke-miterlimit="10" d="M342.629,225.777c0,0,1.91,2.725,4.529-0.522
				"/>
			<path fill="#444444" d="M344.059,225.091c0.394-0.203,0.801-0.374,1.22-0.384c0.149-0.004,0.296,0.01,0.442,0.032
				c0.009,0.075,0.016,0.15,0.016,0.228c0,0.699-0.378,1.264-0.844,1.264C344.456,226.231,344.102,225.73,344.059,225.091z"/>
			<path fill="none" stroke="#444444" stroke-width="0.389" stroke-miterlimit="10" d="M339.439,223.978
				c0,0,0.953,2.188,2.947,1.799c1.994-0.389,2.529-1.945,4.912-0.438c2.383,1.508,2.918,0,3.161-1.118
				c0.243-1.119,0.924-1.167,1.215-1.167"/>
			<path fill="none" stroke="#444444" stroke-width="0.389" stroke-miterlimit="10" d="M349.68,227.479c0,0-2.573,6.249-4.787,8.122
				c-2.212,1.872-0.951,4.182-2.556,4.376"/>
			<path fill="none" stroke="#444444" stroke-width="0.389" stroke-miterlimit="10" d="M340.266,240.269c0,0-0.652,1.167,0,2.869"/>
			<path fill="none" stroke="#444444" stroke-width="0.389" stroke-miterlimit="10" d="M337.883,239.977
				c0,0-1.216,0.146-0.243,1.727"/>
			<path fill="none" stroke="#444444" stroke-width="0.389" stroke-miterlimit="10" d="M332.047,234.773c0,0-0.973,1.507,0,3.015"/>
			<path fill="none" stroke="#444444" stroke-width="0.389" stroke-miterlimit="10" d="M333.312,237.205c0,0-0.973,2.967,0,4.499"/>
			<path fill="none" stroke="#444444" stroke-width="0.389" stroke-miterlimit="10" d="M329.616,231.515
				c0,0,0.056,2.188-1.042,2.723"/>
			<path fill="none" stroke="#444444" stroke-width="0.389" stroke-miterlimit="10" d="M328.574,228.792
				c0,0-1.293,0.486-0.417,1.945"/>
			<path fill="none" stroke="#444444" stroke-width="0.389" stroke-miterlimit="10" d="M338.223,223.54c0,0,0.924,1.07,2.529,0"/>
			<path fill="#9E1E1E" stroke="#444444" stroke-width="0.3383" stroke-miterlimit="10" d="M339.184,235.313
				c0,0-0.94,0.56-1.669,0.505c-0.729-0.054-1.921-2.479-2.467-1.958c-0.545,0.522,0.02,1.123,0.602,1.962
				c0.582,0.838,0.826,2.366,1.474,2.168c0.649-0.197,1.368-1.369,2.061-1.24c0.692,0.129,1.385,1.474,1.943,1.512
				c0.558,0.038,1.181-1.31,1.607-2.019c0.425-0.709,1.522-2.882,0.168-2.457C342.269,233.988,340.974,236.994,339.184,235.313z"/>
			<path fill="none" stroke="#444444" stroke-width="0.3383" stroke-miterlimit="10" d="M341.676,239.247
				c0,0,1.225,0.341,0.661,2.091"/>
			<path fill="none" stroke="#444444" stroke-width="0.3383" stroke-miterlimit="10" d="M336.619,239.247
				c0,0-0.535,0.486-0.292,2.286"/>
			<path fill="none" stroke="#444444" stroke-width="0.3383" stroke-miterlimit="10" d="M346.326,242.688
				c0,0,0.066-1.593-0.589-2.712"/>
			<path fill="none" stroke="#444444" stroke-width="0.3383" stroke-miterlimit="10" d="M332.193,242.457
				c0,0-0.184-1.799,0.686-2.067"/>
			<path fill="none" stroke="#444444" stroke-width="0.3383" stroke-miterlimit="10" d="M335.26,245.042c0,0-0.484-1.577,0-3.71"/>
			<path fill="none" stroke="#444444" stroke-width="0.3383" stroke-miterlimit="10" d="M343.417,238.264
				c0,0,0.933,1.858,0.447,3.439"/>
			<path fill="none" stroke="#444444" stroke-width="0.3383" stroke-miterlimit="10" d="M346.328,235.746c0,0,0.591,0.243,0,2.237"
				/>
			<path fill="none" stroke="#444444" stroke-width="0.3383" stroke-miterlimit="10" d="M348.192,233.728
				c0,0-0.34,1.289,0.583,1.483"/>
			<path fill="none" stroke="#444444" stroke-width="0.3383" stroke-miterlimit="10" d="M349.116,231.223
				c0,0-0.639,1.945,0.702,2.821"/>
			<path fill="none" stroke="#444444" stroke-width="0.3383" stroke-miterlimit="10" d="M348.964,229.097
				c0,0,0.583-0.014,0.854,1.299"/>
			<path fill="none" stroke="#444444" stroke-width="0.389" stroke-miterlimit="10" d="M331.388,232.391
				c0,0-1.432,1.458-1.432,3.063"/>
			<path fill="none" stroke="#444444" stroke-width="0.389" stroke-miterlimit="10" d="M328.213,226.847
				c0,0,0.382,0.729,1.743,0.875"/>
			<path fill="none" stroke="#444444" stroke-width="0.389" stroke-miterlimit="10" d="M350.332,226.847
				c0,0-0.548,0.778-1.878,1.313"/>
			<path fill="none" stroke="#444444" stroke-width="0.389" stroke-miterlimit="10" d="M337.263,221.692
				c0,0,1.058,3.286-1.471,2.324"/>
			<path fill="none" stroke="#444444" stroke-width="0.389" stroke-miterlimit="10" d="M341.044,221.692
				c0,0,0.058,3.188,1.585,2.324"/>
			<path fill="none" stroke="#444444" stroke-width="0.389" stroke-miterlimit="10" d="M334.605,227.722
				c0,0-2.979,0.195-2.429,2.675"/>
			<path fill="none" stroke="#444444" stroke-width="0.389" stroke-miterlimit="10" d="M345.557,227.722c0,0,0.794,0.56,1.034,2.079
				"/>
			<path fill="none" stroke="#444444" stroke-width="0.389" stroke-miterlimit="10" d="M335.48,231.515c0,0,2.677-3.015,7.452,0"/>
		</g>
		<g>
			<path fill="#FFD200" stroke="#444444" stroke-width="0.389" stroke-miterlimit="10" d="M389.093,227.381
				c-0.243-0.729-0.632-0.778-0.924-1.264c-0.292-0.486,0.778-2.383,1.507-2.869s-1.078-2.675-2.8-1.119
				c-1.723,1.556-1.217-1.07-2.044-2.286l-8.782-1.07l-8.607,1.07c-0.827,1.216-0.146,3.842-1.868,2.286
				c-1.723-1.556-3.53,0.632-2.8,1.119s1.799,2.383,1.507,2.869c-0.292,0.486-0.681,0.535-0.924,1.264
				c-0.486,1.994-2.237,0.535-1.604,1.459c0.632,0.924,2.966-1.07,2.237,0.924c-0.729,1.994,0.486,1.994,0.632,2.626
				c0.146,0.632,0.292,1.118-1.362,2.285c-1.653,1.167-0.243,2.626,0,2.091c0.243-0.535,1.41-1.556,1.556-0.486
				s3.745-0.34,2.772,1.653c-0.973,1.994,0.097,2.626,0.681,4.134c0.583,1.507-0.681,1.07,0,1.264
				c0.681,0.195,0.924-0.875,0.924-0.875c0.194,1.313,0.875,0.827,1.604,1.167s0.34,1.945,0.973,1.556s0.875,0.292,1.265-0.778
				c0.389-1.07,0.681,0.778,1.41,0.438s0.389-1.459,0.632-0.535s0.973,1.702,0.973,1.702s0.904-0.778,1.147-1.702
				s-0.009,0.195,0.72,0.535c0.729,0.34,1.065-1.508,1.455-0.438s0.653,0.389,1.286,0.778s0.254-1.216,0.983-1.556
				c0.729-0.34,1.416,0.146,1.611-1.167c0,0,0.246,1.07,0.927,0.875c0.681-0.194-0.583,0.243,0.001-1.264
				c0.583-1.508,1.654-2.14,0.682-4.134c-0.973-1.994,2.626-0.583,2.771-1.653c0.146-1.07,1.314-0.048,1.557,0.486
				c0.243,0.535,1.653-0.924,0-2.091c-1.653-1.167-1.507-1.653-1.362-2.285c0.146-0.632,1.362-0.632,0.632-2.626
				c-0.729-1.994,1.605,0,2.237-0.924C391.33,227.917,389.579,229.375,389.093,227.381z"/>
			<path fill="#FFD200" stroke="#444444" stroke-width="0.389" stroke-miterlimit="10" d="M376.05,219.455
				c4.605,0,8.408,0.61,9.076,1.405l4.93-5.441c0,0-2.383-2.042-5.398,1.41c0,0,0.34-2.431-0.729-3.793c0,0-1.799-0.243-4.037,3.015
				c0,0,0.049-2.821-3.842-5.058c-3.939,2.237-3.696,5.058-3.696,5.058c-2.237-3.258-3.89-3.015-3.89-3.015
				c-1.07,1.362-0.729,3.793-0.729,3.793c-3.015-3.453-5.398-1.41-5.398-1.41l4.797,5.294
				C368.119,219.991,371.731,219.455,376.05,219.455z"/>
			<path fill="none" stroke="#444444" stroke-width="0.389" stroke-miterlimit="10" d="M365.574,218.992c0,0,9.837-3.526,21.244,0"
				/>
			<path fill="#FFD200" d="M379.81,230.922c-0.486-1.459-1.172-2.812-1.221-5.146l-2.393-1.167l-2.334,1.167
				c-0.049,2.334-0.778,3.687-1.265,5.146s0.583,2.812,0.583,2.555s1.216-1.318,1.508-0.491c0.292,0.827,1.361,0.839,1.361,0.839
				s1.245-0.012,1.537-0.839c0.292-0.827,1.596,0.234,1.596,0.491S380.296,232.381,379.81,230.922z"/>
			<path fill="none" stroke="#444444" stroke-width="0.389" stroke-miterlimit="10" d="M373.862,225.777
				c-0.049,2.334-0.778,3.687-1.265,5.146s0.583,2.812,0.583,2.555s1.216-1.318,1.508-0.491c0.292,0.827,1.361,0.839,1.361,0.839
				s1.245-0.012,1.537-0.839c0.292-0.827,1.596,0.234,1.596,0.491s1.114-1.096,0.627-2.555s-1.172-2.812-1.221-5.146"/>
			<path fill="#FFFFFF" d="M368.505,225.255c0,0,0.931-0.572,1.879-0.548c0.948,0.024,1.831,0.85,2.65,1.07
				C373.035,225.777,371.125,228.501,368.505,225.255z"/>
			<path fill="none" stroke="#444444" stroke-width="0.389" stroke-miterlimit="10" d="M373.035,225.777c0,0-1.911,2.725-4.53-0.522
				"/>
			<path fill="#444444" d="M371.605,225.091c-0.395-0.203-0.801-0.374-1.22-0.384c-0.149-0.004-0.296,0.01-0.442,0.032
				c-0.008,0.075-0.015,0.15-0.015,0.228c0,0.699,0.377,1.264,0.843,1.264C371.208,226.231,371.563,225.73,371.605,225.091z"/>
			<path fill="none" stroke="#444444" stroke-width="0.389" stroke-miterlimit="10" d="M376.225,223.978
				c0,0-0.953,2.188-2.947,1.799c-1.994-0.389-2.528-1.945-4.912-0.438c-2.383,1.508-2.917,0-3.161-1.118
				c-0.243-1.119-0.924-1.167-1.216-1.167"/>
			<path fill="none" stroke="#444444" stroke-width="0.389" stroke-miterlimit="10" d="M365.983,227.479
				c0,0,2.573,6.249,4.787,8.122c2.213,1.872,0.951,4.182,2.556,4.376"/>
			<path fill="#FFFFFF" d="M384.158,225.255c0,0-0.931-0.572-1.879-0.548c-0.948,0.024-1.832,0.85-2.65,1.07
				C379.629,225.777,381.539,228.501,384.158,225.255z"/>
			<path fill="none" stroke="#444444" stroke-width="0.389" stroke-miterlimit="10" d="M379.629,225.777c0,0,1.91,2.725,4.529-0.522
				"/>
			<path fill="#444444" d="M381.059,225.091c0.394-0.203,0.801-0.374,1.22-0.384c0.149-0.004,0.296,0.01,0.442,0.032
				c0.009,0.075,0.016,0.15,0.016,0.228c0,0.699-0.378,1.264-0.844,1.264C381.456,226.231,381.102,225.73,381.059,225.091z"/>
			<path fill="none" stroke="#444444" stroke-width="0.389" stroke-miterlimit="10" d="M376.439,223.978
				c0,0,0.953,2.188,2.947,1.799c1.994-0.389,2.529-1.945,4.912-0.438c2.383,1.508,2.918,0,3.161-1.118
				c0.243-1.119,0.924-1.167,1.215-1.167"/>
			<path fill="none" stroke="#444444" stroke-width="0.389" stroke-miterlimit="10" d="M386.68,227.479c0,0-2.573,6.249-4.787,8.122
				c-2.212,1.872-0.951,4.182-2.556,4.376"/>
			<path fill="none" stroke="#444444" stroke-width="0.389" stroke-miterlimit="10" d="M377.266,240.269c0,0-0.652,1.167,0,2.869"/>
			<path fill="none" stroke="#444444" stroke-width="0.389" stroke-miterlimit="10" d="M374.883,239.977
				c0,0-1.216,0.146-0.243,1.727"/>
			<path fill="none" stroke="#444444" stroke-width="0.389" stroke-miterlimit="10" d="M369.047,234.773c0,0-0.973,1.507,0,3.015"/>
			<path fill="none" stroke="#444444" stroke-width="0.389" stroke-miterlimit="10" d="M370.312,237.205c0,0-0.973,2.967,0,4.499"/>
			<path fill="none" stroke="#444444" stroke-width="0.389" stroke-miterlimit="10" d="M366.616,231.515
				c0,0,0.056,2.188-1.042,2.723"/>
			<path fill="none" stroke="#444444" stroke-width="0.389" stroke-miterlimit="10" d="M365.574,228.792
				c0,0-1.293,0.486-0.417,1.945"/>
			<path fill="none" stroke="#444444" stroke-width="0.389" stroke-miterlimit="10" d="M375.223,223.54c0,0,0.924,1.07,2.529,0"/>
			<path fill="#9E1E1E" stroke="#444444" stroke-width="0.3383" stroke-miterlimit="10" d="M376.184,235.313
				c0,0-0.94,0.56-1.669,0.505c-0.729-0.054-1.921-2.479-2.467-1.958c-0.545,0.522,0.02,1.123,0.602,1.962
				c0.582,0.838,0.826,2.366,1.474,2.168c0.649-0.197,1.368-1.369,2.061-1.24c0.692,0.129,1.385,1.474,1.943,1.512
				c0.558,0.038,1.181-1.31,1.607-2.019c0.425-0.709,1.522-2.882,0.168-2.457C379.269,233.988,377.974,236.994,376.184,235.313z"/>
			<path fill="none" stroke="#444444" stroke-width="0.3383" stroke-miterlimit="10" d="M378.676,239.247
				c0,0,1.225,0.341,0.661,2.091"/>
			<path fill="none" stroke="#444444" stroke-width="0.3383" stroke-miterlimit="10" d="M373.619,239.247
				c0,0-0.535,0.486-0.292,2.286"/>
			<path fill="none" stroke="#444444" stroke-width="0.3383" stroke-miterlimit="10" d="M383.326,242.688
				c0,0,0.066-1.593-0.589-2.712"/>
			<path fill="none" stroke="#444444" stroke-width="0.3383" stroke-miterlimit="10" d="M369.193,242.457
				c0,0-0.184-1.799,0.686-2.067"/>
			<path fill="none" stroke="#444444" stroke-width="0.3383" stroke-miterlimit="10" d="M372.26,245.042c0,0-0.484-1.577,0-3.71"/>
			<path fill="none" stroke="#444444" stroke-width="0.3383" stroke-miterlimit="10" d="M380.417,238.264
				c0,0,0.933,1.858,0.447,3.439"/>
			<path fill="none" stroke="#444444" stroke-width="0.3383" stroke-miterlimit="10" d="M383.328,235.746c0,0,0.591,0.243,0,2.237"
				/>
			<path fill="none" stroke="#444444" stroke-width="0.3383" stroke-miterlimit="10" d="M385.192,233.728
				c0,0-0.34,1.289,0.583,1.483"/>
			<path fill="none" stroke="#444444" stroke-width="0.3383" stroke-miterlimit="10" d="M386.116,231.223
				c0,0-0.639,1.945,0.702,2.821"/>
			<path fill="none" stroke="#444444" stroke-width="0.3383" stroke-miterlimit="10" d="M385.964,229.097
				c0,0,0.583-0.014,0.854,1.299"/>
			<path fill="none" stroke="#444444" stroke-width="0.389" stroke-miterlimit="10" d="M368.388,232.391
				c0,0-1.432,1.458-1.432,3.063"/>
			<path fill="none" stroke="#444444" stroke-width="0.389" stroke-miterlimit="10" d="M365.213,226.847
				c0,0,0.382,0.729,1.743,0.875"/>
			<path fill="none" stroke="#444444" stroke-width="0.389" stroke-miterlimit="10" d="M387.332,226.847
				c0,0-0.548,0.778-1.878,1.313"/>
			<path fill="none" stroke="#444444" stroke-width="0.389" stroke-miterlimit="10" d="M374.263,221.692
				c0,0,1.058,3.286-1.471,2.324"/>
			<path fill="none" stroke="#444444" stroke-width="0.389" stroke-miterlimit="10" d="M378.044,221.692
				c0,0,0.058,3.188,1.585,2.324"/>
			<path fill="none" stroke="#444444" stroke-width="0.389" stroke-miterlimit="10" d="M371.605,227.722
				c0,0-2.979,0.195-2.429,2.675"/>
			<path fill="none" stroke="#444444" stroke-width="0.389" stroke-miterlimit="10" d="M382.557,227.722c0,0,0.794,0.56,1.034,2.079
				"/>
			<path fill="none" stroke="#444444" stroke-width="0.389" stroke-miterlimit="10" d="M372.48,231.515c0,0,2.677-3.015,7.452,0"/>
		</g>
		<g>
			<path fill="#67483B" stroke="#444444" stroke-width="0.5" stroke-miterlimit="10" d="M364.583,344c0,0-4.333-3.833-3.75,2
				L364.583,344z"/>
			<path fill="#67483B" stroke="#444444" stroke-width="0.5" stroke-miterlimit="10" d="M412.084,345.833
				c0,0,10.332-1.666,14.332-0.583s14.505,3.166,18.42,0.583c3.914-2.583-0.17,5.333-6.336,5.75s-14.666-1.249-17.166,0.667
				L412.084,345.833z"/>
			<path fill="#67483B" stroke="#444444" stroke-width="0.5" stroke-miterlimit="10" d="M375.25,354.833
				c0,0-4.667,1.584-6.917,1.917s-4.167,1.25-4.75,1.833s-5.25-0.249-5.833,0.917s-2.917-0.417-3.5,2.333s1.667-0.666,1.583,0.917
				s1.083-0.083,1.583,0.75s3.333,0.249,3.833-0.334s0.833-1.834,2.083-2.25s4.25-0.749,5.667-1.166s6.5-0.918,7.834,0.916
				C376.834,360.666,377.333,356.166,375.25,354.833z"/>
			<path fill="#67483B" stroke="#444444" stroke-width="0.5" stroke-miterlimit="10" d="M407.084,357.833c0,0,4.25,4.584,6.25,4.584
				s9.333,0.166,11,0.416c1.666,0.25,8.842,4.506,10.213,1.628c1.37-2.878-8.547-5.296-10.88-5.087S410.584,352.833,407.084,357.833
				z"/>
			<path fill="#67483B" d="M360.5,345.5c0,0-3.916,1.167-5.083,4.167s-2.75,1.499-2.25,3.916s1.405,1.584,3.619,0.417
				s4.131-1.501,4.131-0.917s-4.761,1-3.922,1.75s4.005,0.666,5.505-0.25s4.333-1.333,5.583-0.833s7,1.5,7.417,3.25
				s0.834,4.666-1.167,5.083c-2,0.417-3.667,1.25-4.75,1.167s-3.917-0.417-4.583,1.083s1.417,0.5,1.167,1.417
				s-0.75,2.083,1.167,1.583s2.167,0.834,2.167,1.667s1.334-0.501,2.667-2.417s1.692-1.333,3.679-1.833
				c1.988-0.5,4.071-0.251,6.238-0.667c2.166-0.416,6.75,0.501,6.75-2.916s4.582,2.5,9.332,1.333s13.251-6.829,15.418-5.123
				c2.166,1.706,4.999,5.707,12.916,4.54s6.666,1.499,7.25,2.166s4.084,0.75,5.667,1.5s2.833,2.334,4.75,0.167s-1-0.5,0-1.75
				s0.333-1.917-0.667-2s-0.417-1.999-1.75-1.333s-2.75,1.166-3.666,0.833c-0.917-0.333-4.501-1.416-4.834-3.583
				s-2.583-2.583-3.416-1.75c-0.834,0.833-5.417-0.334-5.667-2.084s-4.333-10.084-13.083-9s-8.927,2.583-12.131,2.75
				c-3.203,0.167-11.286-0.5-13.119-1.5C384,345.333,370.833,338.5,360.5,345.5z"/>
			<path fill="#FFFFFF" d="M380.625,357.625c-1.041-0.5-5.5-5.542-7.333-6.458s-6.708,0.333-7.772,0.833s-0.436-0.167-4.186,0.625
				c-0.283,0.06-0.546,0.124-0.8,0.189c0.241,0.027,0.384,0.113,0.384,0.269c0,0.584-4.761,1-3.922,1.75s4.005,0.666,5.505-0.25
				s4.333-1.333,5.583-0.833s7,1.5,7.417,3.25c0.309,1.295,0.613,3.225-0.056,4.312c0.681-0.244,1.25-0.585,1.442-0.937
				C377.271,359.667,381.666,358.125,380.625,357.625z"/>
			<path fill="#FFFFFF" d="M412.656,357.081c-1.367-1.528-8.055,0.456-11.656,1.669c-3.959,1.333-10.333-1.625-12-1.042
				s-2.208,1.459-1.083,1.666c0.499,0.092,0.853,0.522,1.099,0.972c0.881-1.316,4.947,3.188,9.15,2.154
				C402.402,361.459,409.607,356.859,412.656,357.081z"/>
			
				<ellipse transform="matrix(0.9152 -0.403 0.403 0.9152 -110.2706 174.9649)" fill="#FFFFFF" cx="360.604" cy="349.5" rx="1.187" ry="0.708"/>
			<path fill="none" stroke="#444444" stroke-width="0.5" stroke-miterlimit="10" d="M360.5,345.5c0,0-3.916,1.167-5.083,4.167
				s-2.75,1.499-2.25,3.916s1.405,1.584,3.619,0.417s4.131-1.501,4.131-0.917s-4.761,1-3.922,1.75s4.005,0.666,5.505-0.25
				s4.333-1.333,5.583-0.833s7,1.5,7.417,3.25s0.834,4.666-1.167,5.083c-2,0.417-3.667,1.25-4.75,1.167s-3.917-0.417-4.583,1.083
				s1.417,0.5,1.167,1.417s-0.75,2.083,1.167,1.583s2.167,0.834,2.167,1.667s1.334-0.501,2.667-2.417s1.692-1.333,3.679-1.833
				c1.988-0.5,4.071-0.251,6.238-0.667c2.166-0.416,6.75,0.501,6.75-2.916s4.582,2.5,9.332,1.333s13.251-6.829,15.418-5.123
				c2.166,1.706,4.999,5.707,12.916,4.54s6.666,1.499,7.25,2.166s4.084,0.75,5.667,1.5s2.833,2.334,4.75,0.167s-1-0.5,0-1.75
				s0.333-1.917-0.667-2s-0.417-1.999-1.75-1.333s-2.75,1.166-3.666,0.833c-0.917-0.333-4.501-1.416-4.834-3.583
				s-2.583-2.583-3.416-1.75c-0.834,0.833-5.417-0.334-5.667-2.084s-4.333-10.084-13.083-9s-8.927,2.583-12.131,2.75
				c-3.203,0.167-11.286-0.5-13.119-1.5C384,345.333,370.833,338.5,360.5,345.5z"/>
			<path fill="none" stroke="#444444" stroke-width="0.5" stroke-miterlimit="10" d="M365,346.293c0,0,2.167-3.376,3.417,0.416"/>
			<path fill="#444444" d="M359.518,349.979c0.128,0.292,0.565,0.384,1.047,0.269c0.024-0.106,0.04-0.216,0.04-0.329
				c0-0.388-0.152-0.737-0.396-1.001C359.682,349.191,359.37,349.645,359.518,349.979z"/>
			
				<ellipse transform="matrix(0.9152 -0.403 0.403 0.9152 -110.2706 174.9649)" fill="none" stroke="#444444" stroke-width="0.5" stroke-miterlimit="10" cx="360.604" cy="349.5" rx="1.187" ry="0.708"/>
		</g>
		<path fill="none" stroke="#FFD200" stroke-width="2" stroke-miterlimit="10" d="M510.86,231c0,0-31.062,0-30.543-35h-80.325
			h-79.807c0.518,35-30.576,35-30.576,35c45.604,62.5-3.109,98.25-3.109,98.25c8.81,57,56.487,52.375,56.487,52.375
			c-0.518,9,4.664,29.438,27.984,29.438s29.021,20.969,29.021,20.969s5.959-21.016,29.279-21.016s28.633-20.508,28.114-29.508
			c0,0,47.742,4.746,56.552-52.254C513.938,329.254,465.257,293.5,510.86,231z"/>
		<line fill="none" stroke="#FFD200" stroke-width="2" stroke-miterlimit="10" x1="492" y1="288" x2="309" y2="288"/>
		<path fill="#FFD200" stroke="#D69F18" stroke-width="0.5" stroke-miterlimit="10" d="M415,308.75c0-0.594-5.16-1.088-11.952-1.188
			c3.837-5.091,6.445-9.271,6.044-9.782c-0.432-0.552-4.201,3.347-8.605,8.858c-4.404-5.512-8.173-9.41-8.605-8.858
			c-0.401,0.511,2.207,4.691,6.044,9.782c-6.792,0.1-11.952,0.594-11.952,1.188s5.16,1.088,11.952,1.188
			c-3.837,5.091-6.445,9.271-6.044,9.782c0.432,0.552,4.201-3.347,8.605-8.858c4.404,5.512,8.174,9.41,8.605,8.858
			c0.402-0.513-2.207-4.691-6.044-9.782C409.84,309.838,415,309.344,415,308.75z"/>
	</g>
</g>
</svg>
