<svg xmlns="http://www.w3.org/2000/svg" version="1.1" id="레이어_1" x="0" y="0" xml:space="preserve" width="900" height="600"><style type="text/css" id="style2">.st1{fill:#232b27}.st2,.st3,.st4,.st5{fill:#d4b281;stroke:#754f22;stroke-miterlimit:10}.st3,.st4,.st5{fill:none}.st4,.st5{fill:#de5b55}.st5{fill:#42403e}.st6{fill:#fff}.st7{fill:#4c6292}.st10,.st11,.st8,.st9{fill:#d4b281;stroke:#44413d;stroke-width:.5;stroke-miterlimit:10}.st10,.st11,.st9{fill:none}.st10,.st11{fill:#de5b55}.st11{fill:#4c6292}.st12{fill:#d4b281}.st13{fill:#de5b55}.st14{fill:#fff;stroke:#754f22;stroke-miterlimit:10}.st15{fill:#754f22}.st16{fill:#4c6292;stroke:#754f22;stroke-miterlimit:10}</style><g id="g750" transform="translate(0,67.000011)"><g id="g76" transform="matrix(1.1247188,0,0,1.1257036,0,-67.000011)"><path id="rect4" fill="#fd1" fill-opacity="1" d="M0.2 0H800.2V533H0.2z"/><path class="st1" id="polygon6" fill="#232b27" d="M120.9 0L86 78 120.9 78 155.8 78z"/><path class="st1" id="polygon8" fill="#232b27" d="M190.7 0L155.8 78 190.7 78 225.6 78z"/><path class="st1" id="polygon10" fill="#232b27" d="M260.4 0L225.6 78 260.4 78 295.3 78z"/><path class="st1" id="polygon12" fill="#232b27" d="M330.2 0L295.3 78 330.2 78 365.1 78z"/><path class="st1" id="polygon14" fill="#232b27" d="M400 0L365.1 78 400 78 434.9 78z"/><path class="st1" id="polygon16" fill="#232b27" d="M469.8 0L434.9 78 469.8 78 504.7 78z"/><path class="st1" id="polygon18" fill="#232b27" d="M539.6 0L504.7 78 539.6 78 574.4 78z"/><path class="st1" id="polygon20" fill="#232b27" d="M609.3 0L574.4 78 609.3 78 644.2 78z"/><path class="st1" id="polygon22" fill="#232b27" d="M679.1 0L644.2 78 679.1 78 714 78z"/><path class="st1" id="polygon24" fill="#232b27" d="M120.9 533L86 455 120.9 455 155.8 455z"/><path class="st1" id="polygon26" fill="#232b27" d="M190.7 533L155.8 455 190.7 455 225.6 455z"/><path class="st1" id="polygon28" fill="#232b27" d="M260.4 533L225.6 455 260.4 455 295.3 455z"/><path class="st1" id="polygon30" fill="#232b27" d="M330.2 533L295.3 455 330.2 455 365.1 455z"/><path class="st1" id="polygon32" fill="#232b27" d="M400 533L365.1 455 400 455 434.9 455z"/><path class="st1" id="polygon34" fill="#232b27" d="M469.8 533L434.9 455 469.8 455 504.7 455z"/><path class="st1" id="polygon36" fill="#232b27" d="M539.6 533L504.7 455 539.6 455 574.4 455z"/><path class="st1" id="polygon38" fill="#232b27" d="M609.3 533L574.4 455 609.3 455 644.2 455z"/><path class="st1" id="polygon40" fill="#232b27" d="M679.1 533L644.2 455 679.1 455 714 455z"/><path class="st1" id="polygon42" fill="#232b27" d="M800 423.6L714 455 714 423.6 714 392.2z"/><path class="st1" id="polygon44" fill="#232b27" d="M800 360.7L714 392.2 714 360.7 714 329.3z"/><path class="st1" id="polygon46" fill="#232b27" d="M800 297.9L714 329.3 714 297.9 714 266.5z"/><path class="st1" id="polygon48" fill="#232b27" d="M800 235.1L714 266.5 714 235.1 714 203.7z"/><path class="st1" id="polygon50" fill="#232b27" d="M800 172.2L714 203.7 714 172.2 714 140.8z"/><path class="st1" id="polygon52" fill="#232b27" d="M800 109.4L714 140.8 714 109.4 714 78z"/><path class="st1" id="polygon54" fill="#232b27" d="M0 423.6L86 455 86 423.6 86 392.2z"/><path class="st1" id="polygon56" fill="#232b27" d="M0 360.7L86 392.2 86 360.7 86 329.3z"/><path class="st1" id="polygon58" fill="#232b27" d="M0 297.9L86 329.3 86 297.9 86 266.5z"/><path class="st1" id="polygon60" fill="#232b27" d="M0 235.1L86 266.5 86 235.1 86 203.7z"/><path class="st1" id="polygon62" fill="#232b27" d="M0 172.2L86 203.7 86 172.2 86 140.8z"/><path class="st1" id="polygon64" fill="#232b27" d="M0 109.4L86 140.8 86 109.4 86 78z"/><path class="st1" id="polygon66" fill="#232b27" d="M86 78L51.5 0 0 0 0 47.5z"/><path class="st1" id="polygon68" fill="#232b27" d="M714 78L748.5 0 800 0 800 47.5z"/><path class="st1" id="polygon70" fill="#232b27" d="M120.9 533L86 455 120.9 455 155.8 455z"/><path class="st1" id="polygon72" fill="#232b27" d="M86 455L51.5 533 0 533 0 485.5z"/><path class="st1" id="polygon74" fill="#232b27" d="M714 455L748.5 533 800 533 800 485.5z"/></g><g id="g748" transform="matrix(1.1247188,0,0,1.1247188,-0.87364008,-66.204613)"><path class="st2" d="m 419.3,151.4 -14.5,3 c 0,0 6,36.1 25.9,44.6 l 9.6,-7.8 c 0.1,-0.1 -22.2,-24.2 -21,-39.8 z" id="path78" fill="#d4b281" stroke="#754f22" stroke-miterlimit="10"/><path class="st3" d="m 416.3,153.2 c 0,0 3,21.1 18.7,34.9" id="path80" fill="none" stroke="#754f22" stroke-miterlimit="10"/><path class="st3" d="m 408.6,154.3 c 0,0 3,24.1 18.6,37.4" id="path82" fill="none" stroke="#754f22" stroke-miterlimit="10"/><path class="st2" d="m 476.5,178.4 10.2,7.8 c 0,0 12,-13.2 16.9,-14.5 l -1.8,-7.8 c 0,0 -6.6,-4.8 -13.8,4.8 -7.2,9.6 -11.5,9.7 -11.5,9.7 z" id="path84" fill="#d4b281" stroke="#754f22" stroke-miterlimit="10"/><path class="st3" d="m 495.6,166.5 c 0,0 -7.6,11.3 -15.1,14.9" id="path86" fill="none" stroke="#754f22" stroke-miterlimit="10"/><path class="st3" d="m 500.4,170.6 c 0,0 -11.2,8.5 -16,15.7" id="path88" fill="none" stroke="#754f22" stroke-miterlimit="10"/><path class="st2" d="m 506.6,178.4 c 0,0 0.6,9 3.6,10.2 3,1.2 17.5,-1.2 15.7,-5.4 -1.8,-4.2 -5.7,-8.1 -5.7,-8.1 z" id="path90" fill="#d4b281" stroke="#754f22" stroke-miterlimit="10"/><path class="st2" d="m 492.4,164.5 c 0,0 11.2,6.1 14.8,16.4 l 13.8,-4.2 c 0.1,-0.1 -12.1,-22 -28.6,-12.2 z" id="path92" fill="#d4b281" stroke="#754f22" stroke-miterlimit="10"/><path class="st3" id="line94" fill="none" stroke="#754f22" stroke-miterlimit="10" d="M518.3 177.5L523.9 186.5"/><path class="st3" id="line96" fill="none" stroke="#754f22" stroke-miterlimit="10" d="M515 178.5L519.6 188.1"/><ellipse transform="matrix(0.901,-0.4338,0.4338,0.901,-23.9766,238.5665)" class="st4" cx="510.7" cy="171.8" rx="2" ry="3.7" id="ellipse98" fill="#de5b55" stroke="#754f22" stroke-miterlimit="10"/><path class="st2" d="m 387,151.4 14.5,3 c 0,0 -6,36.1 -25.9,44.6 l -9.6,-7.8 c -0.1,-0.1 22.2,-24.2 21,-39.8 z" id="path100" fill="#d4b281" stroke="#754f22" stroke-miterlimit="10"/><path class="st3" d="m 390,153.2 c 0,0 -3,21.1 -18.7,34.9" id="path102" fill="none" stroke="#754f22" stroke-miterlimit="10"/><path class="st3" d="m 397.8,154.3 c 0,0 -3,24.1 -18.6,37.4" id="path104" fill="none" stroke="#754f22" stroke-miterlimit="10"/><path class="st2" d="m 329.8,178.4 -10.2,7.8 c 0,0 -12,-13.2 -16.9,-14.5 l 1.8,-7.8 c 0,0 6.6,-4.8 13.8,4.8 7.2,9.6 11.5,9.7 11.5,9.7 z" id="path106" fill="#d4b281" stroke="#754f22" stroke-miterlimit="10"/><path class="st3" d="m 310.8,166.5 c 0,0 7.6,11.3 15.1,14.9" id="path108" fill="none" stroke="#754f22" stroke-miterlimit="10"/><path class="st3" d="m 306,170.6 c 0,0 11.2,8.5 16,15.7" id="path110" fill="none" stroke="#754f22" stroke-miterlimit="10"/><path class="st5" d="m 542.8,306.1 c -24,10.6 -53,9.5 -61.5,8.9 0.2,-0.7 0.5,-1.3 0.7,-2 63.4,-0.8 59.8,-19.9 56.2,-21.8 -3.8,-1.9 -14.6,0.4 -19.1,2 -3.9,1.4 -26.6,5.3 -32.8,6.4 1.1,-3.7 2,-7.3 3,-10.9 43.6,-2.5 53.1,-16.6 53.1,-16.6 -21.4,14 -48.3,14.8 -52.7,14.9 0.2,-0.8 0.4,-1.6 0.6,-2.5 54.7,-6.9 50.5,-25.3 47.1,-26.8 -3.5,-1.6 -12.9,1.8 -16.7,3.9 -3.1,1.6 -20.6,7 -27.4,9 0.7,-3.6 1.3,-7 1.8,-10.4 35.3,-3.3 43.3,-17.5 43.3,-17.5 -17.3,14 -38.7,15.6 -43.1,15.8 0.1,-0.7 0.2,-1.4 0.3,-2.2 44.7,-7.9 41.7,-26.4 39,-27.9 -2.8,-1.4 -10.3,2 -13.4,4.2 -2.9,2 -21.8,9.5 -23.8,10.3 0.3,-2.8 0.6,-5.4 0.8,-7.8 27.9,-6.7 33.2,-21.4 33.2,-21.4 -12.2,14.8 -28.4,18.8 -33,19.6 0.1,-0.9 0.2,-1.8 0.2,-2.6 34.8,-12.1 30.9,-29.7 28.5,-30.8 -2.4,-1.2 -8.4,3 -10.8,5.4 -1.7,1.7 -11.1,7.6 -16.1,10.7 2,-2.5 1.1,-5.9 1.1,-5.9 -2.4,3 -17.5,8.4 -17.5,8.4 0,-2.4 -1.8,-3 -1.8,-3 -1.2,4.2 -11.4,10.8 -13.2,13.2 -1.8,2.4 -3,6 1.2,9.6 4.2,3.6 7.2,6 3,11.4 -4.2,5.4 -10.8,-1.2 -15.7,-3 -4.8,-1.8 -9.6,4.2 -9.6,4.2 H 403 402.6 357.9 c 0,0 -4.8,-6 -9.6,-4.2 -4.8,1.8 -11.4,8.4 -15.7,3 -4.2,-5.4 -1.2,-7.8 3,-11.4 4.2,-3.6 3,-7.2 1.2,-9.6 -1.8,-2.4 -12,-9 -13.2,-13.2 0,0 -1.8,0.6 -1.8,3 0,0 -15.1,-5.4 -17.5,-8.4 0,0 -1,3.5 1.1,5.9 -5,-3.1 -14.4,-9 -16.1,-10.7 -2.4,-2.4 -8.4,-6.6 -10.8,-5.4 -2.3,1.1 -6.3,18.8 28.5,30.8 0.1,0.8 0.1,1.7 0.2,2.6 -4.6,-0.9 -20.8,-4.9 -33,-19.6 0,0 5.3,14.6 33.2,21.4 0.2,2.4 0.5,5.1 0.8,7.8 -2,-0.8 -21,-8.3 -23.8,-10.3 -3.1,-2.1 -10.7,-5.7 -13.4,-4.2 -2.6,1.4 -5.7,20.1 39,27.9 0.1,0.7 0.2,1.4 0.3,2.2 -4.3,-0.2 -25.7,-1.7 -43.1,-15.8 0,0 7.9,14.1 43.3,17.5 0.5,3.4 1.1,6.9 1.8,10.4 -6.7,-2 -24.3,-7.4 -27.4,-9 -3.9,-2 -13.2,-5.4 -16.7,-3.9 -3.4,1.5 -7.6,19.9 47.1,26.8 0.2,0.8 0.4,1.6 0.6,2.5 -4.4,-0.1 -31.3,-0.8 -52.7,-14.9 0,0 9.5,14.1 53.1,16.6 0.9,3.6 1.9,7.2 3,10.9 -6.2,-1 -29,-4.9 -32.8,-6.4 -4.5,-1.6 -15.2,-4 -19.1,-2 -3.7,1.9 -7.2,21 56.2,21.8 0.2,0.7 0.5,1.3 0.7,2 -8.5,0.6 -37.4,1.7 -61.5,-8.9 0,0 11.9,12.7 62.1,10.5 1.4,4 3.1,7.8 4.8,11.7 -8.1,-0.7 -26.3,-2.2 -29.6,-3.1 -4.4,-1.2 -15,-2.5 -18.4,-0.3 -3.3,2.2 -4.5,21.2 54.6,16.6 0.4,0.8 0.8,1.5 1.3,2.2 -3.9,0.7 -33.1,5.9 -58.6,-3.7 0,0 12.6,12 59.5,5.4 l -0.1,-0.1 c 1.6,2.8 3.4,5.4 5.2,8 -7.3,0.7 -24.5,2.2 -27.9,1.9 -4.3,-0.5 -14.1,0 -16.8,2.8 -2.5,2.6 0.7,21.4 53.9,6.9 0.5,0.5 1,1.1 1.6,1.6 -7,2.6 -30.9,10.8 -54.6,6.6 0,0 14.1,9.2 55.9,-5.3 0.7,0.7 1.3,1.3 2,1.9 -4.6,6.7 -14,18.2 -27.2,24.9 0,0 11.6,-0.8 28.1,-24.1 0.8,0.7 1.6,1.4 2.5,2.1 -2.5,3.7 -12.5,18.6 -14.8,20.8 -2.6,2.6 -7.6,9.3 -7.2,12.5 0.4,3 13.9,10.2 31.6,-26.6 0.7,0.4 1.3,0.8 2,1.1 -3.6,8.8 -10.7,22.8 -22.5,32.9 0,0 12,-3.9 23.7,-32.3 0.4,0.2 0.7,0.4 1,0.5 -1,2.6 -9.5,25.3 -11.6,28.8 -2.3,3.7 -6.2,12.8 -4.9,16.3 1.2,3.3 18.4,8.5 28.8,-40.3 0.8,0.2 1.6,0.4 2.4,0.6 -1.6,10.8 -6,30 -17.2,45.5 0,0 12.8,-7.7 18.7,-45.2 1.3,0.3 2.6,0.5 4,0.7 -1.5,11.1 -3.7,29.9 -2.9,40.5 1.1,14.3 9.3,14 10.7,13.8 1.4,0.2 9.5,0.5 10.7,-13.8 0.8,-10.6 -1.4,-29.4 -2.9,-40.5 1.3,-0.2 2.6,-0.5 4,-0.7 6,37.5 18.7,45.2 18.7,45.2 C 422,416.9 417.7,397.8 416,387 c 0.8,-0.2 1.6,-0.4 2.4,-0.6 10.5,48.8 27.6,43.7 28.8,40.3 1.3,-3.6 -2.6,-12.6 -4.9,-16.3 -2.2,-3.4 -10.7,-26.1 -11.6,-28.8 0.4,-0.2 0.7,-0.4 1,-0.5 11.7,28.4 23.7,32.3 23.7,32.3 -11.9,-10.2 -19,-24.1 -22.5,-32.9 0.7,-0.4 1.3,-0.7 2,-1.1 17.6,36.9 31.1,29.6 31.6,26.6 0.5,-3.2 -4.5,-9.9 -7.2,-12.5 -2.3,-2.2 -12.3,-17.1 -14.8,-20.8 0.8,-0.7 1.7,-1.4 2.5,-2.1 16.6,23.2 28.1,24.1 28.1,24.1 -13.2,-6.6 -22.6,-18.2 -27.2,-24.9 0.7,-0.6 1.3,-1.3 2,-1.9 41.7,14.5 55.9,5.3 55.9,5.3 -23.7,4.2 -47.6,-4 -54.6,-6.6 0.5,-0.5 1,-1.1 1.6,-1.6 53.3,14.5 56.5,-4.3 53.9,-6.9 -2.6,-2.7 -12.5,-3.2 -16.8,-2.8 -3.4,0.4 -20.5,-1.2 -27.9,-1.9 1.8,-2.6 3.6,-5.2 5.2,-8 l -0.1,0.1 c 46.8,6.7 59.5,-5.4 59.5,-5.4 -25.5,9.6 -54.7,4.4 -58.6,3.7 0.4,-0.7 0.8,-1.5 1.3,-2.2 59.1,4.5 57.9,-14.5 54.6,-16.6 -3.4,-2.2 -14,-0.9 -18.4,0.3 -3.4,1 -21.6,2.5 -29.6,3.1 1.7,-3.9 3.3,-7.8 4.8,-11.7 50.2,2.1 62.1,-10.6 62.1,-10.6 z" id="path112" fill="#42403e" stroke="#754f22" stroke-miterlimit="10"/><path class="st2" d="m 299.7,178.4 c 0,0 -0.6,9 -3.6,10.2 -3,1.2 -17.5,-1.2 -15.7,-5.4 1.8,-4.2 5.7,-8.1 5.7,-8.1 z" id="path114" fill="#d4b281" stroke="#754f22" stroke-miterlimit="10"/><path class="st5" d="m 396.8,208.9 c 3.4,-1 3.4,-3.3 3.4,-3.3 -1.4,0.8 -3.2,0.9 -4.7,0.7 -0.8,-1.5 -1.7,-3.1 -2.7,-4.6 3.2,-1 3.2,-3.3 3.2,-3.3 -1.5,0.9 -3.4,0.9 -4.9,0.7 -1,-1.4 -2.1,-2.8 -3.3,-4.2 2.8,-1 2.8,-3.1 2.8,-3.1 -1.5,0.9 -3.5,0.9 -5.1,0.7 -1.5,-1.6 -3.1,-3.1 -4.9,-4.5 2.1,-1.1 2.1,-2.8 2.1,-2.8 -1.5,0.9 -3.5,0.9 -5.1,0.7 -2.5,-1.7 -5.4,-3.3 -8.4,-4.6 0,0 0,-4.8 -1.8,-6 0,0 -6,3.6 -9.6,0 l -15.1,-3.6 -7.2,1.2 c 0,0 -6.6,2.4 -9,7.2 l -0.6,6 8.7,3.9 9.6,1.2 5.4,3.6 3.6,4.8 c 0,0 0,3.6 3.6,3.6 3.6,0 11.4,0.6 16.9,22.9 l 27.4,-5.2 c 0.1,0 -1,-5.2 -4.3,-12 z" id="path116" fill="#42403e" stroke="#754f22" stroke-miterlimit="10"/><ellipse class="st5" cx="403" cy="245.3" rx="40" ry="10.2" id="ellipse118" fill="#42403e" stroke="#754f22" stroke-miterlimit="10"/><path class="st6" d="m 449.9,249.2 h -47 -47 c 0,0 -0.6,74.1 0,90.3 0.6,16.2 27.7,12 34.3,11.4 6.6,-0.6 12.6,6.6 12.6,6.6 0,0 6,-7.2 12.6,-6.6 6.6,0.6 33.7,4.8 34.3,-11.4 0.6,-16.2 0.2,-90.3 0.2,-90.3 z" id="path120" fill="#fff"/><path class="st7" d="M 450.2,298 C 450.1,274 450,249.2 450,249.2 H 403 V 298 Z" id="path122" fill="#4c6292"/><path class="st7" d="m 355.8,298 c -0.1,17.5 0,34.7 0.2,41.5 0.6,16.3 27.7,12 34.3,11.4 6.6,-0.6 12.6,6.6 12.6,6.6 V 298 Z" id="path124" fill="#4c6292"/><g id="g194"><path class="st8" d="m 423,273 c 0,0 1.9,0.6 3.4,-4.2 1.5,-4.8 5.8,-14.5 6.3,-13.8 0.5,0.6 -0.5,2.4 -0.5,2.4 0,0 0.5,-0.6 0.5,0.6 0,1.2 -0.5,2.4 -0.5,2.4 0,0 1,0.6 0.5,1.8 -0.5,1.2 1,0.6 0,2.4 -1,1.8 1,1.2 0,4.2 0,0 0.5,0.6 0,1.8 -0.5,1.2 0.5,0.6 0,1.8 -0.5,1.2 0.5,1.8 -0.5,2.4 0,0 1,0.6 -0.5,1.2 0,0 1.4,1.2 -0.5,1.8 0,0 0,1.2 -1.4,1.2 0,0 -2.4,3 -4.4,0.6 l -2.9,-3.6 v -3 z" id="path126" fill="#d4b281" stroke="#44413d" stroke-width=".5" stroke-miterlimit="10"/><path class="st8" d="m 427.4,273.6 c 0,0 2.4,0.6 4.2,-4.2 1.8,-4.8 7.2,-14.5 7.8,-13.8 0.6,0.6 -0.6,2.4 -0.6,2.4 0,0 0.6,-0.6 0.6,0.6 0,1.2 -0.6,2.4 -0.6,2.4 0,0 1.2,0.6 0.6,1.8 -0.6,1.2 1.2,0.6 0,2.4 -1.2,1.8 1.2,1.2 0,4.2 0,0 0.6,0.6 0,1.8 -0.6,1.2 0.6,0.6 0,1.8 -0.6,1.2 0.6,1.8 -0.6,2.4 0,0 1.2,0.6 -0.6,1.2 0,0 1.8,1.2 -0.6,1.8 0,0 0,1.2 -1.8,1.2 0,0 -3,3 -5.4,0.6 l -3.6,-3.6 v -3 z" id="path128" fill="#d4b281" stroke="#44413d" stroke-width=".5" stroke-miterlimit="10"/><path class="st9" d="m 436.4,263.3 c 0,0 2.4,0 0,1.8" id="path130" fill="none" stroke="#44413d" stroke-width=".5" stroke-miterlimit="10"/><path class="st9" d="m 435.2,266.4 c 0,0 2.4,0 0,1.8" id="path132" fill="none" stroke="#44413d" stroke-width=".5" stroke-miterlimit="10"/><path class="st9" d="m 436.4,268.8 c 0,0 2.4,0 0,1.8" id="path134" fill="none" stroke="#44413d" stroke-width=".5" stroke-miterlimit="10"/><path class="st9" d="m 434.6,271.2 c 0,0 2.4,0 0,1.8" id="path136" fill="none" stroke="#44413d" stroke-width=".5" stroke-miterlimit="10"/><path class="st9" d="m 433.4,274.8 c 0,0 2.4,0 0,1.8" id="path138" fill="none" stroke="#44413d" stroke-width=".5" stroke-miterlimit="10"/><path class="st9" d="m 430.4,262.1 c 0,0 2.4,0 0,1.8" id="path140" fill="none" stroke="#44413d" stroke-width=".5" stroke-miterlimit="10"/><path class="st9" d="m 429.2,265.8 c 0,0 2.4,0 0,1.8" id="path142" fill="none" stroke="#44413d" stroke-width=".5" stroke-miterlimit="10"/><path class="st9" d="m 429.8,268.2 c 0,0 2.4,0 0,1.8" id="path144" fill="none" stroke="#44413d" stroke-width=".5" stroke-miterlimit="10"/><path class="st9" d="m 428,270 c 0,0 2.4,0 0,1.8" id="path146" fill="none" stroke="#44413d" stroke-width=".5" stroke-miterlimit="10"/><circle class="st8" cx="423.7" cy="268.8" r="5.4" id="circle148" fill="#d4b281" stroke="#44413d" stroke-width=".5" stroke-miterlimit="10"/><path class="st8" d="m 418.9,288 c 0,0 -1.2,0.6 -0.6,1.2 0.6,0.6 3,0.6 3,-1.2 0,-1.8 1.2,-1.8 1.2,-1.8 V 285 h -3 c 0,0 0.6,1.8 -0.6,3 z" id="path150" fill="#d4b281" stroke="#44413d" stroke-width=".5" stroke-miterlimit="10"/><path class="st9" d="m 419.7,289.6 c 0,0 -0.2,-1 0.4,-1.6" id="path152" fill="none" stroke="#44413d" stroke-width=".5" stroke-miterlimit="10"/><path class="st9" d="m 418.7,289.5 c 0,0 -0.4,-1.4 0.8,-1.4" id="path154" fill="none" stroke="#44413d" stroke-width=".5" stroke-miterlimit="10"/><path class="st8" d="m 428.6,287.4 c 0,0 -1.2,0.6 -0.6,1.2 0.6,0.6 3,0.6 3,-1.2 0,-1.8 1.2,-1.8 1.2,-1.8 v -1.2 h -3 c 0,0 0.6,1.8 -0.6,3 z" id="path156" fill="#d4b281" stroke="#44413d" stroke-width=".5" stroke-miterlimit="10"/><path class="st9" d="m 429.3,289 c 0,0 -0.2,-1 0.4,-1.6" id="path158" fill="none" stroke="#44413d" stroke-width=".5" stroke-miterlimit="10"/><path class="st9" d="m 428.3,288.9 c 0,0 -0.4,-1.4 0.8,-1.4" id="path160" fill="none" stroke="#44413d" stroke-width=".5" stroke-miterlimit="10"/><path class="st8" d="m 431.6,280 c 0,0 0.9,1 2.1,0.3 1.2,-0.7 1.8,0 2.4,1.3 0.6,1.3 4.2,5.9 3,7.2 -1.2,1.3 -4.8,2 -5.4,0.7 0,0 0,0.7 -1.2,0.7 -1.2,0 -2.4,0 -2.4,-0.7 0,-0.7 0.9,-1.6 2.1,-1.6 0,0 0,-1.3 -1.2,-1.3 -1.2,0 -3,2.6 -3.6,2.6 -0.6,0 -1.2,1.3 -2.4,1.3 -1.2,0 -3,0 -2.4,-1.3 0.6,-1.3 3.6,-2 3.6,-2 l 1.2,-8.5 h 3.6 z" id="path162" fill="#d4b281" stroke="#44413d" stroke-width=".5" stroke-miterlimit="10"/><path class="st8" d="m 422.2,266.7 c 0,0 -0.6,-0.6 -0.6,0 0,0 -0.6,0 -0.6,1.2 0,0 -1.2,-0.6 -1.2,1.2 0,0 -0.6,-0.6 -0.6,0.6 0,0 -0.6,0.6 -0.6,1.2 0,0.6 0,1.8 0.6,1.8 0.6,0 0,0.6 0.6,0.6 0.6,0 -0.6,1.2 0.6,1.2 0,0 0.6,0.6 1.2,0.6 0.6,0 3.6,1.2 3.6,1.2 l 3,-1.8 c 0,0 0.6,-0.6 0,-1.2 -0.6,-0.6 0,-1.8 -0.6,-2.4 0,0 -0.6,-2.4 -1.2,-2.4 0,0 0.6,-1.2 -0.6,-1.2 0,0 -0.6,-1.2 -1.2,-0.6 0,0 -1.2,-1.2 -2.4,0 z" id="path164" fill="#d4b281" stroke="#44413d" stroke-width=".5" stroke-miterlimit="10"/><ellipse class="st8" cx="422.5" cy="273.9" rx="1.2" ry=".9" id="ellipse166" fill="#d4b281" stroke="#44413d" stroke-width=".5" stroke-miterlimit="10"/><path class="st8" d="m 422.2,267.9 c 0,0 -1.2,0 -1.8,2.4 -0.6,2.4 0.6,2.4 0.6,3 0,0.6 0,1.2 0.6,1.2 0.6,0 0.6,-1.2 0.6,-1.2 0,0 0.6,1.2 1.2,1.2 0.6,0 1.2,-1.2 1.2,-1.8 0,0 0.6,0 0.6,-1.2 0,-1.2 0,-3.6 -1.2,-3.6 -1.2,0 -0.6,0.6 -1.8,0 z" id="path168" fill="#d4b281" stroke="#44413d" stroke-width=".5" stroke-miterlimit="10"/><path class="st9" d="m 420.5,270 c 0,0 0.2,-0.7 0.8,-0.1 0.6,0.6 -0.6,1.8 0,2.4 0.6,0.6 1.2,0.6 1.8,0 0.6,-0.6 -0.6,-0.6 -0.6,-1.2 0,-0.6 0.6,-1.8 1.8,-1.2" id="path170" fill="none" stroke="#44413d" stroke-width=".5" stroke-miterlimit="10"/><path class="st9" d="m 424,269.8 c 0,0 -0.4,1.6 -1.3,0.6" id="path172" fill="none" stroke="#44413d" stroke-width=".5" stroke-miterlimit="10"/><path class="st9" d="m 420.7,269.7 c 0,0 -0.3,1.3 0.7,0.7" id="path174" fill="none" stroke="#44413d" stroke-width=".5" stroke-miterlimit="10"/><path class="st8" d="m 429.8,274.8 c 0,0 1.8,2.4 1.8,4.8 0,0 1.8,3 1.2,4.8 -0.6,1.8 -4.8,-6 -4.8,-6 z" id="path176" fill="#d4b281" stroke="#44413d" stroke-width=".5" stroke-miterlimit="10"/><path class="st8" d="m 419.2,275.1 c 0,0 3.6,-0.6 5.4,0.6 0,0 3.6,-2.4 6,-1.8 0,0 -3,7.8 -2.4,13.8 0,0 -4.2,0 -6,1.2 0,0 -4.2,-1.2 -5.4,-0.6 0,0 0.6,-9 2.4,-13.2 z" id="path178" fill="#d4b281" stroke="#44413d" stroke-width=".5" stroke-miterlimit="10"/><path class="st9" d="m 432.3,290.1 c 0,0 -0.7,-0.9 -0.1,-1.5" id="path180" fill="none" stroke="#44413d" stroke-width=".5" stroke-miterlimit="10"/><path class="st9" d="m 430.7,290 c 0,0 -0.3,-1.4 0.9,-1.4" id="path182" fill="none" stroke="#44413d" stroke-width=".5" stroke-miterlimit="10"/><path class="st9" d="m 424.5,290.4 c 0,0 -0.7,-1.2 1.1,-1.8" id="path184" fill="none" stroke="#44413d" stroke-width=".5" stroke-miterlimit="10"/><path class="st9" d="m 422.9,290.2 c 0,0 0.2,-1.6 1.4,-1.6" id="path186" fill="none" stroke="#44413d" stroke-width=".5" stroke-miterlimit="10"/><path class="st8" id="polygon188" fill="#d4b281" stroke="#44413d" stroke-width=".5" stroke-miterlimit="10" d="M425 275.5L422.5 288.6 421.3 288.6 423.7 275.4z"/><path class="st9" d="m 436,281.3 c 0,0 0.4,3.1 1.6,4.3 1.2,1.2 2,3.4 0.1,4.1" id="path190" fill="none" stroke="#44413d" stroke-width=".5" stroke-miterlimit="10"/><path class="st9" d="m 435.8,273 c 0,0 2.4,0 0,1.8" id="path192" fill="none" stroke="#44413d" stroke-width=".5" stroke-miterlimit="10"/></g><g id="g264"><path class="st8" d="m 372.4,328.4 c 0,0 1.9,0.6 3.4,-4.2 1.4,-4.8 5.8,-14.5 6.3,-13.8 0.5,0.7 -0.5,2.4 -0.5,2.4 0,0 0.5,-0.6 0.5,0.6 0,1.2 -0.5,2.4 -0.5,2.4 0,0 1,0.6 0.5,1.8 -0.5,1.2 1,0.6 0,2.4 -1,1.8 1,1.2 0,4.2 0,0 0.5,0.6 0,1.8 -0.5,1.2 0.5,0.6 0,1.8 -0.5,1.2 0.5,1.8 -0.5,2.4 0,0 1,0.6 -0.5,1.2 0,0 1.4,1.2 -0.5,1.8 0,0 0,1.2 -1.4,1.2 0,0 -2.4,3 -4.4,0.6 l -2.9,-3.6 v -3 z" id="path196" fill="#d4b281" stroke="#44413d" stroke-width=".5" stroke-miterlimit="10"/><path class="st8" d="m 376.8,329 c 0,0 2.4,0.6 4.2,-4.2 1.8,-4.8 7.2,-14.5 7.8,-13.8 0.6,0.7 -0.6,2.4 -0.6,2.4 0,0 0.6,-0.6 0.6,0.6 0,1.2 -0.6,2.4 -0.6,2.4 0,0 1.2,0.6 0.6,1.8 -0.6,1.2 1.2,0.6 0,2.4 -1.2,1.8 1.2,1.2 0,4.2 0,0 0.6,0.6 0,1.8 -0.6,1.2 0.6,0.6 0,1.8 -0.6,1.2 0.6,1.8 -0.6,2.4 0,0 1.2,0.6 -0.6,1.2 0,0 1.8,1.2 -0.6,1.8 0,0 0,1.2 -1.8,1.2 0,0 -3,3 -5.4,0.6 l -3.6,-3.6 v -3 z" id="path198" fill="#d4b281" stroke="#44413d" stroke-width=".5" stroke-miterlimit="10"/><path class="st9" d="m 385.8,318.7 c 0,0 2.4,0 0,1.8" id="path200" fill="none" stroke="#44413d" stroke-width=".5" stroke-miterlimit="10"/><path class="st9" d="m 384.6,321.7 c 0,0 2.4,0 0,1.8" id="path202" fill="none" stroke="#44413d" stroke-width=".5" stroke-miterlimit="10"/><path class="st9" d="m 385.8,324.2 c 0,0 2.4,0 0,1.8" id="path204" fill="none" stroke="#44413d" stroke-width=".5" stroke-miterlimit="10"/><path class="st9" d="m 384,326.6 c 0,0 2.4,0 0,1.8" id="path206" fill="none" stroke="#44413d" stroke-width=".5" stroke-miterlimit="10"/><path class="st9" d="m 382.8,330.2 c 0,0 2.4,0 0,1.8" id="path208" fill="none" stroke="#44413d" stroke-width=".5" stroke-miterlimit="10"/><path class="st9" d="m 379.8,317.5 c 0,0 2.4,0 0,1.8" id="path210" fill="none" stroke="#44413d" stroke-width=".5" stroke-miterlimit="10"/><path class="st9" d="m 378.6,321.1 c 0,0 2.4,0 0,1.8" id="path212" fill="none" stroke="#44413d" stroke-width=".5" stroke-miterlimit="10"/><path class="st9" d="m 379.2,323.6 c 0,0 2.4,0 0,1.8" id="path214" fill="none" stroke="#44413d" stroke-width=".5" stroke-miterlimit="10"/><path class="st9" d="m 377.4,325.4 c 0,0 2.4,0 0,1.8" id="path216" fill="none" stroke="#44413d" stroke-width=".5" stroke-miterlimit="10"/><circle class="st8" cx="373.2" cy="324.2" r="5.4" id="circle218" fill="#d4b281" stroke="#44413d" stroke-width=".5" stroke-miterlimit="10"/><path class="st8" d="m 368.3,343.4 c 0,0 -1.2,0.6 -0.6,1.2 0.6,0.6 3,0.6 3,-1.2 0,-1.8 1.2,-1.8 1.2,-1.8 v -1.2 h -3 c 0,0 0.6,1.8 -0.6,3 z" id="path220" fill="#d4b281" stroke="#44413d" stroke-width=".5" stroke-miterlimit="10"/><path class="st9" d="m 369.1,345 c 0,0 -0.2,-1 0.4,-1.6" id="path222" fill="none" stroke="#44413d" stroke-width=".5" stroke-miterlimit="10"/><path class="st9" d="m 368.1,344.9 c 0,0 -0.4,-1.4 0.8,-1.4" id="path224" fill="none" stroke="#44413d" stroke-width=".5" stroke-miterlimit="10"/><path class="st8" d="m 378,342.8 c 0,0 -1.2,0.6 -0.6,1.2 0.6,0.6 3,0.6 3,-1.2 0,-1.8 1.2,-1.8 1.2,-1.8 v -1.2 h -3 c 0,0 0.6,1.8 -0.6,3 z" id="path226" fill="#d4b281" stroke="#44413d" stroke-width=".5" stroke-miterlimit="10"/><path class="st9" d="m 378.8,344.4 c 0,0 -0.2,-1 0.4,-1.6" id="path228" fill="none" stroke="#44413d" stroke-width=".5" stroke-miterlimit="10"/><path class="st9" d="m 377.7,344.3 c 0,0 -0.4,-1.4 0.8,-1.4" id="path230" fill="none" stroke="#44413d" stroke-width=".5" stroke-miterlimit="10"/><path class="st8" d="m 381,335.4 c 0,0 0.9,1 2.1,0.3 1.2,-0.7 1.8,0 2.4,1.3 0.6,1.3 4.2,5.9 3,7.2 -1.2,1.3 -4.8,2 -5.4,0.7 0,0 0,0.7 -1.2,0.7 -1.2,0 -2.4,0 -2.4,-0.7 0,-0.7 0.9,-1.6 2.1,-1.6 0,0 0,-1.3 -1.2,-1.3 -1.2,0 -3,2.6 -3.6,2.6 -0.6,0 -1.2,1.3 -2.4,1.3 -1.2,0 -3,0 -2.4,-1.3 0.6,-1.3 3.6,-2 3.6,-2 l 1.2,-8.5 h 3.6 z" id="path232" fill="#d4b281" stroke="#44413d" stroke-width=".5" stroke-miterlimit="10"/><path class="st8" d="m 371.7,322.1 c 0,0 -0.6,-0.6 -0.6,0 0,0 -0.6,0 -0.6,1.2 0,0 -1.2,-0.6 -1.2,1.2 0,0 -0.6,-0.6 -0.6,0.6 0,0 -0.6,0.6 -0.6,1.2 0,0.6 0,1.8 0.6,1.8 0.6,0 0,0.6 0.6,0.6 0.6,0 -0.6,1.2 0.6,1.2 0,0 0.6,0.6 1.2,0.6 0.6,0 3.6,1.2 3.6,1.2 l 3,-1.8 c 0,0 0.6,-0.6 0,-1.2 -0.6,-0.6 0,-1.8 -0.6,-2.4 0,0 -0.6,-2.4 -1.2,-2.4 0,0 0.6,-1.2 -0.6,-1.2 0,0 -0.6,-1.2 -1.2,-0.6 0,0 -1.2,-1.3 -2.4,0 z" id="path234" fill="#d4b281" stroke="#44413d" stroke-width=".5" stroke-miterlimit="10"/><ellipse class="st8" cx="372" cy="329.3" rx="1.2" ry=".9" id="ellipse236" fill="#d4b281" stroke="#44413d" stroke-width=".5" stroke-miterlimit="10"/><path class="st8" d="m 371.7,323.3 c 0,0 -1.2,0 -1.8,2.4 -0.6,2.4 0.6,2.4 0.6,3 0,0.6 0,1.2 0.6,1.2 0.6,0 0.6,-1.2 0.6,-1.2 0,0 0.6,1.2 1.2,1.2 0.6,0 1.2,-1.2 1.2,-1.8 0,0 0.6,0 0.6,-1.2 0,-1.2 0,-3.6 -1.2,-3.6 -1.2,0 -0.6,0.6 -1.8,0 z" id="path238" fill="#d4b281" stroke="#44413d" stroke-width=".5" stroke-miterlimit="10"/><path class="st9" d="m 369.9,325.4 c 0,0 0.2,-0.7 0.8,-0.1 0.6,0.6 -0.6,1.8 0,2.4 0.6,0.6 1.2,0.6 1.8,0 0.6,-0.6 -0.6,-0.6 -0.6,-1.2 0,-0.6 0.6,-1.8 1.8,-1.2" id="path240" fill="none" stroke="#44413d" stroke-width=".5" stroke-miterlimit="10"/><path class="st9" d="m 373.5,325.2 c 0,0 -0.4,1.6 -1.3,0.6" id="path242" fill="none" stroke="#44413d" stroke-width=".5" stroke-miterlimit="10"/><path class="st9" d="m 370.1,325.1 c 0,0 -0.3,1.3 0.7,0.7" id="path244" fill="none" stroke="#44413d" stroke-width=".5" stroke-miterlimit="10"/><path class="st8" d="m 379.2,330.2 c 0,0 1.8,2.4 1.8,4.8 0,0 1.8,3 1.2,4.8 -0.6,1.8 -4.8,-6 -4.8,-6 z" id="path246" fill="#d4b281" stroke="#44413d" stroke-width=".5" stroke-miterlimit="10"/><path class="st8" d="m 368.6,330.5 c 0,0 3.6,-0.6 5.4,0.6 0,0 3.6,-2.4 6,-1.8 0,0 -3,7.8 -2.4,13.8 0,0 -4.2,0 -6,1.2 0,0 -4.2,-1.2 -5.4,-0.6 0,0 0.6,-9 2.4,-13.2 z" id="path248" fill="#d4b281" stroke="#44413d" stroke-width=".5" stroke-miterlimit="10"/><path class="st9" d="m 381.7,345.5 c 0,0 -0.7,-0.9 -0.1,-1.5" id="path250" fill="none" stroke="#44413d" stroke-width=".5" stroke-miterlimit="10"/><path class="st9" d="m 380.1,345.4 c 0,0 -0.3,-1.4 0.9,-1.4" id="path252" fill="none" stroke="#44413d" stroke-width=".5" stroke-miterlimit="10"/><path class="st9" d="m 373.9,345.8 c 0,0 -0.7,-1.2 1.1,-1.8" id="path254" fill="none" stroke="#44413d" stroke-width=".5" stroke-miterlimit="10"/><path class="st9" d="m 372.3,345.6 c 0,0 0.2,-1.6 1.4,-1.6" id="path256" fill="none" stroke="#44413d" stroke-width=".5" stroke-miterlimit="10"/><path class="st8" id="polygon258" fill="#d4b281" stroke="#44413d" stroke-width=".5" stroke-miterlimit="10" d="M374.4 330.9L372 344 370.8 344 373.2 330.8z"/><path class="st9" d="m 385.4,336.7 c 0,0 0.4,3.1 1.6,4.3 1.2,1.2 2,3.4 0.1,4.1" id="path260" fill="none" stroke="#44413d" stroke-width=".5" stroke-miterlimit="10"/><path class="st9" d="m 385.2,328.4 c 0,0 2.4,0 0,1.8" id="path262" fill="none" stroke="#44413d" stroke-width=".5" stroke-miterlimit="10"/></g><g id="g272"><path class="st10" d="m 378.6,257.7 -1.2,-0.6 -3,-0.6 c 0,0 -0.6,-1.2 -1.8,-1.9 -1.2,-0.7 1.2,2.5 1.2,2.5 l -0.2,0.5 c -0.2,-0.3 -0.6,-0.5 -1,-0.5 -0.7,0 -1.2,0.4 -1.2,0.9 0,0.5 0.5,0.9 1.2,0.9 0.2,0 0.5,-0.1 0.7,-0.1 l -0.1,0.1 c 0,0 -1.8,1.2 -1.2,1.9 0.6,0.7 1.8,-1.2 1.8,-1.2 l 3,-0.6 c 0,0 2.4,1.2 1.8,-1.3 z" id="path266" fill="#de5b55" stroke="#44413d" stroke-width=".5" stroke-miterlimit="10"/><path class="st11" d="m 376.5,257 c 0,0 1.8,0.7 1.8,2 0,1.3 -1.8,-0.7 -1.8,0 0,0.7 1.2,1.3 2.4,0.7 1.2,-0.7 3.6,0 4.2,1.3 0.6,1.3 0,3.3 -1.8,3.3 -1.8,0 -6,-0.7 -7.2,0 -1.2,0.7 -3.6,3.3 -1.8,6.6 1.8,3.3 9.6,2.6 9.6,2.6 0,0 1.2,0 1.2,1.3 0,1.3 0,3.3 -3.6,3.3 -3.6,0 -4.8,-0.7 -6,1.3 -1.2,2 -0.6,5.2 1.2,5.9 1.8,0.7 6.6,-0.7 7.2,0.7 0.6,1.4 0,2 -4.2,2.6 -4.2,0.6 -2.4,4 -0.6,4 1.8,0 3.6,1.3 3.6,0 0,-1.3 -3.9,-1 -3.9,-1.6 0,-0.6 1.2,-1.3 3.6,-1.3 2.4,0 3.6,-1.3 3.6,-2.6 0,-1.3 0,-3.3 -3.6,-3.3 -3.6,0 -4.8,0 -5.4,-1.3 -0.6,-1.3 0,-2 1.8,-2 1.8,0 6,0.7 7.2,-1.3 1.2,-2 1.8,-4 0.6,-5.9 -1.2,-1.9 -1.8,-2 -3,-2 -1.2,0 -7.2,0 -7.2,-2 0,-2 0.6,-2 1.8,-2 1.2,0 7.2,0.7 8.4,-1.3 1.2,-2 1.8,-4.6 1.2,-5.9 -0.6,-1.3 -3.6,-4.6 -6,-4 -2.4,0.6 -2.4,-0.1 -3.3,0.9 z" id="path268" fill="#4c6292" stroke="#44413d" stroke-width=".5" stroke-miterlimit="10"/><circle class="st11" cx="378.9" cy="257" id="ellipse270" r=".3" fill="#4c6292" stroke="#44413d" stroke-width=".5" stroke-miterlimit="10"/></g><g id="g280"><path class="st10" d="m 428,311.9 -1.2,-0.6 -3,-0.6 c 0,0 -0.6,-1.2 -1.8,-1.9 -1.2,-0.7 1.2,2.5 1.2,2.5 l -0.2,0.5 c -0.2,-0.3 -0.6,-0.5 -1,-0.5 -0.7,0 -1.2,0.4 -1.2,0.9 0,0.5 0.5,0.9 1.2,0.9 0.2,0 0.5,-0.1 0.7,-0.1 l -0.1,0.1 c 0,0 -1.8,1.2 -1.2,1.9 0.6,0.7 1.8,-1.2 1.8,-1.2 l 3,-0.6 c -0.1,0 2.4,1.2 1.8,-1.3 z" id="path274" fill="#de5b55" stroke="#44413d" stroke-width=".5" stroke-miterlimit="10"/><path class="st11" d="m 425.8,311.2 c 0,0 1.8,0.7 1.8,2 0,1.3 -1.8,-0.7 -1.8,0 0,0.7 1.2,1.3 2.4,0.7 1.2,-0.6 3.6,0 4.2,1.3 0.6,1.3 0,3.3 -1.8,3.3 -1.8,0 -6,-0.7 -7.2,0 -1.2,0.7 -3.6,3.3 -1.8,6.6 1.8,3.3 9.6,2.6 9.6,2.6 0,0 1.2,0 1.2,1.3 0,1.3 0,3.3 -3.6,3.3 -3.6,0 -4.8,-0.7 -6,1.3 -1.2,2 -0.6,5.2 1.2,5.9 1.8,0.7 6.6,-0.7 7.2,0.7 0.6,1.4 0,2 -4.2,2.6 -4.2,0.6 -2.4,4 -0.6,4 1.8,0 3.6,1.3 3.6,0 0,-1.3 -3.9,-1 -3.9,-1.6 0,-0.6 1.2,-1.3 3.6,-1.3 2.4,0 3.6,-1.3 3.6,-2.6 0,-1.3 0,-3.3 -3.6,-3.3 -3.6,0 -4.8,0 -5.4,-1.3 -0.6,-1.3 0,-2 1.8,-2 1.8,0 6,0.7 7.2,-1.3 1.2,-2 1.8,-4 0.6,-5.9 -1.2,-1.9 -1.8,-2 -3,-2 -1.2,0 -7.2,0 -7.2,-2 0,-2 0.6,-2 1.8,-2 1.2,0 7.2,0.7 8.4,-1.3 1.2,-2 1.8,-4.6 1.2,-5.9 -0.6,-1.3 -3.6,-4.6 -6,-4 -2.4,0.6 -2.4,-0.1 -3.3,0.9 z" id="path276" fill="#4c6292" stroke="#44413d" stroke-width=".5" stroke-miterlimit="10"/><circle class="st11" cx="428.3" cy="311.2" id="ellipse278" r=".3" fill="#4c6292" stroke="#44413d" stroke-width=".5" stroke-miterlimit="10"/></g><path class="st12" d="M 419.1,280.5 H 403 386.9 c 0,0 -0.2,25.5 0,31.1 0.2,5.6 9.5,4.2 11.8,3.9 2.3,-0.2 4.3,2.3 4.3,2.3 0,0 2,-2.5 4.3,-2.3 2.3,0.2 11.6,1.7 11.8,-3.9 0.2,-5.6 0,-31.1 0,-31.1 z" id="path282" fill="#d4b281"/><path class="st3" d="m 449.9,249.2 h -47 -47 c 0,0 -0.6,74.1 0,90.3 0.6,16.2 27.7,12 34.3,11.4 6.6,-0.6 12.6,6.6 12.6,6.6 0,0 6,-7.2 12.6,-6.6 6.6,0.6 33.7,4.8 34.3,-11.4 0.6,-16.2 0.2,-90.3 0.2,-90.3 z" id="path284" fill="none" stroke="#754f22" stroke-miterlimit="10"/><path class="st13" d="m 403,280.5 h -2 l 17.9,32.5 c 0.2,-0.4 0.3,-0.9 0.3,-1.4 0.1,-2 0.1,-6.6 0.1,-11.6 l -10.8,-19.5 z" id="path286" fill="#de5b55"/><path class="st13" d="m 398.6,315.5 c 2.3,-0.2 4.3,2.3 4.3,2.3 0,0 2,-2.5 4.3,-2.3 0.2,0 0.7,0.1 1.1,0.1 V 280.4 H 403 386.9 c 0,0 -0.2,25.5 0,31.1 0.1,5.7 9.4,4.2 11.7,4 z" id="path288" fill="#de5b55"/><path class="st3" d="M 419.1,280.5 H 403 386.9 c 0,0 -0.2,25.5 0,31.1 0.2,5.6 9.5,4.2 11.8,3.9 2.3,-0.2 4.3,2.3 4.3,2.3 0,0 2,-2.5 4.3,-2.3 2.3,0.2 11.6,1.7 11.8,-3.9 0.2,-5.6 0,-31.1 0,-31.1 z" id="path290" fill="none" stroke="#754f22" stroke-miterlimit="10"/><path class="st6" id="rect292" fill="#fff" d="M397.5 291.9H408.3V303.9H397.5z"/><path class="st3" id="line294" fill="none" stroke="#754f22" stroke-miterlimit="10" d="M397.5 315.7L397.5 280.5"/><path class="st3" id="line296" fill="none" stroke="#754f22" stroke-miterlimit="10" d="M408.4 315.7L408.4 280.5"/><path class="st4" d="m 349,195 c 0,0 -14.1,-2.4 -21.8,1.8 -7.7,4.2 -17.3,1.2 -14.8,-5.4 0,0 -4.5,0.6 -3.2,6 1.3,5.4 10.2,6 19.9,1.8 9.7,-4.2 17.9,-1.8 17.9,-1.8 l 6.4,2.4 c 0,0 1.3,-1.2 -4.4,-4.8 z" id="path298" fill="#de5b55" stroke="#754f22" stroke-miterlimit="10"/><path class="st2" d="m 322,196.2 c 0,0 -11.6,-9.6 2.6,-16.3 0,0 0.7,-3 2.6,-1.2 1.9,1.8 0.7,4.8 0.7,4.8 0,0 2.6,3 10.2,4.2 7.7,1.2 17.3,9 17.9,13.8 0,0 -11.2,-5.1 -16.4,-0.9 -5.2,4.2 -10.2,3.6 -10.9,0 0,0 2.6,0.6 5.1,-1.2 2.6,-1.8 9.6,-5.4 17.9,-1.2 0,0 -5.8,-6 -10.9,-6 -5.1,0 -7,0 -9.6,-1.2 -2.5,-1.1 -7.6,0.1 -9.2,5.2 z" id="path300" fill="#d4b281" stroke="#754f22" stroke-miterlimit="10"/><path class="st3" d="m 322.3,187.5 c 0,0 -0.7,0 -0.7,1.2" id="path302" fill="none" stroke="#754f22" stroke-miterlimit="10"/><path class="st14" d="m 338.1,182.4 c 0,0 -2.6,-4.2 -5.8,-3.6 -3.2,0.6 -2.6,3.6 0,4.2 2.6,0.6 5.8,-0.6 5.8,-0.6 z" id="path304" fill="#fff" stroke="#754f22" stroke-miterlimit="10"/><ellipse class="st15" cx="333.2" cy="180.6" rx="1.6" ry="1.8" id="ellipse306" fill="#754f22"/><ellipse class="st6" cx="332.3" cy="180" rx=".7" ry=".6" id="ellipse308" fill="#fff"/><g id="g372"><path class="st2" id="polygon310" fill="#d4b281" stroke="#754f22" stroke-miterlimit="10" d="M349 157.5L347.7 173 345.2 172.8 346.6 157.3z"/><path class="st2" d="m 343.7,158.8 c 0,0 -11,0.3 -6.5,11.5 l -1.4,-0.1 c 0,0 -7.3,-10.9 8,-12.6 z" id="path312" fill="#d4b281" stroke="#754f22" stroke-miterlimit="10"/><circle class="st14" cx="336.5" cy="159.4" id="ellipse314" r="1.2" fill="#fff" stroke="#754f22" stroke-miterlimit="10"/><circle class="st14" cx="340.4" cy="157.9" id="ellipse316" r="1.2" fill="#fff" stroke="#754f22" stroke-miterlimit="10"/><circle class="st14" cx="334.4" cy="162.3" id="ellipse318" r="1.2" fill="#fff" stroke="#754f22" stroke-miterlimit="10"/><path class="st2" d="m 347.1,158.5 c 0,0 -10,1 -6,12.2 l -1.9,-0.2 c 0,0 -5.8,-11.9 8,-13.8 z" id="path320" fill="#d4b281" stroke="#754f22" stroke-miterlimit="10"/><circle class="st14" cx="337.7" cy="162.8" id="ellipse322" r="1.2" fill="#fff" stroke="#754f22" stroke-miterlimit="10"/><circle class="st14" cx="339.5" cy="160.3" id="ellipse324" r="1.2" fill="#fff" stroke="#754f22" stroke-miterlimit="10"/><circle class="st14" cx="342.2" cy="158.1" id="ellipse326" r="1.2" fill="#fff" stroke="#754f22" stroke-miterlimit="10"/><path class="st2" d="m 341.4,166.9 c -0.1,-1.8 -1.7,-1.7 -1.7,-1.7 0,0 -1.5,0.1 -1.4,1.9 0,0 -3,1.4 1.7,2.9 4.5,-2 1.4,-3.1 1.4,-3.1 z" id="path328" fill="#d4b281" stroke="#754f22" stroke-miterlimit="10"/><path class="st2" d="m 336,167.1 c -0.1,-1.6 -1.3,-1.5 -1.3,-1.5 0,0 -1.1,0.1 -1,1.7 0,0 -2.2,1.2 1.3,2.5 3.4,-1.8 1,-2.7 1,-2.7 z" id="path330" fill="#d4b281" stroke="#754f22" stroke-miterlimit="10"/><path class="st2" d="m 351.7,159.5 c 0,0 10.8,2.1 4.4,12.5 l 1.4,0.1 c 0,0 9.1,-9.5 -5.7,-13.7 z" id="path332" fill="#d4b281" stroke="#754f22" stroke-miterlimit="10"/><circle class="st14" cx="358.6" cy="161.3" id="ellipse334" r="1.2" fill="#fff" stroke="#754f22" stroke-miterlimit="10"/><circle class="st14" cx="355.1" cy="159.2" id="ellipse336" r="1.2" fill="#fff" stroke="#754f22" stroke-miterlimit="10"/><circle class="st14" cx="360.2" cy="164.4" id="ellipse338" r="1.2" fill="#fff" stroke="#754f22" stroke-miterlimit="10"/><path class="st2" d="m 348.4,158.6 c 0,0 9.7,2.6 3.8,13 l 1.9,0.2 c 0,0 7.8,-10.8 -5.5,-14.9 z" id="path340" fill="#d4b281" stroke="#754f22" stroke-miterlimit="10"/><circle class="st14" cx="356.8" cy="164.5" id="ellipse342" r="1.2" fill="#fff" stroke="#754f22" stroke-miterlimit="10"/><circle class="st14" cx="355.5" cy="161.7" id="ellipse344" r="1.2" fill="#fff" stroke="#754f22" stroke-miterlimit="10"/><circle class="st14" cx="353.3" cy="159.1" id="ellipse346" r="1.2" fill="#fff" stroke="#754f22" stroke-miterlimit="10"/><path class="st2" d="m 348.8,167.7 c 0.2,-1.8 -1.7,-1.9 -1.7,-1.9 0,0 -1.9,-0.2 -2,1.6 0,0 -3.8,0.9 1.6,3.1 5.6,-1.3 2.1,-2.8 2.1,-2.8 z" id="path348" fill="#d4b281" stroke="#754f22" stroke-miterlimit="10"/><path class="st2" d="m 352.4,167.9 c 0.5,-1.7 1.9,-1.4 1.9,-1.4 0,0 1.5,0.4 1,2.1 0,0 2.6,1.9 -2.2,2.5 -3.9,-2.8 -0.7,-3.2 -0.7,-3.2 z" id="path350" fill="#d4b281" stroke="#754f22" stroke-miterlimit="10"/><path class="st2" d="m 357.7,168.9 c 0.4,-1.5 1.5,-1.3 1.5,-1.3 0,0 1.1,0.2 0.7,1.8 0,0 1.9,1.6 -1.7,2.3 -2.9,-2.3 -0.5,-2.8 -0.5,-2.8 z" id="path352" fill="#d4b281" stroke="#754f22" stroke-miterlimit="10"/><path class="st2" id="polygon354" fill="#d4b281" stroke="#754f22" stroke-miterlimit="10" d="M358.3 170.9L358 175.1 334.7 173.1 335 169z"/><ellipse transform="matrix(0.01162142,-0.9999,0.9999,0.01162142,186.3919,503.3403)" class="st2" cx="347.8" cy="157.4" rx="2.4" ry="2.5" id="ellipse356" fill="#d4b281" stroke="#754f22" stroke-miterlimit="10"/><path class="st2" id="polygon358" fill="#d4b281" stroke="#754f22" stroke-miterlimit="10" d="M351.3 152.9L351.4 151.7 349 151.4 349.2 149.1 347.9 148.9 347.8 151.4 345.3 151.1 345.2 152.3 347.6 152.6 347.2 157.3 348.4 157.4 348.8 152.6z"/><path class="st2" id="polygon360" fill="#d4b281" stroke="#754f22" stroke-miterlimit="10" d="M347.3 156.4L345.1 156.2 345 157.4 350.6 157.9 350.6 156.7 348.5 156.5 348.7 154.4 347.4 154.3z"/><path class="st4" id="polygon362" fill="#de5b55" stroke="#754f22" stroke-miterlimit="10" d="M347.3 172L346.3 172.8 345.5 171.8 346.5 171z"/><path class="st4" id="polygon364" fill="#de5b55" stroke="#754f22" stroke-miterlimit="10" d="M338.1 171.2L337.1 172.1 336.3 171 337.3 170.3z"/><path class="st16" id="polygon366" fill="#4c6292" stroke="#754f22" stroke-miterlimit="10" d="M342.1 171L342 172.3 341.1 172.2 341.2 171z"/><path class="st4" id="polygon368" fill="#de5b55" stroke="#754f22" stroke-miterlimit="10" d="M354.7 172.6L355.5 173.6 356.5 172.8 355.7 171.8z"/><path class="st16" id="polygon370" fill="#4c6292" stroke="#754f22" stroke-miterlimit="10" d="M350.8 171.8L350.7 173 351.5 173.1 351.7 171.8z"/></g><path class="st2" d="m 350.8,277.3 -4,-0.8 c -0.1,-0.1 -0.1,-0.1 -0.1,-0.2 l 4.1,-1.1 h -5.2 c -1,-0.7 -2.2,-1.1 -3.7,-1.1 -1.5,0 -2.8,0.4 -3.7,1.1 H 333 l 4.1,1.1 c -0.1,0.1 -0.1,0.1 -0.1,0.2 l -4,0.8 3.8,0.8 c 0,0.1 0.1,0.2 0.1,0.3 l -3.9,1 h 4.6 c 0.9,1 2.5,1.6 4.3,1.6 1.8,0 3.4,-0.7 4.3,-1.6 h 4.6 l -3.9,-1 c 0.1,-0.1 0.1,-0.2 0.1,-0.3 z" id="path374" fill="#d4b281" stroke="#754f22" stroke-miterlimit="10"/><path class="st2" d="m 346.2,260.2 v -3.7 h -4.3 -4.3 v 3.7 c -1.9,2.1 0,4.3 0,4.3 0,0 -1.9,2.1 0,4.3 v 3.7 h 4.3 4.3 v -3.7 c 1.9,-2.1 0,-4.3 0,-4.3 0,0 2,-2.2 0,-4.3 z m -1.2,5.3 c -0.8,5.4 -3.1,2.1 -3.1,2.1 0,0 -2.3,3.2 -3.1,-2.1 h 2.3 v -1.1 -1.1 h -2.3 c 0.8,-5.4 3.1,-2.1 3.1,-2.1 0,0 2.3,-3.2 3.1,2.1 h -2.3 v 1.1 1.1 z" id="path376" fill="#d4b281" stroke="#754f22" stroke-miterlimit="10"/><ellipse class="st16" cx="341.9" cy="277.5" rx="3" ry="1.7" id="ellipse378" fill="#4c6292" stroke="#754f22" stroke-miterlimit="10"/><path class="st2" d="m 350.8,304.5 -4,-0.8 c -0.1,-0.1 -0.1,-0.1 -0.1,-0.2 l 4.1,-1.1 h -5.2 c -1,-0.7 -2.2,-1.1 -3.7,-1.1 -1.5,0 -2.8,0.4 -3.7,1.1 H 333 l 4.1,1.1 c -0.1,0.1 -0.1,0.1 -0.1,0.2 l -4,0.8 3.8,0.8 c 0,0.1 0.1,0.2 0.1,0.3 l -3.9,1 h 4.6 c 0.9,1 2.5,1.6 4.3,1.6 1.8,0 3.4,-0.7 4.3,-1.6 h 4.6 l -3.9,-1 c 0.1,-0.1 0.1,-0.2 0.1,-0.3 z" id="path380" fill="#d4b281" stroke="#754f22" stroke-miterlimit="10"/><path class="st2" d="m 346.2,287.4 v -3.7 h -4.3 -4.3 v 3.7 c -1.9,2.1 0,4.3 0,4.3 0,0 -1.9,2.1 0,4.3 v 3.7 h 4.3 4.3 V 296 c 1.9,-2.1 0,-4.3 0,-4.3 0,0 2,-2.2 0,-4.3 z m -1.2,5.3 c -0.8,5.4 -3.1,2.1 -3.1,2.1 0,0 -2.3,3.2 -3.1,-2.1 h 2.3 v -1.1 -1.1 h -2.3 c 0.8,-5.4 3.1,-2.1 3.1,-2.1 0,0 2.3,-3.2 3.1,2.1 h -2.3 v 1.1 1.1 z" id="path382" fill="#d4b281" stroke="#754f22" stroke-miterlimit="10"/><ellipse class="st16" cx="341.9" cy="304.8" rx="3" ry="1.7" id="ellipse384" fill="#4c6292" stroke="#754f22" stroke-miterlimit="10"/><path class="st2" d="m 350.8,331.7 -4,-0.8 c -0.1,-0.1 -0.1,-0.1 -0.1,-0.2 l 4.1,-1.1 h -5.2 c -1,-0.7 -2.2,-1.1 -3.7,-1.1 -1.5,0 -2.8,0.4 -3.7,1.1 H 333 l 4.1,1.1 c -0.1,0.1 -0.1,0.1 -0.1,0.2 l -4,0.8 3.8,0.8 c 0,0.1 0.1,0.2 0.1,0.3 l -3.9,1 h 4.6 c 0.9,1 2.5,1.6 4.3,1.6 1.8,0 3.4,-0.7 4.3,-1.6 h 4.6 l -3.9,-1 c 0.1,-0.1 0.1,-0.2 0.1,-0.3 z" id="path386" fill="#d4b281" stroke="#754f22" stroke-miterlimit="10"/><path class="st2" d="m 346.2,314.6 v -3.7 h -4.3 -4.3 v 3.7 c -1.9,2.1 0,4.3 0,4.3 0,0 -1.9,2.1 0,4.3 v 3.7 h 4.3 4.3 v -3.7 c 1.9,-2.1 0,-4.3 0,-4.3 0,0 2,-2.1 0,-4.3 z M 345,320 c -0.8,5.4 -3.1,2.1 -3.1,2.1 0,0 -2.3,3.2 -3.1,-2.1 h 2.3 v -1.1 -1.1 h -2.3 c 0.8,-5.4 3.1,-2.1 3.1,-2.1 0,0 2.3,-3.2 3.1,2.1 h -2.3 v 1.1 1.1 z" id="path388" fill="#d4b281" stroke="#754f22" stroke-miterlimit="10"/><path class="st2" d="m 361.1,362.3 -2.8,-2.3 -2.7,3.4 -2.7,3.4 2.8,2.3 c 0.4,2.9 3.2,2.7 3.2,2.7 0,0 0.4,2.9 3.2,2.7 l 2.8,2.3 2.7,-3.4 2.7,-3.4 -2.8,-2.3 c -0.4,-2.9 -3.2,-2.7 -3.2,-2.7 0,0 -0.4,-3 -3.2,-2.7 z m 3.2,4.2 c 3.5,4 -0.4,3.9 -0.4,3.9 0,0 0.9,3.9 -3.6,1.1 l 1.5,-1.9 -0.8,-0.7 -0.8,-0.7 -1.5,1.9 c -3.5,-4 0.4,-3.9 0.4,-3.9 0,0 -0.9,-3.9 3.6,-1.1 l -1.5,1.9 0.8,0.7 0.8,0.7 z" id="path390" fill="#d4b281" stroke="#754f22" stroke-miterlimit="10"/><path class="st2" d="m 385.1,376 -3.6,-0.7 -0.7,4.3 -0.7,4.3 3.6,0.7 c 1.7,2.3 4.1,0.7 4.1,0.7 0,0 1.7,2.3 4.1,0.7 l 3.6,0.7 0.7,-4.3 0.7,-4.3 -3.6,-0.7 c -1.7,-2.3 -4.1,-0.7 -4.1,-0.7 0,0 -1.6,-2.3 -4.1,-0.7 z m 5,2 c 4.9,1.7 1.5,3.6 1.5,3.6 0,0 2.6,3 -2.6,2.8 l 0.4,-2.4 -1,-0.2 -1,-0.2 -0.4,2.4 c -4.9,-1.7 -1.5,-3.6 -1.5,-3.6 0,0 -2.6,-3 2.6,-2.8 l -0.4,2.4 1,0.2 1,0.2 z" id="path392" fill="#d4b281" stroke="#754f22" stroke-miterlimit="10"/><ellipse class="st16" cx="341.9" cy="332" rx="3" ry="1.7" id="ellipse394" fill="#4c6292" stroke="#754f22" stroke-miterlimit="10"/><path class="st2" d="m 378.7,368.4 -2.8,3.1 c -0.1,0 -0.1,0 -0.2,0 l 1.1,-4.2 -2.6,4.6 c -1,0.5 -2,1.4 -2.8,2.8 -0.7,1.3 -1.1,2.6 -1,3.9 l -2.6,4.6 3,-3.1 c 0.1,0.1 0.1,0.1 0.1,0.2 l -1.3,4 2.6,-3 c 0.1,0 0.2,0.1 0.3,0.1 l -1.1,4 2.3,-4 c 1.3,-0.3 2.6,-1.4 3.6,-3.1 0.9,-1.6 1.2,-3.4 0.8,-4.7 l 2.3,-4 -2.8,3 c -0.1,-0.1 -0.1,-0.1 -0.2,-0.2 z" id="path396" fill="#d4b281" stroke="#754f22" stroke-miterlimit="10"/><ellipse transform="matrix(0.4852,-0.8744,0.8744,0.4852,-136.3725,521.1866)" class="st16" cx="374.4" cy="376.4" rx="3.1" ry="1.6" id="ellipse398" fill="#4c6292" stroke="#754f22" stroke-miterlimit="10"/><path class="st12" d="m 394.8,301.4 c 2.5,-0.3 1.3,-4.6 0.8,-6 -0.5,-1.5 -0.2,-3.3 0.4,-4.8 0.6,-1.5 -0.7,-2 -0.2,-4.3 0.5,-2.2 -0.2,-2.5 -0.2,-2.5 0.4,1.3 -1.1,2.8 -0.7,4.3 0.4,1.5 0.2,3 -0.4,4.6 -0.5,1.5 1.3,4.6 1.1,6.3 -0.1,0.8 -0.4,1.3 -0.8,1.4 0.1,-1.1 0.2,-2.5 -0.6,-3.8 -1.3,-2 -0.7,-4.8 -0.5,-5.8 0.2,-1 0.7,-5.8 0.7,-7 0,-1.3 -0.7,-0.8 -0.7,-0.8 -0.9,-1.5 -2.2,0.5 -2.2,0.5 h -1.1 v 1 c 0,0 1.3,0 1.4,0.8 0.2,0.8 -1.1,0.5 -1.1,0.5 v 0.8 h 0.9 l -0.4,1.3 c -0.7,0.2 -2.3,-2.3 -2.5,-3.6 -0.2,-1.3 -0.4,-1.7 -1.1,-1 -0.7,0.8 0.9,3.3 0.4,4 -0.5,0.7 1.1,2 0.7,2.8 -0.4,0.7 0.5,1.3 -0.2,2 -0.7,0.7 0.4,2 0.4,2 l 0.2,2.5 c 0,0 -1.4,-0.5 -0.9,1.3 0.5,1.7 1.6,0 2,-1.3 0.4,-1.3 1.3,-2.3 1.3,-1 0,1.3 1.3,2.8 1.1,3.8 -0.2,1 -2,0 -2.8,0.8 -0.8,0.8 -0.2,2.3 0.4,3.8 0.6,1.5 -0.7,0.5 -1.1,1.5 -0.4,1 0.9,2 2,1.7 1.1,-0.2 1.1,-2 0.7,-3.6 -0.4,-1.6 1.3,-1.3 1.3,-1.3 0,0 -0.2,1.7 -0.4,3.3 -0.2,1.5 0.7,1.5 1.4,3 0.7,1.5 -0.4,3.6 -1.1,3.8 -0.7,0.2 -0.5,2.3 0.9,1.7 1.4,-0.5 2,-3 2.3,-4.8 0.3,-1.8 -0.7,-6.1 -1.3,-7.3 0,-0.1 -0.1,-0.4 -0.1,-0.6 z" id="path400" fill="#d4b281"/><path class="st6" d="m 412.1,290.3 0.5,-0.5 c 0,0 -1,-0.2 -1,0.4 0,0.3 -0.2,0.4 -0.4,0.4 -0.2,-0.4 -0.8,-1.3 -1.3,-1.1 -0.7,0.2 -0.5,0.8 -0.5,0.8 0,0 0.5,-0.4 0.7,-0.2 0.1,0.1 0.4,0.6 0.5,0.8 -0.1,0.2 -0.2,0.4 -0.6,0.2 -0.6,-0.3 -0.8,0.8 -0.8,0.8 l 0.7,-0.2 -0.2,0.8 0.5,-0.5 0.2,0.7 0.4,-0.5 0.2,0.7 0.3,-0.6 c 0.3,0.5 1,0.9 1,0.9 0,0 -0.1,-0.8 -0.4,-1.3 h 0.7 l -0.5,-0.5 0.6,-0.1 -0.5,-0.5 0.7,-0.2 z" id="path402" fill="#fff"/><path class="st6" d="m 415.1,295.7 0.5,-0.5 c 0,0 -1,-0.2 -1,0.4 0,0.3 -0.2,0.4 -0.4,0.4 -0.2,-0.4 -0.8,-1.3 -1.3,-1.1 -0.7,0.2 -0.5,0.8 -0.5,0.8 0,0 0.5,-0.4 0.7,-0.2 0.1,0.1 0.4,0.6 0.5,0.8 -0.1,0.2 -0.2,0.4 -0.6,0.2 -0.6,-0.3 -0.8,0.8 -0.8,0.8 l 0.7,-0.2 -0.2,0.8 0.5,-0.5 0.2,0.7 0.4,-0.5 0.2,0.7 0.3,-0.6 c 0.3,0.5 1,0.9 1,0.9 0,0 -0.1,-0.8 -0.4,-1.3 h 0.7 l -0.5,-0.5 0.6,-0.1 -0.5,-0.5 0.7,-0.2 z" id="path404" fill="#fff"/><path class="st6" d="m 418.1,301.1 0.5,-0.5 c 0,0 -1,-0.2 -1,0.4 0,0.3 -0.2,0.4 -0.4,0.4 -0.2,-0.4 -0.8,-1.3 -1.3,-1.1 -0.7,0.2 -0.5,0.8 -0.5,0.8 0,0 0.5,-0.4 0.7,-0.2 0.1,0.1 0.4,0.6 0.5,0.8 -0.1,0.2 -0.2,0.4 -0.6,0.2 -0.6,-0.3 -0.8,0.8 -0.8,0.8 l 0.7,-0.2 -0.2,0.8 0.5,-0.5 0.2,0.7 0.4,-0.5 0.2,0.7 0.3,-0.6 c 0.3,0.5 1,0.9 1,0.9 0,0 -0.1,-0.8 -0.4,-1.3 h 0.7 l -0.5,-0.5 0.6,-0.1 -0.5,-0.5 0.7,-0.2 z" id="path406" fill="#fff"/><path class="st2" d="m 512.2,310.9 c -0.7,0 -1.3,0.2 -1.8,0.6 h -4.2 v -3 c 0.4,-0.5 0.6,-1.1 0.6,-1.8 0,-1.7 -1.3,-3 -3,-3 -1.7,0 -3,1.3 -3,3 0,0.7 0.2,1.3 0.6,1.8 v 3 h -4.2 c -0.5,-0.4 -1.1,-0.6 -1.8,-0.6 -1.7,0 -3,1.3 -3,3 0,1.7 1.3,3 3,3 0.7,0 1.3,-0.2 1.8,-0.6 h 4.2 v 18.1 h 4.8 v -18.1 h 4.2 c 0.5,0.4 1.1,0.6 1.8,0.6 1.7,0 3,-1.3 3,-3 0,-1.7 -1.3,-3 -3,-3 z" id="path408" fill="#d4b281" stroke="#754f22" stroke-miterlimit="10"/><circle class="st2" cx="503.8" cy="346.4" r="19.3" id="circle410" fill="#d4b281" stroke="#754f22" stroke-miterlimit="10"/><path class="st2" d="m 460.5,352.5 c 0,0 -3.6,1.2 -3,5.4 0.6,4.2 7.8,9 13.2,8.4 0,0 3,6 16.3,4.2 0,0 10.8,4.8 20.5,1.8 9.7,-3 12.6,-10.2 10.8,-12.6 -1.8,-2.4 -7.2,1.2 -9,4.8 0,0 -1.2,-0.6 -1.2,-2.4 0,-1.8 -0.6,-6 -4.2,-4.8 -3.6,1.2 -3,6.6 -3,6.6 0,0 -1.8,0 -1.8,-1.2 0,-1.2 -0.6,-5.4 -4.2,-4.2 -3.6,1.2 -3,4.8 -3,4.8 0,0 -4.2,-1.2 -7.2,-0.6 -3,0.6 -6,-4.8 -10.8,-3.6 -4.8,1.2 -9.2,-7.8 -13.4,-6.6 z" id="path412" fill="#d4b281" stroke="#754f22" stroke-miterlimit="10"/><path class="st2" d="m 494.2,355.5 c 0,0 -2.4,2.4 0,4.8 0,0 1.8,0.6 1.8,-0.6 0,-1.2 -1.8,-1.8 -1.8,-4.2 z" id="path414" fill="#d4b281" stroke="#754f22" stroke-miterlimit="10"/><path class="st2" d="m 504.3,354.3 c 0,0 -2.8,1.9 -0.9,4.8 0,0 1.7,0.9 1.9,-0.2 0.2,-1.4 -1.5,-2.3 -1,-4.6 z" id="path416" fill="#d4b281" stroke="#754f22" stroke-miterlimit="10"/><path class="st2" d="m 518.4,356.3 c 0,0 -3.3,0.8 -2.5,4.1 0,0 1.2,1.4 1.9,0.4 0.6,-1.1 -0.6,-2.5 0.6,-4.5 z" id="path418" fill="#d4b281" stroke="#754f22" stroke-miterlimit="10"/><path class="st2" d="m 519.5,341 h -10.8 v -10.8 c 0,-2.6 -2.2,-4.8 -4.8,-4.8 -2.6,0 -4.8,2.2 -4.8,4.8 V 341 h -10.8 c -2.6,0 -4.8,2.2 -4.8,4.8 0,2.6 2.2,4.8 4.8,4.8 h 31.3 c 2.6,0 4.8,-2.2 4.8,-4.8 0,-2.6 -2.3,-4.8 -4.9,-4.8 z" id="path420" fill="#d4b281" stroke="#754f22" stroke-miterlimit="10"/><circle class="st2" cx="503.8" cy="332" r="2.4" id="circle422" fill="#d4b281" stroke="#754f22" stroke-miterlimit="10"/><circle class="st2" cx="503.8" cy="338.6" r="2.4" id="circle424" fill="#d4b281" stroke="#754f22" stroke-miterlimit="10"/><circle class="st2" cx="503.8" cy="345.2" r="2.4" id="circle426" fill="#d4b281" stroke="#754f22" stroke-miterlimit="10"/><circle class="st2" cx="496" cy="345.2" r="2.4" id="circle428" fill="#d4b281" stroke="#754f22" stroke-miterlimit="10"/><circle class="st2" cx="488.2" cy="345.2" r="2.4" id="circle430" fill="#d4b281" stroke="#754f22" stroke-miterlimit="10"/><circle class="st2" cx="511.6" cy="345.2" r="2.4" id="circle432" fill="#d4b281" stroke="#754f22" stroke-miterlimit="10"/><circle class="st2" cx="519.5" cy="345.2" r="2.4" id="circle434" fill="#d4b281" stroke="#754f22" stroke-miterlimit="10"/><path class="st2" d="m 313.9,164.5 c 0,0 -11.2,6.1 -14.8,16.4 l -13.8,-4.2 c 0,-0.1 12.1,-22 28.6,-12.2 z" id="path436" fill="#d4b281" stroke="#754f22" stroke-miterlimit="10"/><path class="st3" id="line438" fill="none" stroke="#754f22" stroke-miterlimit="10" d="M288 177.5L282.5 186.5"/><path class="st3" id="line440" fill="none" stroke="#754f22" stroke-miterlimit="10" d="M291.5 178.5L286.8 188.1"/><path class="st3" id="line442" fill="none" stroke="#754f22" stroke-miterlimit="10" d="M295.2 179.7L292.4 189"/><path class="st5" d="m 409.5,208.9 c -3.4,-1 -3.4,-3.3 -3.4,-3.3 1.4,0.8 3.2,0.9 4.7,0.7 0.8,-1.5 1.7,-3.1 2.7,-4.6 -3.2,-1 -3.2,-3.3 -3.2,-3.3 1.5,0.9 3.4,0.9 4.9,0.7 1,-1.4 2.1,-2.8 3.3,-4.2 -2.8,-1 -2.8,-3.1 -2.8,-3.1 1.5,0.9 3.5,0.9 5.1,0.7 1.5,-1.6 3.1,-3.1 4.9,-4.5 -2.1,-1.1 -2.1,-2.8 -2.1,-2.8 1.5,0.9 3.5,0.9 5.1,0.7 2.5,-1.7 5.4,-3.3 8.4,-4.6 0,0 0,-4.8 1.8,-6 0,0 6,3.6 9.6,0 l 15.1,-3.6 7.2,1.2 c 0,0 6.6,2.4 9,7.2 l 0.6,6 -8.7,3.9 -9.6,1.2 -5.4,3.6 -3.6,4.8 c 0,0 0,3.6 -3.6,3.6 -3.6,0 -11.4,0.6 -16.9,22.9 L 405.2,221 c 0,-0.1 1.1,-5.3 4.3,-12.1 z" id="path444" fill="#42403e" stroke="#754f22" stroke-miterlimit="10"/><path class="st4" d="m 457.5,195 c 0,0 14.1,-2.4 21.8,1.8 7.7,4.2 17.3,1.2 14.8,-5.4 0,0 4.5,0.6 3.2,6 -1.3,5.4 -10.2,6 -19.9,1.8 -9.7,-4.2 -17.9,-1.8 -17.9,-1.8 l -6.4,2.4 c -0.2,0 -1.4,-1.2 4.4,-4.8 z" id="path446" fill="#de5b55" stroke="#754f22" stroke-miterlimit="10"/><path class="st2" d="m 484.4,196.2 c 0,0 11.6,-9.6 -2.6,-16.3 0,0 -0.7,-3 -2.6,-1.2 -1.9,1.8 -0.7,4.8 -0.7,4.8 0,0 -2.6,3 -10.2,4.2 -7.6,1.2 -17.3,9 -17.9,13.8 0,0 11.2,-5.1 16.4,-0.9 5.1,4.2 10.2,3.6 10.9,0 0,0 -2.6,0.6 -5.1,-1.2 -2.5,-1.8 -9.6,-5.4 -17.9,-1.2 0,0 5.8,-6 10.9,-6 5.1,0 7,0 9.6,-1.2 2.4,-1.1 7.5,0.1 9.2,5.2 z" id="path448" fill="#d4b281" stroke="#754f22" stroke-miterlimit="10"/><path class="st3" d="m 484.1,187.5 c 0,0 0.7,0 0.7,1.2" id="path450" fill="none" stroke="#754f22" stroke-miterlimit="10"/><path class="st14" d="m 468.4,182.4 c 0,0 2.6,-4.2 5.8,-3.6 3.2,0.6 2.6,3.6 0,4.2 -2.6,0.6 -5.8,-0.6 -5.8,-0.6 z" id="path452" fill="#fff" stroke="#754f22" stroke-miterlimit="10"/><ellipse class="st15" cx="473.2" cy="180.6" rx="1.6" ry="1.8" id="ellipse454" fill="#754f22"/><ellipse class="st6" cx="474.1" cy="180" rx=".7" ry=".6" id="ellipse456" fill="#fff"/><g id="g520"><path class="st2" id="polygon458" fill="#d4b281" stroke="#754f22" stroke-miterlimit="10" d="M457.3 157.5L458.7 173 461.2 172.8 459.8 157.3z"/><path class="st2" d="m 462.7,158.8 c 0,0 11,0.3 6.5,11.5 l 1.4,-0.1 c 0,0 7.3,-10.9 -8,-12.6 z" id="path460" fill="#d4b281" stroke="#754f22" stroke-miterlimit="10"/><circle class="st14" cx="469.9" cy="159.4" id="ellipse462" r="1.2" fill="#fff" stroke="#754f22" stroke-miterlimit="10"/><circle class="st14" cx="466.1" cy="158" id="ellipse464" r="1.2" fill="#fff" stroke="#754f22" stroke-miterlimit="10"/><circle class="st14" cx="472" cy="162.2" id="ellipse466" r="1.2" fill="#fff" stroke="#754f22" stroke-miterlimit="10"/><path class="st2" d="m 459.3,158.5 c 0,0 10,1 6,12.2 l 1.9,-0.2 c 0,0 5.8,-11.9 -8,-13.8 z" id="path468" fill="#d4b281" stroke="#754f22" stroke-miterlimit="10"/><circle class="st14" cx="468.6" cy="162.8" id="ellipse470" r="1.2" fill="#fff" stroke="#754f22" stroke-miterlimit="10"/><circle class="st14" cx="466.8" cy="160.3" id="ellipse472" r="1.2" fill="#fff" stroke="#754f22" stroke-miterlimit="10"/><circle class="st14" cx="464.2" cy="158.1" id="ellipse474" r="1.2" fill="#fff" stroke="#754f22" stroke-miterlimit="10"/><path class="st2" d="m 465,166.9 c 0.1,-1.8 1.7,-1.7 1.7,-1.7 0,0 1.5,0.1 1.4,1.9 0,0 3,1.4 -1.7,2.9 -4.5,-2 -1.4,-3.1 -1.4,-3.1 z" id="path476" fill="#d4b281" stroke="#754f22" stroke-miterlimit="10"/><path class="st2" d="m 470.3,167.1 c 0.1,-1.6 1.3,-1.5 1.3,-1.5 0,0 1.1,0.1 1,1.7 0,0 2.2,1.2 -1.3,2.5 -3.2,-1.8 -1,-2.7 -1,-2.7 z" id="path478" fill="#d4b281" stroke="#754f22" stroke-miterlimit="10"/><path class="st2" d="m 454.7,159.5 c 0,0 -10.8,2.1 -4.4,12.5 l -1.4,0.1 c 0,0 -9.1,-9.5 5.7,-13.7 z" id="path480" fill="#d4b281" stroke="#754f22" stroke-miterlimit="10"/><circle class="st14" cx="447.8" cy="161.3" id="ellipse482" r="1.2" fill="#fff" stroke="#754f22" stroke-miterlimit="10"/><circle class="st14" cx="451.3" cy="159.2" id="ellipse484" r="1.2" fill="#fff" stroke="#754f22" stroke-miterlimit="10"/><circle class="st14" cx="446.2" cy="164.5" id="ellipse486" r="1.2" fill="#fff" stroke="#754f22" stroke-miterlimit="10"/><path class="st2" d="m 458.1,158.6 c 0,0 -9.7,2.6 -3.8,13 l -1.9,0.2 c 0,0 -7.8,-10.8 5.5,-14.9 z" id="path488" fill="#d4b281" stroke="#754f22" stroke-miterlimit="10"/><circle class="st14" cx="449.6" cy="164.5" id="ellipse490" r="1.2" fill="#fff" stroke="#754f22" stroke-miterlimit="10"/><circle class="st14" cx="450.9" cy="161.6" id="ellipse492" r="1.2" fill="#fff" stroke="#754f22" stroke-miterlimit="10"/><circle class="st14" cx="453.1" cy="159.1" id="ellipse494" r="1.2" fill="#fff" stroke="#754f22" stroke-miterlimit="10"/><path class="st2" d="m 457.6,167.7 c -0.2,-1.8 1.7,-1.9 1.7,-1.9 0,0 1.9,-0.2 2,1.6 0,0 3.8,0.9 -1.6,3.1 -5.7,-1.3 -2.1,-2.8 -2.1,-2.8 z" id="path496" fill="#d4b281" stroke="#754f22" stroke-miterlimit="10"/><path class="st2" d="m 453.9,167.9 c -0.5,-1.7 -1.9,-1.4 -1.9,-1.4 0,0 -1.5,0.4 -1,2.1 0,0 -2.6,1.9 2.2,2.5 4,-2.8 0.7,-3.2 0.7,-3.2 z" id="path498" fill="#d4b281" stroke="#754f22" stroke-miterlimit="10"/><path class="st2" d="m 448.7,168.9 c -0.4,-1.5 -1.5,-1.3 -1.5,-1.3 0,0 -1.1,0.2 -0.7,1.8 0,0 -1.9,1.6 1.7,2.3 2.9,-2.3 0.5,-2.8 0.5,-2.8 z" id="path500" fill="#d4b281" stroke="#754f22" stroke-miterlimit="10"/><path class="st2" id="polygon502" fill="#d4b281" stroke="#754f22" stroke-miterlimit="10" d="M448 170.9L448.4 175.1 471.7 173.1 471.4 169z"/><ellipse transform="matrix(0.9999,-0.01162142,0.01162142,0.9999,-1.7979,5.3394)" class="st2" cx="458.5" cy="157.4" rx="2.5" ry="2.4" id="ellipse504" fill="#d4b281" stroke="#754f22" stroke-miterlimit="10"/><path class="st2" id="polygon506" fill="#d4b281" stroke="#754f22" stroke-miterlimit="10" d="M455 152.9L455 151.7 457.4 151.4 457.2 149.1 458.4 148.9 458.7 151.4 461.1 151.1 461.2 152.3 458.8 152.6 459.2 157.3 457.9 157.4 457.5 152.6z"/><path class="st2" id="polygon508" fill="#d4b281" stroke="#754f22" stroke-miterlimit="10" d="M459.1 156.4L461.2 156.2 461.4 157.4 455.8 157.9 455.7 156.7 457.9 156.5 457.7 154.4 458.9 154.3z"/><path class="st4" id="polygon510" fill="#de5b55" stroke="#754f22" stroke-miterlimit="10" d="M459 172L460 172.8 460.9 171.8 459.9 171z"/><path class="st4" id="polygon512" fill="#de5b55" stroke="#754f22" stroke-miterlimit="10" d="M468.2 171.2L469.3 172.1 470.1 171 469.1 170.3z"/><path class="st16" id="polygon514" fill="#4c6292" stroke="#754f22" stroke-miterlimit="10" d="M464.3 171L464.4 172.3 465.3 172.2 465.2 171z"/><path class="st4" id="polygon516" fill="#de5b55" stroke="#754f22" stroke-miterlimit="10" d="M451.7 172.6L450.8 173.6 449.8 172.8 450.7 171.8z"/><path class="st16" id="polygon518" fill="#4c6292" stroke="#754f22" stroke-miterlimit="10" d="M455.6 171.8L455.6 173 454.8 173.1 454.7 171.8z"/></g><path class="st2" d="m 403.3,401.2 c -2,0 -3.6,1.6 -3.6,3.6 0,2 1.6,3.6 3.6,3.6 2,0 3.6,-1.6 3.6,-3.6 0,-2 -1.6,-3.6 -3.6,-3.6 z m 0,6.2 c -1.4,0 -2.5,-1.1 -2.5,-2.5 0,-1.4 1.1,-2.5 2.5,-2.5 1.4,0 2.5,1.1 2.5,2.5 0,1.4 -1.1,2.5 -2.5,2.5 z" id="path522" fill="#d4b281" stroke="#754f22" stroke-miterlimit="10"/><path class="st2" d="m 403.3,395.2 c -2,0 -3.6,1.6 -3.6,3.6 0,2 1.6,3.6 3.6,3.6 2,0 3.6,-1.6 3.6,-3.6 0,-2 -1.6,-3.6 -3.6,-3.6 z m 0,6.1 c -1.4,0 -2.5,-1.1 -2.5,-2.5 0,-1.4 1.1,-2.5 2.5,-2.5 1.4,0 2.5,1.1 2.5,2.5 0,1.4 -1.1,2.5 -2.5,2.5 z" id="path524" fill="#d4b281" stroke="#754f22" stroke-miterlimit="10"/><path class="st2" d="m 403.3,389.2 c -2,0 -3.6,1.6 -3.6,3.6 0,2 1.6,3.6 3.6,3.6 2,0 3.6,-1.6 3.6,-3.6 0,-2 -1.6,-3.6 -3.6,-3.6 z m 0,6.1 c -1.4,0 -2.5,-1.1 -2.5,-2.5 0,-1.4 1.1,-2.5 2.5,-2.5 1.4,0 2.5,1.1 2.5,2.5 0,1.4 -1.1,2.5 -2.5,2.5 z" id="path526" fill="#d4b281" stroke="#754f22" stroke-miterlimit="10"/><path class="st2" d="m 403,372.9 -0.8,4.2 c -0.1,0.1 -0.1,0.1 -0.2,0.1 l -1.1,-4.3 v 5.4 c -0.7,1 -1,2.3 -1,3.9 0,1.6 0.4,2.9 1,3.9 v 5.4 l 1.1,-4.3 c 0.1,0.1 0.1,0.1 0.2,0.1 l 0.8,4.2 0.8,-3.9 c 0.1,0 0.2,-0.1 0.3,-0.1 l 1,4 v -4.7 c 0.9,-1 1.6,-2.6 1.6,-4.5 0,-1.9 -0.6,-3.6 -1.6,-4.5 v -4.7 l -1,4 C 404,377 403.9,377 403.8,377 Z" id="path528" fill="#d4b281" stroke="#754f22" stroke-miterlimit="10"/><ellipse class="st16" cx="403.2" cy="382.1" rx="1.6" ry="3.1" id="ellipse530" fill="#4c6292" stroke="#754f22" stroke-miterlimit="10"/><path class="st2" d="m 403.3,409.1 v 8.4 h -1.8 c 0,0 1.8,7.2 -1.2,8.4 0,0 -0.6,7.2 -1.8,6.6 -1.2,-0.6 -1.2,-6.6 -1.2,-6.6 0,0 -2.4,-1.2 -1.8,-3.6 0,0 -0.6,-0.6 -1.2,0 -0.6,0.6 1.2,1.8 -0.6,2.4 -1.8,0.6 -1.8,-2.4 -1.8,-2.4 0,0 -2.4,-1.2 -1.8,-3 0,0 -2.4,-1.2 0.6,-1.8 3,-0.6 5.9,-10.9 12.6,-8.4 z" id="path532" fill="#d4b281" stroke="#754f22" stroke-miterlimit="10"/><path class="st2" d="m 404.2,409.4 v 7.8 c 0,0 1.2,0 1.8,1.2 0.6,1.2 1.8,7.2 0,9.6 -1.8,2.4 -3,3.6 -0.6,3.6 2.4,0 3.6,-7.8 3.6,-7.8 0,0 0.6,0 0.6,1.8 0,1.8 -3.6,5.4 -1.8,6 1.8,0.6 4.8,-4.8 4.8,-12 0,0 0.6,-1.2 0.6,1.2 0,2.4 2.4,-0.6 1.8,-1.8 -0.6,-1.2 -5.4,-11.4 -10.8,-9.6 z" id="path534" fill="#d4b281" stroke="#754f22" stroke-miterlimit="10"/><path class="st2" id="rect536" fill="#d4b281" stroke="#754f22" stroke-miterlimit="10" d="M402.4 406.6H404.79999999999995V417.70000000000005H402.4z"/><path class="st2" d="m 454.7,277.3 4,-0.8 c 0.1,-0.1 0.1,-0.1 0.1,-0.2 l -4.1,-1.1 h 5.2 c 1,-0.7 2.2,-1.1 3.7,-1.1 1.5,0 2.8,0.4 3.7,1.1 h 5.2 l -4.1,1.1 c 0.1,0.1 0.1,0.1 0.1,0.2 l 4,0.8 -3.8,0.8 c 0,0.1 -0.1,0.2 -0.1,0.3 l 3.9,1 h -4.6 c -0.9,1 -2.5,1.6 -4.3,1.6 -1.8,0 -3.4,-0.7 -4.3,-1.6 h -4.6 l 3.9,-1 c -0.1,-0.1 -0.1,-0.2 -0.1,-0.3 z" id="path538" fill="#d4b281" stroke="#754f22" stroke-miterlimit="10"/><path class="st2" d="m 459.3,264.4 c 0,0 -1.9,2.1 0,4.3 v 3.7 h 4.3 4.3 v -3.7 c 1.9,-2.1 0,-4.3 0,-4.3 0,0 1.9,-2.1 0,-4.3 v -3.7 h -4.3 -4.3 v 3.7 c -1.9,2.2 0,4.3 0,4.3 z m 3.5,1.1 v -1.1 -1.1 h -2.3 c 0.8,-5.4 3.1,-2.1 3.1,-2.1 0,0 2.3,-3.2 3.1,2.1 h -2.3 v 1.1 1.1 h 2.3 c -0.8,5.4 -3.1,2.1 -3.1,2.1 0,0 -2.3,3.2 -3.1,-2.1 z" id="path540" fill="#d4b281" stroke="#754f22" stroke-miterlimit="10"/><ellipse class="st16" cx="463.6" cy="277.5" rx="3" ry="1.7" id="ellipse542" fill="#4c6292" stroke="#754f22" stroke-miterlimit="10"/><path class="st2" d="m 454.7,304.5 4,-0.8 c 0.1,-0.1 0.1,-0.1 0.1,-0.2 l -4.1,-1.1 h 5.2 c 1,-0.7 2.2,-1.1 3.7,-1.1 1.5,0 2.8,0.4 3.7,1.1 h 5.2 l -4.1,1.1 c 0.1,0.1 0.1,0.1 0.1,0.2 l 4,0.8 -3.8,0.8 c 0,0.1 -0.1,0.2 -0.1,0.3 l 3.9,1 h -4.6 c -0.9,1 -2.5,1.6 -4.3,1.6 -1.8,0 -3.4,-0.7 -4.3,-1.6 h -4.6 l 3.9,-1 c -0.1,-0.1 -0.1,-0.2 -0.1,-0.3 z" id="path544" fill="#d4b281" stroke="#754f22" stroke-miterlimit="10"/><path class="st2" d="m 459.3,291.7 c 0,0 -1.9,2.1 0,4.3 v 3.7 h 4.3 4.3 V 296 c 1.9,-2.1 0,-4.3 0,-4.3 0,0 1.9,-2.1 0,-4.3 v -3.7 h -4.3 -4.3 v 3.7 c -1.9,2.1 0,4.3 0,4.3 z m 3.5,1 v -1.1 -1.1 h -2.3 c 0.8,-5.4 3.1,-2.1 3.1,-2.1 0,0 2.3,-3.2 3.1,2.1 h -2.3 v 1.1 1.1 h 2.3 c -0.8,5.4 -3.1,2.1 -3.1,2.1 0,0 -2.3,3.2 -3.1,-2.1 z" id="path546" fill="#d4b281" stroke="#754f22" stroke-miterlimit="10"/><ellipse class="st16" cx="463.6" cy="304.8" rx="3" ry="1.7" id="ellipse548" fill="#4c6292" stroke="#754f22" stroke-miterlimit="10"/><path class="st2" d="m 454.7,331.7 4,-0.8 c 0.1,-0.1 0.1,-0.1 0.1,-0.2 l -4.1,-1.1 h 5.2 c 1,-0.7 2.2,-1.1 3.7,-1.1 1.5,0 2.8,0.4 3.7,1.1 h 5.2 l -4.1,1.1 c 0.1,0.1 0.1,0.1 0.1,0.2 l 4,0.8 -3.8,0.8 c 0,0.1 -0.1,0.2 -0.1,0.3 l 3.9,1 h -4.6 c -0.9,1 -2.5,1.6 -4.3,1.6 -1.8,0 -3.4,-0.7 -4.3,-1.6 h -4.6 l 3.9,-1 c -0.1,-0.1 -0.1,-0.2 -0.1,-0.3 z" id="path550" fill="#d4b281" stroke="#754f22" stroke-miterlimit="10"/><path class="st2" d="m 459.3,318.9 c 0,0 -1.9,2.1 0,4.3 v 3.7 h 4.3 4.3 v -3.7 c 1.9,-2.1 0,-4.3 0,-4.3 0,0 1.9,-2.1 0,-4.3 v -3.7 h -4.3 -4.3 v 3.7 c -1.9,2.2 0,4.3 0,4.3 z m 3.5,1.1 v -1.1 -1.1 h -2.3 c 0.8,-5.4 3.1,-2.1 3.1,-2.1 0,0 2.3,-3.2 3.1,2.1 h -2.3 v 1.1 1.1 h 2.3 c -0.8,5.4 -3.1,2.1 -3.1,2.1 0,0 -2.3,3.2 -3.1,-2.1 z" id="path552" fill="#d4b281" stroke="#754f22" stroke-miterlimit="10"/><path class="st2" d="m 441.3,365 c 0,0 -2.8,-0.2 -3.2,2.7 l -2.8,2.3 2.7,3.4 2.7,3.4 2.8,-2.3 c 2.8,0.2 3.2,-2.7 3.2,-2.7 0,0 2.8,0.2 3.2,-2.7 l 2.8,-2.3 -2.7,-3.4 -2.7,-3.4 -2.8,2.3 c -2.9,-0.3 -3.2,2.7 -3.2,2.7 z m 1.4,3.4 0.8,-0.7 0.8,-0.7 -1.5,-1.9 c 4.5,-2.8 3.6,1.1 3.6,1.1 0,0 3.9,-0.2 0.4,3.9 l -1.5,-1.9 -0.7,0.7 -0.8,0.7 1.5,1.9 c -4.5,2.8 -3.6,-1.1 -3.6,-1.1 0,0 -3.9,0.2 -0.4,-3.9 z" id="path554" fill="#d4b281" stroke="#754f22" stroke-miterlimit="10"/><path class="st2" d="m 416.3,376.7 c 0,0 -2.3,-1.6 -4.1,0.7 l -3.6,0.7 0.7,4.3 0.7,4.3 3.6,-0.7 c 2.3,1.6 4.1,-0.7 4.1,-0.7 0,0 2.3,1.6 4.1,-0.7 l 3.6,-0.7 -0.7,-4.3 -0.7,-4.3 -3.6,0.7 c -2.4,-1.6 -4.1,0.7 -4.1,0.7 z m -0.5,3.8 1,-0.2 1,-0.2 -0.4,-2.4 c 5.2,-0.1 2.6,2.8 2.6,2.8 0,0 3.4,1.9 -1.5,3.6 l -0.4,-2.4 -1,0.2 -1,0.2 0.4,2.4 c -5.2,0.1 -2.6,-2.8 -2.6,-2.8 0,0 -3.4,-1.9 1.5,-3.6 z" id="path556" fill="#d4b281" stroke="#754f22" stroke-miterlimit="10"/><ellipse class="st16" cx="463.6" cy="332" rx="3" ry="1.7" id="ellipse558" fill="#4c6292" stroke="#754f22" stroke-miterlimit="10"/><path class="st2" d="m 426.8,368.4 2.8,3.1 c 0.1,0 0.1,0 0.2,0 l -1.1,-4.2 2.6,4.6 c 1,0.5 2,1.4 2.8,2.8 0.7,1.3 1.1,2.6 1,3.9 l 2.6,4.6 -3,-3.1 c -0.1,0.1 -0.1,0.1 -0.1,0.2 l 1.3,4 -2.6,-3 c -0.1,0 -0.2,0.1 -0.3,0.1 l 1.1,4 -2.3,-4 c -1.3,-0.3 -2.6,-1.4 -3.6,-3.1 -1,-1.6 -1.2,-3.4 -0.8,-4.7 l -2.3,-4 2.8,3 c 0.1,-0.1 0.1,-0.1 0.2,-0.2 z" id="path560" fill="#d4b281" stroke="#754f22" stroke-miterlimit="10"/><ellipse transform="matrix(0.8744,-0.4852,0.4852,0.8744,-128.477,256.4722)" class="st16" cx="431.2" cy="376.4" rx="1.6" ry="3.1" id="ellipse562" fill="#4c6292" stroke="#754f22" stroke-miterlimit="10"/><path class="st4" d="m 363.3,246.2 -4.3,-2 c -0.1,-0.1 -0.1,-0.1 -0.1,-0.2 l 2,-4.3 c 0.1,-0.1 0.1,-0.1 0.2,-0.1 l 4.3,2 c 0.1,0.1 0.1,0.1 0.1,0.2 l -2,4.3 c 0,0.1 0,0.1 -0.2,0.1 z" id="path564" fill="#de5b55" stroke="#754f22" stroke-miterlimit="10"/><path class="st4" d="m 442.8,246.2 4.3,-2 c 0.1,-0.1 0.1,-0.1 0.1,-0.2 l -2,-4.3 c -0.1,-0.1 -0.1,-0.1 -0.2,-0.1 l -4.3,2 c -0.1,0.1 -0.1,0.1 -0.1,0.2 l 2,4.3 c 0,0.1 0.2,0.1 0.2,0.1 z" id="path566" fill="#de5b55" stroke="#754f22" stroke-miterlimit="10"/><path class="st2" d="M 447.5,230.4 C 431.3,219 403,219.7 403,219.7 c 0,0 -28.3,-0.7 -44.6,10.7 0,0 -4.2,6.4 1.8,7.8 l 3.3,8.2 c 6,-2.7 21.4,-4.6 39.5,-4.6 18.1,0 33.5,1.9 39.5,4.6 l 3.3,-8.2 c 5.9,-1.3 1.7,-7.8 1.7,-7.8 z" id="path568" fill="#d4b281" stroke="#754f22" stroke-miterlimit="10"/><path class="st3" d="M 445.7,238.2 C 429.3,228 403,228.7 403,228.7 c 0,0 -26.3,-0.7 -42.7,9.5" id="path570" fill="none" stroke="#754f22" stroke-miterlimit="10"/><path transform="matrix(0.7071,-0.7071,0.7071,0.7071,-48.5431,354.1834)" class="st4" id="rect572" fill="#de5b55" stroke="#754f22" stroke-miterlimit="10" d="M400.7 233.1H405.8V238.2H400.7z"/><path transform="matrix(0.5506,-0.8348,0.8348,0.5506,-25.7199,426.0231)" class="st4" id="rect574" fill="#de5b55" stroke="#754f22" stroke-miterlimit="10" d="M380.2 234.3H385.3V239.4H380.2z"/><circle class="st16" cx="393.1" cy="233.2" r="1.2" id="circle576" fill="#4c6292" stroke="#754f22" stroke-miterlimit="10"/><circle class="st16" cx="393" cy="238.1" r="1.2" id="circle578" fill="#4c6292" stroke="#754f22" stroke-miterlimit="10"/><circle class="st16" cx="371.4" cy="236.9" r="1.2" id="circle580" fill="#4c6292" stroke="#754f22" stroke-miterlimit="10"/><circle class="st16" cx="372.6" cy="241.6" r="1.2" id="circle582" fill="#4c6292" stroke="#754f22" stroke-miterlimit="10"/><path transform="matrix(0.8348,-0.5506,0.5506,0.8348,-60.445,272.2296)" class="st4" id="rect584" fill="#de5b55" stroke="#754f22" stroke-miterlimit="10" d="M420.8 234.3H425.90000000000003V239.4H420.8z"/><circle class="st16" cx="413.1" cy="233.2" r="1.2" id="circle586" fill="#4c6292" stroke="#754f22" stroke-miterlimit="10"/><circle class="st16" cx="413.2" cy="238.1" r="1.2" id="circle588" fill="#4c6292" stroke="#754f22" stroke-miterlimit="10"/><circle class="st16" cx="434.8" cy="236.9" r="1.2" id="circle590" fill="#4c6292" stroke="#754f22" stroke-miterlimit="10"/><circle class="st16" cx="433.7" cy="241.6" r="1.2" id="circle592" fill="#4c6292" stroke="#754f22" stroke-miterlimit="10"/><g id="g686"><ellipse class="st4" cx="403.3" cy="129.7" rx="27.1" ry="23.5" id="ellipse594" fill="#de5b55" stroke="#754f22" stroke-miterlimit="10"/><path class="st2" id="rect596" fill="#d4b281" stroke="#754f22" stroke-miterlimit="10" d="M399.7 108H406.9V137.5H399.7z"/><path class="st2" d="m 399.7,138.7 -9.6,-34.9 c 0,0 -27.1,10.2 -24.1,31.9 l 13.2,7.2 z" id="path598" fill="#d4b281" stroke="#754f22" stroke-miterlimit="10"/><path class="st14" id="polygon600" fill="#fff" stroke="#754f22" stroke-miterlimit="10" d="M407.2 96.2L407.2 93.2 404.7 93.2 404.7 89.8 401.8 89.8 401.8 93.2 399.4 93.2 399.4 96.2 401.8 96.2 401.8 104.5 404.7 104.5 404.7 96.2z"/><circle class="st2" cx="403" cy="105.9" r="6" id="circle602" fill="#d4b281" stroke="#754f22" stroke-miterlimit="10"/><path class="st2" id="polygon604" fill="#d4b281" stroke="#754f22" stroke-miterlimit="10" d="M401.5 103.8L396 103.8 396 107.4 410.5 107.4 410.5 103.8 405.1 103.8 405.1 98.4 401.5 98.4z"/><path transform="matrix(0.8348,-0.5506,0.5506,0.8348,-4.3306,230.1494)" class="st2" id="rect606" fill="#d4b281" stroke="#754f22" stroke-miterlimit="10" d="M377.7 108.4H384.9V136.20000000000002H377.7z"/><path class="st2" d="m 388,128.1 c -0.2,-3.1 -3.7,-2.1 -3.7,-2.1 0,0 -3.5,1 -2.1,3.7 0,0 -6.3,6.7 2.5,9.3 l 3.2,0.4 2.6,-1.9 c 6.3,-6.7 -2.5,-9.4 -2.5,-9.4 z" id="path608" fill="#d4b281" stroke="#754f22" stroke-miterlimit="10"/><path class="st2" d="m 378,142.7 -15,-6.4 c 0,0 1.1,-3.7 4.7,-1.3 0,0.1 10.3,-5 10.3,7.7 z" id="path610" fill="#d4b281" stroke="#754f22" stroke-miterlimit="10"/><circle class="st14" cx="385.2" cy="130.3" r="1.8" id="circle612" fill="#fff" stroke="#754f22" stroke-miterlimit="10"/><circle class="st14" cx="376.8" cy="115.2" r="1.8" id="circle614" fill="#fff" stroke="#754f22" stroke-miterlimit="10"/><circle class="st14" cx="403.3" cy="115.2" r="1.8" id="circle616" fill="#fff" stroke="#754f22" stroke-miterlimit="10"/><circle class="st14" cx="403.3" cy="120.6" r="1.8" id="circle618" fill="#fff" stroke="#754f22" stroke-miterlimit="10"/><circle class="st14" cx="381" cy="122.5" r="1.8" id="circle620" fill="#fff" stroke="#754f22" stroke-miterlimit="10"/><circle class="st14" cx="366.5" cy="138.1" r="1.8" id="circle622" fill="#fff" stroke="#754f22" stroke-miterlimit="10"/><circle class="st14" cx="372.6" cy="140.5" r="1.8" id="circle624" fill="#fff" stroke="#754f22" stroke-miterlimit="10"/><circle class="st14" cx="386.4" cy="135.1" r="1.8" id="circle626" fill="#fff" stroke="#754f22" stroke-miterlimit="10"/><path class="st2" d="m 406.9,138.7 9.6,-34.9 c 0,0 27.1,10.2 24.1,31.9 l -13.2,7.2 z" id="path628" fill="#d4b281" stroke="#754f22" stroke-miterlimit="10"/><path transform="matrix(0.5506,-0.8348,0.8348,0.5506,89.0836,409.9434)" class="st2" id="rect630" fill="#d4b281" stroke="#754f22" stroke-miterlimit="10" d="M411.4 118.6H439.2V125.8H411.4z"/><path class="st2" d="m 418.6,128.1 c 0.2,-3.1 3.7,-2.1 3.7,-2.1 0,0 3.5,1 2.1,3.7 0,0 6.3,6.7 -2.5,9.3 l -3.2,0.4 -2.6,-1.9 c -6.4,-6.7 2.5,-9.4 2.5,-9.4 z" id="path632" fill="#d4b281" stroke="#754f22" stroke-miterlimit="10"/><circle class="st14" cx="421.3" cy="130.3" r="1.8" id="circle634" fill="#fff" stroke="#754f22" stroke-miterlimit="10"/><circle class="st14" cx="429.8" cy="115.2" r="1.8" id="circle636" fill="#fff" stroke="#754f22" stroke-miterlimit="10"/><circle class="st14" cx="425.5" cy="122.5" r="1.8" id="circle638" fill="#fff" stroke="#754f22" stroke-miterlimit="10"/><circle class="st14" cx="420.1" cy="135.1" r="1.8" id="circle640" fill="#fff" stroke="#754f22" stroke-miterlimit="10"/><path class="st2" d="m 407,127 c 0.8,-3 -3.8,-3 -3.8,-3 0,0 -4.6,0 -3.8,3 0,0 -9.9,4.8 0,9.6 l 3.8,1.2 3.8,-1.2 c 9.9,-4.8 0,-9.6 0,-9.6 z" id="path642" fill="#d4b281" stroke="#754f22" stroke-miterlimit="10"/><path class="st2" d="m 428.8,142.7 15,-6.4 c 0,0 -1.1,-3.7 -4.7,-1.3 -0.1,0.1 -10.4,-5 -10.3,7.7 z" id="path644" fill="#d4b281" stroke="#754f22" stroke-miterlimit="10"/><circle class="st16" cx="397.1" cy="143.5" r=".7" id="circle646" fill="#4c6292" stroke="#754f22" stroke-miterlimit="10"/><circle class="st16" cx="409" cy="143.5" r=".7" id="circle648" fill="#4c6292" stroke="#754f22" stroke-miterlimit="10"/><ellipse class="st5" cx="403" cy="150.7" rx="23.9" ry="6.1" id="ellipse650" fill="#42403e" stroke="#754f22" stroke-miterlimit="10"/><path class="st4" d="m 379.2,151.2 -2.4,-1.1 c -0.1,-0.1 -0.1,-0.1 -0.1,-0.2 l 1.1,-2.4 c 0.1,-0.1 0.1,-0.1 0.2,-0.1 l 2.4,1.1 c 0.1,0.1 0.1,0.1 0.1,0.2 l -1.1,2.4 c 0.1,0.1 0,0.1 -0.2,0.1 z" id="path652" fill="#de5b55" stroke="#754f22" stroke-miterlimit="10"/><path class="st4" d="m 426.8,151.2 2.4,-1.1 c 0.1,-0.1 0.1,-0.1 0.1,-0.2 l -1.1,-2.4 c -0.1,-0.1 -0.1,-0.1 -0.2,-0.1 l -2.4,1.1 c -0.1,0.1 -0.1,0.1 -0.1,0.2 l 1.1,2.4 c 0,0.1 0.1,0.1 0.2,0.1 z" id="path654" fill="#de5b55" stroke="#754f22" stroke-miterlimit="10"/><path class="st2" d="m 429.6,141.8 c -9.8,-6.8 -26.6,-6.4 -26.6,-6.4 0,0 -16.9,-0.4 -26.6,6.4 0,0 -2.5,3.9 1.1,4.7 l 1.9,4.9 c 3.6,-1.6 12.8,-2.8 23.6,-2.8 10.8,0 20,1.1 23.6,2.8 l 1.9,-4.9 c 3.5,-0.9 1.1,-4.7 1.1,-4.7 z" id="path656" fill="#d4b281" stroke="#754f22" stroke-miterlimit="10"/><path class="st3" d="m 428.5,146.5 c -9.8,-6.1 -25.5,-5.7 -25.5,-5.7 0,0 -15.7,-0.4 -25.5,5.7" id="path658" fill="none" stroke="#754f22" stroke-miterlimit="10"/><path transform="matrix(0.7071,-0.7071,0.7071,0.7071,15.5821,327.5253)" class="st4" id="rect660" fill="#de5b55" stroke="#754f22" stroke-miterlimit="10" d="M401.6 143.4H404.70000000000005V146.5H401.6z"/><path transform="matrix(0.5506,-0.8348,0.8348,0.5506,54.0883,391.813)" class="st4" id="rect662" fill="#de5b55" stroke="#754f22" stroke-miterlimit="10" d="M389.4 144.1H392.5V147.2H389.4z"/><circle class="st16" cx="397" cy="146.4" r=".7" id="circle664" fill="#4c6292" stroke="#754f22" stroke-miterlimit="10"/><circle class="st16" cx="384.1" cy="145.7" r=".7" id="circle666" fill="#4c6292" stroke="#754f22" stroke-miterlimit="10"/><circle class="st16" cx="384.8" cy="148.5" r=".7" id="circle668" fill="#4c6292" stroke="#754f22" stroke-miterlimit="10"/><path transform="matrix(0.8348,-0.5506,0.5506,0.8348,-11.5828,252.6252)" class="st4" id="rect670" fill="#de5b55" stroke="#754f22" stroke-miterlimit="10" d="M413.6 144.1H416.70000000000005V147.2H413.6z"/><circle class="st16" cx="409" cy="146.4" r=".7" id="circle672" fill="#4c6292" stroke="#754f22" stroke-miterlimit="10"/><circle class="st16" cx="422" cy="145.7" r=".7" id="circle674" fill="#4c6292" stroke="#754f22" stroke-miterlimit="10"/><circle class="st16" cx="421.3" cy="148.5" r=".7" id="circle676" fill="#4c6292" stroke="#754f22" stroke-miterlimit="10"/><circle class="st14" cx="403.3" cy="127.9" r="1.8" id="circle678" fill="#fff" stroke="#754f22" stroke-miterlimit="10"/><circle class="st14" cx="403.3" cy="133.3" r="1.8" id="circle680" fill="#fff" stroke="#754f22" stroke-miterlimit="10"/><circle class="st14" cx="440" cy="138.1" r="1.8" id="circle682" fill="#fff" stroke="#754f22" stroke-miterlimit="10"/><circle class="st14" cx="434" cy="140.5" r="1.8" id="circle684" fill="#fff" stroke="#754f22" stroke-miterlimit="10"/></g><path class="st5" d="m 457.5,350 c 0,0 1.8,3 4.2,5.4 0,0 -1.8,1.8 -6,1.8 0,0 1.8,3 5.4,1.8 0,0 -1.2,4.8 -5.4,4.8" id="path688" fill="#42403e" stroke="#754f22" stroke-miterlimit="10"/><path class="st2" d="m 456.6,343.9 c 0,0 -2.6,1.2 -1.6,4 l -1.4,3.5 4,1.7 4,1.7 1.4,-3.5 c 2.6,-1.2 1.6,-4 1.6,-4 0,0 2.6,-1.2 1.6,-4 l 1.4,-3.5 -4,-1.7 -4,-1.7 -1.4,3.5 c -2.7,1.3 -1.6,4 -1.6,4 z m 2.8,2.4 0.4,-1 0.4,-1 -2.2,-0.9 c 2.6,-4.6 3.7,-0.8 3.7,-0.8 0,0 3.3,-2 2.1,3.2 l -2.2,-0.9 -0.4,1 -0.4,1 2.2,0.9 c -2.6,4.6 -3.7,0.8 -3.7,0.8 0,0 -3.3,2 -2.1,-3.2 z" id="path690" fill="#d4b281" stroke="#754f22" stroke-miterlimit="10"/><path class="st2" d="m 446.6,352.6 3.8,1.7 c 0.1,-0.1 0.1,-0.1 0.2,-0.1 l -2.8,-3.3 4.3,3.1 c 1.1,0 2.4,0.4 3.6,1.3 1.2,0.9 2,2 2.5,3.1 l 4.3,3.1 -4,-1.5 c 0,0.1 0,0.1 0,0.2 l 2.8,3.1 -3.6,-1.6 c -0.1,0.1 -0.1,0.1 -0.2,0.2 l 2.6,3.1 -3.7,-2.7 c -1.3,0.2 -3,-0.2 -4.5,-1.3 -1.5,-1.1 -2.5,-2.5 -2.6,-3.9 l -3.7,-2.7 3.8,1.4 c 0,-0.1 0.1,-0.2 0.1,-0.3 z" id="path692" fill="#d4b281" stroke="#754f22" stroke-miterlimit="10"/><ellipse transform="matrix(0.593,-0.8052,0.8052,0.593,-103.5882,511.0947)" class="st16" cx="453.8" cy="358" rx="1.7" ry="3.1" id="ellipse694" fill="#4c6292" stroke="#754f22" stroke-miterlimit="10"/><ellipse transform="matrix(0.4338,-0.901,0.901,0.4338,12.5842,363.6678)" class="st4" cx="295.7" cy="171.8" rx="3.7" ry="2" id="ellipse696" fill="#de5b55" stroke="#754f22" stroke-miterlimit="10"/><path class="st3" id="line698" fill="none" stroke="#754f22" stroke-miterlimit="10" d="M511.1 179.7L514.1 189"/><path class="st2" d="m 306.4,349.1 v 0 c -1.6,0.2 -3.1,-1 -3.3,-2.6 l -2.2,-20.4 c -0.2,-1.6 1,-3.1 2.6,-3.3 v 0 c 1.6,-0.2 3.1,1 3.3,2.6 l 2.2,20.4 c 0.3,1.7 -0.9,3.2 -2.6,3.3 z" id="path700" fill="#d4b281" stroke="#754f22" stroke-miterlimit="10"/><path class="st2" d="m 306.4,316.8 -4.5,-41.7 -6.9,0.7 4.5,41.7 c -1.9,2.2 -2.8,6 -2.3,10.2 0.7,6.3 4.3,11 8.1,10.7 3.8,-0.4 6.3,-5.8 5.7,-12.1 -0.5,-4.2 -2.3,-7.7 -4.6,-9.5 z" id="path702" fill="#d4b281" stroke="#754f22" stroke-miterlimit="10"/><path class="st2" d="m 344,358.2 c 0,0 -4.2,7.2 -12.6,7.2 0,0 -2.4,3 -8.4,3 0,0 -4.2,4.2 -8.4,4.2 l -11.6,-10.2 -0.6,-3.6 c 0,0 7.2,-3.6 13.2,-1.8 0,0 5.4,-2.4 10.2,-1.2 0,0 4.8,-3 8.4,-1.2 0,0 4.8,-3 7.8,-0.6 0.2,0 3.2,1.8 2,4.2 z" id="path704" fill="#d4b281" stroke="#754f22" stroke-miterlimit="10"/><g id="g722"><path class="st14" id="polygon706" fill="#fff" stroke="#754f22" stroke-miterlimit="10" d="M265.8 246.5L257.7 234.8 259.7 249 300 352.4 303.1 351.2 306.2 350z"/><path class="st3" id="line708" fill="none" stroke="#754f22" stroke-miterlimit="10" d="M303.2 351.6L262.6 247.4"/><path transform="matrix(0.9317,-0.3633,0.3633,0.9317,-111.3492,136.892)" class="st2" id="rect710" fill="#d4b281" stroke="#754f22" stroke-miterlimit="10" d="M305.9 350.6H310.7V378.40000000000003H305.9z"/><path class="st2" id="polygon712" fill="#d4b281" stroke="#754f22" stroke-miterlimit="10" d="M293.7 357.9L292.2 364 304.3 355.2 303 351.6 301.6 348.1 286.7 349.8 291.9 353.2 289.5 356.9z"/><path class="st2" id="polygon714" fill="#d4b281" stroke="#754f22" stroke-miterlimit="10" d="M314.8 349.7L320 353.1 305.2 354.9 303.8 351.3 302.4 347.8 314.5 339 312.9 345 317.2 346.1z"/><ellipse transform="matrix(0.9317,-0.3633,0.3633,0.9317,-115.6949,139.6087)" class="st2" cx="313.3" cy="377.4" rx="4.8" ry="5.3" id="ellipse716" fill="#d4b281" stroke="#754f22" stroke-miterlimit="10"/><path transform="matrix(0.9317,-0.3633,0.3633,0.9317,-107.0034,134.1754)" class="st2" id="rect718" fill="#d4b281" stroke="#754f22" stroke-miterlimit="10" d="M296.6 346.3H309.8V356.90000000000003H296.6z"/><path transform="matrix(0.9317,-0.3633,0.3633,0.9317,-106.994,134.1695)" class="st2" id="rect720" fill="#d4b281" stroke="#754f22" stroke-miterlimit="10" d="M300.2 347.8H306.2V355.2H300.2z"/></g><ellipse transform="matrix(0.3988,-0.917,0.917,0.3988,-141.0338,500.0094)" class="st2" cx="310.8" cy="357.6" rx="3.9" ry="3.3" id="ellipse724" fill="#d4b281" stroke="#754f22" stroke-miterlimit="10"/><path class="st2" d="m 312.2,369.7 c 0.6,-0.5 1,-1.2 1,-1.9 0,-1.7 -2,-3.1 -4.8,-3.5 1.1,-0.7 1.8,-1.6 1.8,-2.5 0,-2 -2.8,-3.6 -6.3,-3.6 0.7,-0.8 0.8,-1.9 0.4,-2.6 -0.7,-1.3 -2.8,-1.6 -4.7,-0.7 -1.9,1 -3,2.8 -2.3,4.2 0.2,0.4 0.6,0.8 1.1,1 -0.5,0.5 -0.8,1.1 -0.8,1.8 0,1.7 2,3.1 4.8,3.5 -1.1,0.7 -1.8,1.6 -1.8,2.5 0,1.7 1.9,3.1 4.6,3.5 -0.6,0.5 -1,1.2 -1,1.9 0,2 2.8,3.6 6.3,3.6 3.5,0 6.3,-1.6 6.3,-3.6 0.1,-1.8 -1.9,-3.1 -4.6,-3.6 z" id="path726" fill="#d4b281" stroke="#754f22" stroke-miterlimit="10"/><path class="st2" d="m 307.4,355.9 c 0,0 -2.3,-2.5 -4.8,-0.2 0,0 -0.7,1.7 0.5,1.8 1.2,0.1 1.9,-1.7 4.3,-1.6 z" id="path728" fill="#d4b281" stroke="#754f22" stroke-miterlimit="10"/><path class="st2" d="m 312.8,361.3 c 0,0 -2.3,-2.5 -4.8,-0.2 0,0 -0.7,1.7 0.5,1.8 1.2,0.1 1.9,-1.7 4.3,-1.6 z" id="path730" fill="#d4b281" stroke="#754f22" stroke-miterlimit="10"/><path class="st2" d="m 315.2,367.3 c 0,0 -2.3,-2.5 -4.8,-0.2 0,0 -0.7,1.7 0.5,1.8 1.2,0.1 1.9,-1.7 4.3,-1.6 z" id="path732" fill="#d4b281" stroke="#754f22" stroke-miterlimit="10"/><path class="st2" d="m 319.5,372.1 c 0,0 -2.3,-2.5 -4.8,-0.2 0,0 -0.7,1.7 0.5,1.8 1.1,0.1 1.8,-1.7 4.3,-1.6 z" id="path734" fill="#d4b281" stroke="#754f22" stroke-miterlimit="10"/><path class="st5" d="m 343.1,348.2 c 0,0 -1.8,3 -4.2,5.4 0,0 1.8,1.8 6,1.8 0,0 -1.8,3 -5.4,1.8 0,0 1.2,4.8 5.4,4.8" id="path736" fill="#42403e" stroke="#754f22" stroke-miterlimit="10"/><path class="st2" d="m 347.4,339.9 -1.4,-3.5 -4,1.7 -4,1.7 1.4,3.5 c -1,2.7 1.6,4 1.6,4 0,0 -1,2.7 1.6,4 l 1.4,3.5 4,-1.7 4,-1.7 -1.4,-3.5 c 1,-2.7 -1.6,-4 -1.6,-4 0,0 1,-2.7 -1.6,-4 z m 0.9,5.5 c 1.2,5.2 -2.1,3.2 -2.1,3.2 0,0 -1,3.9 -3.7,-0.8 l 2.2,-0.9 -0.4,-1 -0.4,-1 -2.2,0.9 c -1.2,-5.2 2.1,-3.2 2.1,-3.2 0,0 1,-3.9 3.7,0.8 l -2.2,0.9 0.4,1 0.4,1 z" id="path738" fill="#d4b281" stroke="#754f22" stroke-miterlimit="10"/><path class="st2" d="m 358.9,352.6 -3.8,1.7 c -0.1,-0.1 -0.1,-0.1 -0.2,-0.1 l 2.8,-3.3 -4.3,3.1 c -1.1,0 -2.4,0.4 -3.6,1.3 -1.2,0.8 -2,2 -2.5,3.1 l -4.3,3.1 4,-1.5 c 0,0.1 0,0.1 0,0.2 l -2.8,3.1 3.6,-1.6 c 0.1,0.1 0.1,0.1 0.2,0.2 l -2.6,3.1 3.7,-2.7 c 1.3,0.2 3,-0.2 4.5,-1.3 1.5,-1.1 2.5,-2.5 2.6,-3.9 l 3.7,-2.7 -3.8,1.4 c 0,-0.1 -0.1,-0.2 -0.1,-0.3 z" id="path740" fill="#d4b281" stroke="#754f22" stroke-miterlimit="10"/><ellipse transform="matrix(0.8052,-0.593,0.593,0.8052,-143.7878,278.3076)" class="st16" cx="351.7" cy="358" rx="3.1" ry="1.7" id="ellipse742" fill="#4c6292" stroke="#754f22" stroke-miterlimit="10"/><path class="st2" d="m 300.2,263.9 -1,-9.1 c -0.2,-1.6 -1.7,-2.8 -3.3,-2.6 -1.6,0.2 -2.8,1.7 -2.6,3.3 l 1,9.1 c -1.6,1.9 -2.5,5.1 -2.1,8.6 0.6,5.3 3.7,9.3 7,8.9 3.3,-0.4 5.5,-4.9 4.9,-10.2 -0.4,-3.6 -1.9,-6.5 -3.9,-8 z" id="path744" fill="#d4b281" stroke="#754f22" stroke-miterlimit="10"/><path class="st2" d="m 296.6,248.1 -1.3,-1 -1,1.3 c -1.7,0.7 -2.8,2.5 -2.6,4.3 0.2,2.3 2.3,4 4.6,3.7 2.3,-0.3 4,-2.3 3.7,-4.6 -0.1,-2 -1.6,-3.4 -3.4,-3.7 z" id="path746" fill="#d4b281" stroke="#754f22" stroke-miterlimit="10"/></g></g></svg>