<?xml version="1.0" encoding="UTF-8" standalone="no"?>
<!-- Created with Inkscape (http://www.inkscape.org/) -->
<svg
	width="900"
	height="600"
	xmlns="http://www.w3.org/2000/svg"
	id="Flag_of_Steiermark_state">
	<rect height="300" width="900" fill="#006600" x="0" y="300" />
	<rect height="300" width="900" fill="white" x="0" y="0" />
  <g
     transform="matrix(1.02948,0,0,1.02948,-13.26599,6.994138)"
     id="g2566">
    <g
       transform="translate(341.0917,90.34325)"
       id="g2190">
      <path
         d="M 3.711,119.833 C 3.615,120.729 -22.747,316.445 109.132,387.045 C 241.019,316.445 214.083,121.25 213.995,120.353 C 213.926,119.457 3.786,118.925 3.711,119.833 L 3.711,119.833 z "
         style="fill:#006600;fill-rule:evenodd;stroke:black;stroke-width:3;stroke-linejoin:round;stroke-miterlimit:2.61310005"
         id="Schild" />
      <g
         id="Panther">
        <path
           d="M 199.416,262.217 C 196.623,264.899 189.584,264.983 188.504,261.459 C 188.102,260.135 187.209,258.738 188.504,257.926 C 191.02,256.307 193.787,257.381 196.182,255.668 C 200.012,252.863 201.457,249.176 200.012,245.039 C 198.766,241.443 193.192,245.547 188.793,245.547 C 186.637,245.547 185.26,246.078 183.189,245.547 C 180.38,244.826 180.437,242.32 179.359,239.981 C 178.619,238.348 177.328,235.572 179.359,235.439 C 181.863,235.3 183.341,235.3 185.859,234.945 C 189.912,234.365 192.605,232.91 194.707,229.884 C 197.687,225.64 195.918,220.284 191.152,217.507 C 188.578,219.73 188.771,222.21 186.148,224.316 C 183.3,226.632 179.982,226.076 176.123,225.591 C 173.715,225.31 171.904,226.005 169.91,224.835 C 167.672,223.511 168.07,221.419 166.98,219.28 C 165.929,217.257 164.306,216.217 164.306,213.96 C 173.529,213.96 179.87,216.843 187.913,212.954 C 192.196,210.909 193.966,208.473 195.89,204.63 C 197.513,201.368 196.511,197.549 192.941,195.776 C 190.978,194.806 188.295,194.676 187.035,196.285 C 185.93,197.715 187.103,199.489 185.549,200.588 C 182.125,203.047 178.842,202.539 174.338,202.859 C 170.881,203.082 168.738,202.859 165.486,201.84 C 163.537,201.237 161.875,202.101 160.187,201.071 C 157.367,199.393 157.367,195.952 159.287,193.518 C 164.601,195.254 168.293,193.977 173.758,195.291 C 180.549,196.887 186.11,196.129 191.461,192.252 C 196.291,188.739 197.106,184.543 196.762,179.106 C 196.485,174.199 189.395,171.929 183.785,173.053 C 183.785,175.037 186.148,175.512 187.035,177.344 C 188.221,179.708 187.914,182.31 185.549,183.906 C 181.434,186.732 177.141,184.602 171.973,183.656 C 168.696,183.066 166.598,183.373 163.418,182.404 C 161.363,181.766 159.191,182.865 157.811,181.388 C 156.268,179.685 157.858,177.853 158.704,175.82 C 159.774,173.265 159.952,171.657 160.768,169.009 C 162.243,164.222 164.229,161.302 168.739,158.146 C 172.653,155.391 177.329,159.328 180.841,162.449 C 185.55,166.67 192.267,167.615 198.247,164.707 C 201.417,163.17 204.071,160.924 203.261,157.897 C 199.681,157.897 197.536,158.973 194.105,158.146 C 194.302,155.568 198.685,155.664 199.142,153.097 C 199.542,150.792 195.593,150.734 192.943,150.318 C 186.769,149.373 183.58,147.045 177.295,147.045 C 171.09,147.045 167.01,148.415 162.541,152.094 C 160.078,154.115 159.375,155.84 157.236,158.147 C 155.347,160.157 155.857,163.833 152.804,163.703 C 152.804,159.151 153.095,156.634 152.804,152.095 C 152.691,150.015 150.466,147.353 152.804,146.786 C 155.382,146.146 156.894,145.77 159.593,145.77 C 161.364,145.77 163.093,146.277 164.019,145.012 C 164.503,144.314 163.578,143.725 163.136,142.991 C 161.835,140.909 160.355,140.024 158.115,138.7 C 155.611,137.245 153.467,137.588 150.744,136.43 C 148.514,135.472 149.996,133.167 149.558,131.133 C 148.749,127.422 141.888,122.764 139.822,126.074 C 138.529,128.178 139.619,129.916 138.636,132.126 C 137.751,134.065 133.941,133.745 132.441,132.126 C 130.269,129.856 135.652,128.39 137.752,126.074 C 138.779,124.891 136.662,123.639 135.106,123.035 C 130.229,121.119 126.059,123.509 121.817,126.322 C 120.006,127.516 118.417,128.604 116.217,128.095 C 113.518,127.458 111.404,125.472 109.127,126.831 C 104.778,129.431 102.786,131.784 97.917,133.64 C 92.979,135.543 89.763,136.168 84.354,136.43 C 81.803,136.525 79.727,137.079 78.442,138.959 C 77.251,140.649 74.565,138.438 72.823,137.186 C 65.079,131.477 57.415,129.265 47.457,131.381 C 43.104,132.292 40.085,140.283 44.508,140.969 C 46.281,141.253 47.167,139.965 48.937,139.715 C 52.462,139.195 56.931,138.036 58.08,140.969 C 53.793,142.672 49.857,142.21 47.168,145.521 C 44.85,148.393 44.85,154.209 48.938,154.352 C 48.938,157.698 47.499,161.94 51.29,162.697 C 53.178,163.077 53.393,160.606 55.128,159.907 C 56.976,159.151 58.372,159.413 60.446,159.413 L 60.446,160.157 C 57.486,161.718 57.306,164.116 54.842,166.233 C 53.836,167.084 52.699,165.44 51.594,164.708 C 50,163.667 48.676,163.254 47.458,161.94 C 43.184,157.331 43.916,152.967 43.916,147.045 C 43.916,141.832 36.977,136.713 31.535,138.959 C 28.601,140.141 32.856,144.029 30.641,146.016 C 28.312,148.11 25.477,144.694 22.074,144.764 C 15.655,144.893 11.498,150.698 12.336,156.125 C 12.529,157.45 12.529,158.631 13.816,159.412 C 15.434,160.391 16.734,156.974 18.546,157.637 C 19.606,158.017 19.112,159.293 20.014,159.907 C 20.859,160.511 21.91,159.813 22.96,160.157 C 23.925,160.487 23.407,161.681 22.96,162.45 C 19.929,167.332 18.275,173.811 23.856,176.589 C 25.504,177.417 26.764,175.585 28.269,174.567 C 31.12,172.675 33.438,172.51 36.832,171.542 C 37.787,171.281 38.197,170.406 39.196,170.523 C 38.234,172.996 37.861,174.509 38.009,177.086 C 38.158,179.688 34.03,181.259 35.642,183.411 C 38.605,187.289 46.092,185.244 49.521,181.639 C 51.287,183.471 50.084,185.362 50.697,187.702 C 51.217,189.594 52.843,190.232 54.242,191.746 C 56.01,193.636 56.461,195.092 58.078,197.043 C 59.184,198.4 61.469,198.981 61.038,200.588 C 58.272,200.588 54.648,200.022 54.242,202.349 C 53.763,205.092 55.388,207.114 58.078,208.673 C 59.51,209.478 60.887,209.832 61.611,211.194 C 62.283,212.397 60.487,213.155 59.556,214.232 C 57.704,216.3 56.817,217.849 54.242,219.281 C 48.893,222.283 45.574,223.689 40.381,226.857 C 37.135,228.81 34.481,230.888 30.64,229.884 C 28.393,229.282 28.311,227.198 26.215,226.347 C 23.469,225.249 21.189,226.419 18.545,227.613 C 15.516,228.974 16.293,231.847 15.289,234.672 C 14.395,237.214 14.561,239.011 15.586,241.505 C 16.514,243.704 19.902,240.878 22.666,240.997 C 24.285,241.067 23.545,243.243 22.959,244.542 C 21.41,247.911 19.928,250.784 22.072,253.882 C 23.291,255.62 27.426,257.345 27.979,255.394 C 28.712,252.843 31.664,251.861 34.763,251.861 C 34.763,253.256 34.175,254.132 34.763,255.394 C 35.326,256.566 37.266,256.246 38.605,255.669 C 41.437,254.343 42.91,252.864 44.21,250.335 C 45.317,248.124 46.748,246.624 45.981,244.284 C 45.129,241.764 42.985,238.124 45.981,237.473 C 47.267,239.577 47.01,241.184 48.346,243.278 C 49.558,245.169 52.909,244.165 54.838,242.77 C 56.16,241.811 55.49,240.405 56.008,238.987 C 57.121,235.925 59.624,233.668 63.389,233.668 C 63.789,237.368 66.334,242.071 70.471,240.997 C 72.214,240.559 70.998,238.503 70.762,236.966 C 70.471,235.026 71.355,233.172 73.432,232.414 C 78.134,239.163 82.049,242.77 89.953,246.811 C 93.252,248.514 95.119,249.52 98.496,251.104 C 100.391,251.991 102.34,251.588 103.522,253.125 C 103.93,253.656 102.935,254.07 102.638,254.637 C 101.825,256.127 103.289,257.264 103.232,258.93 C 96.654,258.93 92.976,258.174 86.39,258.174 C 80.181,258.174 77.329,261.328 71.644,263.481 C 66.568,265.395 65.863,269.227 63.089,273.317 C 59.668,278.448 56.381,282.36 49.519,283.188 C 49.519,287.432 55.158,289.241 60.138,289.241 C 60.65,293.829 57.523,293.614 62.212,300.862 C 64.66,304.643 69.868,302.622 74.896,303.38 C 79.654,304.114 79.417,309.859 77.857,313.735 C 76.115,317.944 76.599,323.747 71.354,323.854 C 68.81,323.879 67.148,324.788 64.869,323.854 C 63.609,323.336 63.789,322.118 62.801,321.327 C 61.543,320.309 60.069,320.876 58.367,320.569 C 55.56,320.024 53.789,321.561 51.59,323.087 C 49.812,324.317 47.965,324.54 47.164,326.374 C 45.391,330.323 53.762,331.493 53.65,335.724 C 53.581,338.62 54.132,341.283 57.19,342.546 C 58.963,343.267 60.068,341.362 61.908,340.773 C 63.609,343.55 62.752,345.726 64.267,348.597 C 65.823,351.542 69.369,353.658 72.82,352.394 C 74.607,351.755 73.159,349.734 73.431,348.089 C 73.638,346.577 74.378,345.761 74.896,344.308 C 76.042,341.234 76.32,338.869 79.324,336.99 C 81.316,339.049 84.676,339.414 87.292,337.996 C 89.477,336.824 89.318,334.898 90.543,332.935 C 93.086,328.808 90.645,321.833 96.143,321.833 C 96.143,323.786 95.149,324.954 95.557,326.88 C 95.88,328.419 98.764,326.526 99.989,325.359 C 101.524,323.855 102.639,322.957 103.523,321.066 C 104.408,319.199 103.752,317.084 105.88,316.279 C 107.943,315.474 105.764,313.17 105.88,311.207 C 105.998,309.326 108.539,308.818 108.539,306.928 C 108.539,302.756 107.615,299.918 104.407,296.821 C 101.336,293.866 98.73,291.772 94.068,291.772 C 92.683,291.772 90.832,291.17 91.122,289.999 C 91.785,287.411 95.398,287.991 97.914,286.464 C 100.357,284.987 101.039,283.155 103.808,282.175 C 109.975,279.962 114.264,282.386 120.93,282.669 C 120.93,284.669 119.117,285.425 117.696,286.972 C 114.362,290.544 111.483,292.755 111.194,297.329 C 110.792,303.866 107.79,307.626 109.43,314.009 C 110.905,319.874 107.763,324.034 110.905,329.415 C 112.149,331.577 118.469,332.618 118.268,330.181 C 118.055,327.095 119.008,325.406 119.155,322.333 C 120.6,323.575 119.909,325.146 120.93,326.636 C 121.963,328.115 124.696,329.509 125.94,328.136 C 127.348,326.636 124.764,324.271 126.54,323.089 C 128.243,321.954 130.642,322.296 132.147,323.597 C 134.764,325.833 133.629,328.48 133.629,331.683 C 133.629,336.128 132.147,338.73 129.488,342.548 C 127.281,345.704 125.535,348.849 121.222,348.849 C 117.093,348.849 114.001,347.111 110.597,349.109 C 107.14,351.132 104.624,352.396 102.935,355.672 C 102.014,357.469 101.855,359.654 103.807,360.729 C 105.622,361.713 107.251,360.729 109.429,360.729 C 109.429,365.282 107.834,368.641 110.904,372.35 C 113.552,375.567 118.414,370.993 121.814,368.297 C 123.884,369.893 124.955,371.524 127.722,371.844 C 129.63,372.067 130.89,370.449 131.261,368.803 C 132.247,364.549 131.99,362.02 132.722,357.703 C 134.986,359.064 135.753,362.279 138.339,361.486 C 141.112,360.623 141.886,358.709 143.062,356.425 C 144.322,354.029 144.861,352.005 143.656,349.605 C 142.58,347.525 146.238,346.673 147.781,344.804 C 150.295,341.779 151.549,339.816 152.802,336.222 C 153.618,333.859 153.423,331.495 156.036,330.419 C 157.407,329.886 158.782,330.23 159.591,329.153 C 160.548,327.924 158.298,325.868 159.874,325.36 C 161.679,324.755 162.938,325.36 164.903,325.36 C 164.903,321.422 164.186,318.159 167.551,315.51 C 168.582,314.719 167.739,312.768 166.369,312.485 C 163.449,311.846 161.721,313.737 158.701,313.737 C 159.84,310.274 164.226,309.706 168.443,309.706 C 168.851,307.06 168,304.599 165.191,303.382 C 162.357,302.189 160.429,305.155 157.232,305.155 C 154.474,305.155 152.912,304.423 150.433,303.382 C 148.829,302.685 147.613,304.138 146.007,304.907 C 144.54,305.604 143.245,305.391 141.884,306.173 C 139.105,304.021 140.474,300.083 143.349,298.085 C 144.244,297.483 144.652,296.231 145.716,296.573 C 147.445,297.139 146.894,299.35 148.663,299.858 C 149.884,300.202 150.515,298.805 151.028,297.837 C 151.913,296.171 151.278,294.587 152.799,293.298 C 153.94,292.306 156.033,295.179 156.918,294.044 C 159.283,290.981 157.701,286.937 161.65,285.46 C 165.416,290.851 172.093,293.511 179.058,291.513 C 183.863,290.165 186.037,287.292 187.613,283.191 C 188.291,281.418 188.658,280.365 189.39,278.638 C 190.201,276.736 188.872,274.597 190.857,273.579 C 192.398,272.798 193.742,273.71 195.587,273.579 C 200.967,273.209 203.893,264.747 199.416,262.217 z M 166.662,236.965 C 168.363,236.516 168.81,238.703 169.619,239.981 C 171.432,242.805 174.264,244.827 172.857,247.817 C 172.234,249.176 170.48,249.344 168.738,249.344 C 163.092,248.668 161.254,238.383 166.662,236.965 z M 154.564,214.99 C 157.527,215.39 157.253,218.369 158.113,220.804 C 158.992,223.275 160.767,224.493 160.767,227.117 C 157.642,227.613 156.037,229.092 153.988,231.15 C 152.427,232.699 149.3,230.357 148.666,228.371 C 147.572,224.943 147.635,222.283 149.855,219.281 C 151.281,217.341 153.215,216.939 154.564,214.99 z M 146.604,202.61 C 146.604,200.151 147.973,198.851 149.557,196.794 C 150.465,198.401 152.207,199.819 151.032,201.347 C 150.061,202.61 148.418,202.728 146.604,202.61 z M 151.322,167.252 C 151.763,168.884 150.914,169.888 150.435,171.543 C 150.255,171.377 150.119,171.317 149.855,171.282 C 149.855,169.641 150.465,168.706 151.322,167.252 z M 111.193,170.029 C 109.457,171.071 108.539,171.98 106.479,172.536 C 104.513,173.091 103.002,171.282 101.165,172.052 C 99.388,172.761 99.714,174.474 99.095,176.082 C 98.469,177.69 96.437,177.632 94.67,178.364 C 91.173,179.782 89.241,180.762 86.118,182.655 C 84.041,183.884 82.448,181.106 80.209,180.126 C 77.45,178.933 75.755,178.27 73.134,176.839 C 70.999,175.704 69.061,176.214 66.945,175.066 C 64.011,173.505 62.533,172.253 59.255,171.283 C 59.626,168.919 63.244,169.522 65.755,168.506 C 68.89,167.253 70.404,166.046 72.822,163.954 C 74.201,162.796 74.54,161.424 76.367,160.928 C 80.281,159.817 84.269,160.549 86.119,157.393 C 90.205,160.018 95.661,162.418 99.096,159.155 C 101.526,156.862 102.743,155.312 105.594,153.35 C 106.283,152.877 105.924,151.836 106.77,151.59 C 108.693,150.949 110.055,151.422 112.08,151.59 C 115.18,151.802 117.018,153.314 118.582,155.62 C 120.084,157.901 123.844,159.001 122.695,161.424 C 120.453,166.104 115.986,167.086 111.193,170.029 z M 177.588,281.663 C 176.697,283.188 174.234,283.567 172.568,282.667 C 169.06,280.812 167.775,278.507 166.662,275.103 C 164.904,269.605 165.271,265.882 161.951,260.953 C 155.969,252.051 148.512,249.58 139.219,243.019 C 134.389,239.615 131.225,237.746 128.014,233.172 C 125.94,230.205 123.948,228.902 122.106,225.84 C 121.055,224.08 122.038,222.059 120.045,221.053 C 120.379,220.664 120.639,220.451 120.93,220.049 C 121.223,220.119 121.409,220.285 121.526,220.533 C 122.848,219.978 124.364,220.416 125.061,219.281 C 126.348,217.187 123.739,215.744 123.006,213.474 C 121.887,210.095 123.58,207.907 123.885,204.372 L 124.764,204.372 C 124.764,206.749 126.024,208.096 127.723,209.929 C 128.455,210.721 129.008,212.104 130.075,211.701 C 133.985,210.117 131.153,205.991 131.845,202.349 C 132.509,198.944 132.656,196.674 134.79,193.767 C 137.02,190.788 139.585,189.44 140.11,185.942 C 142.465,186.035 143.657,187.195 146.01,187.195 C 147.496,181.899 145.719,178.092 149.258,173.551 L 150.147,173.551 C 150.147,175.822 149.399,177.086 149.258,179.367 C 149.08,182.242 150.656,184.9 148.082,186.697 C 144.059,189.534 141.625,191.332 139.219,195.293 C 136.66,199.571 136.535,202.859 137.461,207.657 C 138.369,212.422 136.285,215.211 136.285,220.047 C 136.285,224.988 137.717,227.932 140.707,232.154 C 143.43,236.043 149.557,236.454 149.557,240.995 C 149.557,249.343 157.235,256.411 166.981,256.411 C 168.446,261.706 168.184,267.522 174.338,268.776 C 177.106,269.354 173.783,272.854 174.94,275.1 C 175.637,276.483 175.19,277.629 176.124,278.883 C 176.813,279.854 178.17,280.659 177.588,281.663 z M 176.396,260.702 C 176.08,259.759 177.375,259.307 177.884,258.421 C 178.515,259.651 179.165,260.384 179.359,261.708 C 178.1,261.745 176.771,261.708 176.396,260.702 z "
           style="fill:black"
           id="path11" />
        <radialGradient
           cx="124.2969"
           cy="129.3481"
           r="2.2767"
           id="XMLID_22_"
           gradientUnits="userSpaceOnUse"
           gradientTransform="matrix(1.1421,0,0,0.9761,-14.3976,2.3427)">
          <stop
             style="stop-color:#f29b7a;stop-opacity:1"
             offset="0"
             id="stop14" />
          <stop
             style="stop-color:#ef8461;stop-opacity:1"
             offset="0.15099999"
             id="stop16" />
          <stop
             style="stop-color:#e75035;stop-opacity:1"
             offset="0.5"
             id="stop18" />
          <stop
             style="stop-color:#d8352a;stop-opacity:1"
             offset="0.72439998"
             id="stop20" />
          <stop
             style="stop-color:#c91122;stop-opacity:1"
             offset="1"
             id="stop22" />
        </radialGradient>
        <path
           d="M 130.074,126.324 C 130.267,128.181 128.455,129.02 128.31,130.876 C 127.009,130.876 126.347,130.426 125.06,130.367 C 124.695,128.097 127.393,126.171 130.074,126.324 L 130.074,126.324 z "
           style="fill:#99141b;fill-opacity:1;fill-rule:evenodd"
           id="path24" />
        <radialGradient
           cx="138.7305"
           cy="133.1069"
           r="3.1170001"
           id="XMLID_23_"
           gradientUnits="userSpaceOnUse"
           gradientTransform="matrix(1.1421,0,0,0.9761,-14.3976,2.3427)">
          <stop
             style="stop-color:#f29b7a;stop-opacity:1"
             offset="0"
             id="stop27" />
          <stop
             style="stop-color:#ef8461;stop-opacity:1"
             offset="0.15099999"
             id="stop29" />
          <stop
             style="stop-color:#e75035;stop-opacity:1"
             offset="0.5"
             id="stop31" />
          <stop
             style="stop-color:#d8352a;stop-opacity:1"
             offset="0.72439998"
             id="stop33" />
          <stop
             style="stop-color:#c91122;stop-opacity:1"
             offset="1"
             id="stop35" />
        </radialGradient>
        <path
           d="M 143.352,128.606 C 146.272,130.155 148.016,133.985 145.43,135.923 C 143.983,135.545 142.535,135.793 141.887,134.658 C 140.637,132.52 141.998,130.639 143.352,128.606 L 143.352,128.606 z "
           style="fill:#99141b;fill-opacity:1;fill-rule:evenodd"
           id="path37" />
        <path
           d="M 151.031,139.718 C 147.373,140.286 145.429,141.221 141.886,142.248 C 138.269,143.242 135.937,141.221 132.146,141.221 C 132.626,145.773 140.261,144.802 145.429,143.762 C 150.587,142.71 155.283,139.305 158.99,142.485 C 157.601,143.314 156.162,142.427 154.564,142.994 C 151.472,144.14 149.398,144.519 146.009,144.519 C 146.009,148.053 149.585,149.342 150.146,152.841 C 150.742,156.671 151.031,158.835 151.031,162.699 C 148.015,160.786 149.398,157.794 148.666,154.614 C 148.184,152.557 146.936,151.589 146.316,149.566 L 144.82,149.566 C 145.83,154.047 146.357,156.67 147.193,161.187 C 147.634,163.61 148.484,165.289 147.193,167.5 C 147.193,163.894 146.205,161.871 145.138,158.396 L 143.939,158.396 C 143.939,164.709 146.56,168.562 144.246,174.567 C 143.062,177.594 144.543,180.005 142.465,182.654 C 142.465,177.228 146.522,172.949 142.512,168.763 L 141.887,168.763 C 141.563,175.324 141.362,179.544 137.461,185.183 C 132.371,192.442 128.311,196.921 128.311,205.388 L 127.418,205.388 C 126.768,193.246 136.865,187.452 136.865,175.324 L 135.676,175.324 C 134.721,183.93 129.059,187.572 125.94,195.776 C 124.294,200.267 121.471,202.196 119.754,206.64 C 118.24,210.553 120.639,213.119 120.639,217.256 C 115.143,217.256 115.075,210.093 116.793,205.634 C 118.539,201.118 120.231,198.779 122.693,194.523 C 121.222,194.619 121.193,196.048 120.336,197.043 C 118.746,198.943 117.723,200.056 116.504,202.102 C 114.557,205.389 114.58,207.741 112.965,211.194 C 109.906,217.696 112.078,224.706 104.698,227.862 C 105.511,224.893 106.617,223.344 107.944,220.532 C 109.645,216.938 108.212,214.173 110.307,210.684 C 111.885,208.073 112.659,206.345 112.659,203.368 C 110.905,203.839 111.602,205.79 110.598,207.151 C 108.171,210.436 107.909,212.919 107.058,216.761 C 105.8,222.304 105.191,226.763 99.684,229.884 C 99.684,227.163 100.459,225.64 101.455,223.064 C 103.002,219.054 102.021,216.785 104.555,213.156 C 106.436,210.472 107.541,208.226 108.241,205.13 C 105.731,205.448 105.693,207.813 104.408,209.68 C 101.899,213.262 101.309,215.769 99.989,219.777 C 98.897,223.039 99.714,225.345 97.915,228.371 C 96.436,230.807 94.817,231.848 93.19,234.187 L 92.313,234.187 C 92.313,229.826 94.85,227.65 95.557,223.322 C 96.255,218.855 95.854,216.572 98.116,212.541 C 99.387,210.237 100.569,208.439 100.569,205.898 C 98.877,206.109 98.731,207.623 97.915,208.924 C 95.219,213.062 96.006,216.218 93.784,220.533 C 90.902,226.16 92.977,231.431 87.581,235.439 C 88.328,230.83 86.704,228.218 86.704,223.572 C 86.704,220.91 85.599,219.092 86.999,216.761 C 88.024,215.011 88.911,213.095 87.291,211.701 C 86.629,215.238 85.302,217.105 83.458,220.284 C 83.383,219.87 83.265,219.493 82.866,219.28 C 84.44,216.559 84.927,214.727 84.927,211.7 L 84.041,211.7 C 83.458,214.762 81.937,216.217 80.501,219.03 C 79.52,220.981 79.544,222.53 77.858,224.079 C 75.27,226.419 73.133,227.352 70.762,229.884 C 71.17,225.984 73.873,224.292 76.366,221.052 C 79.034,217.636 78.977,215.614 81.317,212.044 C 82.643,209.976 84.352,208.263 84.352,205.898 C 81.496,206.264 81.199,208.771 79.925,210.946 C 77.699,214.612 77.699,217.389 74.608,220.533 C 72.462,222.756 70.471,223.666 68.701,226.101 C 66.335,229.351 68.106,232.093 68.106,235.937 C 64.537,234.423 65.202,230.757 65.753,227.353 C 66.229,224.197 66.943,222.437 68.401,219.529 C 71.535,213.404 74.163,209.987 75.187,203.368 L 73.431,203.368 C 73.431,206.985 67.178,212.175 64.868,209.173 C 68.4,209.052 69.319,205.755 72.819,205.39 L 72.819,204.124 C 69.114,204.278 67.592,206.429 63.981,207.151 C 61.057,207.741 56.458,205.412 57.771,203.119 C 61.733,204.159 65.075,203.946 68.4,201.842 C 70.18,200.706 70.842,199.572 72.819,198.804 C 74.28,198.247 75.962,197.941 76.085,196.534 C 74.452,196.534 72.343,196.416 72.253,195.021 C 79.542,193.862 81.755,188.424 87.289,184.924 C 90.292,183.031 92.089,181.863 95.556,180.631 C 99.343,179.273 102.049,180.384 106.171,180.384 C 106.24,179.959 106.365,179.593 106.767,179.367 C 105.841,177.749 103.93,177.879 102.049,177.086 C 102.339,176.566 102.589,176.213 102.638,175.586 C 110.052,175.586 113.184,171.412 119.753,168.504 C 123.142,167.014 123.911,164.78 126.249,162.191 C 128.454,159.744 132.722,159.507 132.722,156.386 C 130.267,156.386 128.788,158.468 126.538,157.638 C 123.737,156.586 122.036,155.819 120.044,153.857 C 116.435,150.32 113.103,147.544 107.653,148.051 C 105.396,148.239 104.539,149.777 103.232,151.326 C 101.125,153.725 99.312,154.706 97.335,157.142 C 96.143,158.596 93.861,156.941 92.008,156.125 C 91.094,155.711 89.795,155.747 89.642,154.871 C 89.394,153.381 91.053,152.838 92.008,151.586 C 94.85,152.791 99.547,151.798 99.684,149.056 C 99.88,146.205 98.288,142.991 94.961,142.991 C 93.42,142.991 92.934,144.28 91.428,144.516 C 89.838,144.729 88.66,143.784 87.29,144.516 C 85.598,145.425 85.922,147.436 84.04,148.05 C 82.617,148.522 81.535,146.584 81.687,145.26 C 82.532,145.237 82.947,144.918 83.75,144.764 C 83.75,142.991 82.643,141.761 80.804,140.969 C 82.091,137.375 87.29,138.191 91.719,138.191 C 96.005,138.191 97.761,134.904 102.05,134.904 C 104.223,134.904 106.074,133.923 107.654,135.165 C 109.602,136.678 108.316,138.816 109.713,140.721 C 111.852,143.617 115.986,141.489 120.045,141.489 C 119.674,137.848 116.174,136.525 112.385,134.905 C 110.53,134.125 109.27,133.676 107.944,132.387 C 106.809,131.275 109.43,130.177 110.904,129.361 C 118.539,131.382 122.371,134.349 130.365,134.905 C 134.426,135.2 136.125,137.66 140.109,138.192 C 144.348,138.75 147.447,137.687 151.031,139.718 L 151.031,139.718 z "
           style="fill:white;fill-opacity:1;fill-rule:evenodd;stroke:black;stroke-width:0.84649998;stroke-linejoin:round;stroke-miterlimit:2.61310005"
           id="path39" />
        <radialGradient
           cx="69.038597"
           cy="143.1826"
           r="12.0711"
           id="XMLID_24_"
           gradientUnits="userSpaceOnUse"
           gradientTransform="matrix(1.1421,0,0,0.9761,-14.3976,2.3427)">
          <stop
             style="stop-color:#f29b7a;stop-opacity:1"
             offset="0"
             id="stop42" />
          <stop
             style="stop-color:#ef8461;stop-opacity:1"
             offset="0.15099999"
             id="stop44" />
          <stop
             style="stop-color:#e75035;stop-opacity:1"
             offset="0.5"
             id="stop46" />
          <stop
             style="stop-color:#d8352a;stop-opacity:1"
             offset="0.72439998"
             id="stop48" />
          <stop
             style="stop-color:#c91122;stop-opacity:1"
             offset="1"
             id="stop50" />
        </radialGradient>
        <path
           d="M 80.208,151.835 C 73.708,151.835 70.512,149.282 64.564,147.048 C 59.749,145.216 56.298,146.752 50.993,147.048 C 53.246,143.159 58.581,144.519 63.685,144.519 C 68.519,144.519 70.65,147.794 75.486,147.794 C 74.937,142.78 68.519,142.65 64.267,139.198 C 59.748,135.545 54.915,135.924 48.628,135.924 C 48.483,133.086 53.172,131.751 56.298,132.637 C 60.62,133.867 63.857,133.807 67.218,136.432 C 70.761,139.161 71.577,141.834 75.187,144.518 C 78.108,146.657 80.719,148.549 80.208,151.835 L 80.208,151.835 z "
           style="fill:#99141b;fill-opacity:1;fill-rule:evenodd"
           id="path52" />
        <path
           d="M 111.193,138.962 L 112.078,138.962 C 112.148,139.245 112.26,139.423 112.385,139.718 C 111.814,139.588 111.443,139.399 111.193,138.962 L 111.193,138.962 z "
           style="fill:white;fill-rule:evenodd;stroke:white;stroke-width:0.84649998;stroke-miterlimit:2.61310005"
           id="path54" />
        <radialGradient
           cx="44.480499"
           cy="143.83839"
           r="1.3687"
           id="XMLID_25_"
           gradientUnits="userSpaceOnUse"
           gradientTransform="matrix(1.1421,0,0,0.9761,-14.3976,2.3427)">
          <stop
             style="stop-color:#f29b7a;stop-opacity:1"
             offset="0"
             id="stop57" />
          <stop
             style="stop-color:#ef8461;stop-opacity:1"
             offset="0.15099999"
             id="stop59" />
          <stop
             style="stop-color:#e75035;stop-opacity:1"
             offset="0.5"
             id="stop61" />
          <stop
             style="stop-color:#d8352a;stop-opacity:1"
             offset="0.72439998"
             id="stop63" />
          <stop
             style="stop-color:#c91122;stop-opacity:1"
             offset="1"
             id="stop65" />
        </radialGradient>
        <path
           d="M 35.641,141.221 C 37.239,141.207 37.715,142.887 37.715,144.259 C 36.166,144.032 34.078,141.256 35.641,141.221 L 35.641,141.221 z "
           style="fill:#99141b;fill-opacity:1;fill-rule:evenodd"
           id="path67" />
        <path
           d="M 40.959,146.019 C 40.959,146.399 41.035,146.658 40.959,147.048 C 40.814,148.491 38.713,149.318 39.485,150.571 C 39.925,151.328 41.213,151.268 41.554,152.096 C 42.651,154.637 40.771,156.705 42.138,159.153 C 44.534,163.493 47.238,165.502 51.589,168.505 C 55.247,171.035 56.265,174.062 60.723,175.325 C 68.144,177.441 72.496,178.932 78.736,182.892 C 80.5,184.038 82.282,185.491 81.396,187.195 C 79.144,191.534 74.819,193.2 69.295,193.52 C 68.96,195.375 69.944,196.473 70.47,198.321 C 63.818,199.395 60.136,194.583 56.007,189.973 C 54.194,187.963 52.868,186.698 52.458,184.168 C 51.839,180.242 51.776,175.064 47.163,175.064 C 47.085,176.589 47.052,177.511 46.277,178.858 C 43.579,177.997 42.215,176.247 41.842,173.812 C 41.477,171.482 43.1,169.827 41.842,167.734 C 41.184,166.6 39.651,165.925 38.307,166.482 C 36.649,167.179 35.323,169.224 33.881,168.253 C 32.749,167.462 32.664,166.517 31.807,165.478 C 30.373,163.704 30.852,162.061 31.213,159.908 C 31.557,158.148 28.307,158.148 26.211,158.148 C 21.406,158.148 21.185,152.65 21.185,148.547 C 22.885,148.239 23.811,150.096 24.145,151.587 C 25.878,151.362 26.059,149.753 26.495,148.3 C 30.335,148.583 31.29,151.681 33,154.613 C 35.61,153.916 34.076,150.925 33.882,148.548 C 36.499,148.052 38.308,147.697 40.081,146.018 L 40.959,146.018 L 40.959,146.019 z "
           style="fill:white;fill-opacity:1;fill-rule:evenodd"
           id="path69" />
        <radialGradient
           cx="96.2705"
           cy="149.0347"
           r="2.0966001"
           id="XMLID_26_"
           gradientUnits="userSpaceOnUse"
           gradientTransform="matrix(1.1421,0,0,0.9761,-14.3976,2.3427)">
          <stop
             style="stop-color:#f29b7a;stop-opacity:1"
             offset="0"
             id="stop72" />
          <stop
             style="stop-color:#ef8461;stop-opacity:1"
             offset="0.15099999"
             id="stop74" />
          <stop
             style="stop-color:#e75035;stop-opacity:1"
             offset="0.5"
             id="stop76" />
          <stop
             style="stop-color:#d8352a;stop-opacity:1"
             offset="0.72439998"
             id="stop78" />
          <stop
             style="stop-color:#c91122;stop-opacity:1"
             offset="1"
             id="stop80" />
        </radialGradient>
        <path
           d="M 94.379,146.019 C 96.545,146.019 98.209,147.699 98.209,149.567 C 96.143,149.567 94.879,149.755 92.894,149.318 C 92.977,147.958 93.971,147.321 94.379,146.019 L 94.379,146.019 z "
           style="fill:#99141b;fill-opacity:1;fill-rule:evenodd"
           id="path82" />
        <radialGradient
           cx="75.084503"
           cy="153.8105"
           r="11.8261"
           id="XMLID_27_"
           gradientUnits="userSpaceOnUse"
           gradientTransform="matrix(1.1421,0,0,0.9761,-14.3976,2.3427)">
          <stop
             style="stop-color:#f29b7a;stop-opacity:1"
             offset="0"
             id="stop85" />
          <stop
             style="stop-color:#ef8461;stop-opacity:1"
             offset="0.15099999"
             id="stop87" />
          <stop
             style="stop-color:#e75035;stop-opacity:1"
             offset="0.5"
             id="stop89" />
          <stop
             style="stop-color:#d8352a;stop-opacity:1"
             offset="0.72439998"
             id="stop91" />
          <stop
             style="stop-color:#c91122;stop-opacity:1"
             offset="1"
             id="stop93" />
        </radialGradient>
        <path
           d="M 88.763,147.794 C 91.719,149.376 86.559,152.097 84.352,154.355 C 81.874,156.884 78.77,157.205 74.897,157.145 C 66.37,156.944 61.578,156.388 53.057,156.388 C 56.928,150.572 65.007,153.255 72.821,153.598 C 76.524,153.763 79.076,155.619 82.283,154.119 C 83.708,153.457 83.202,151.742 84.637,151.079 C 86.516,150.192 87.811,149.46 88.763,147.794 L 88.763,147.794 z "
           style="fill:#99141b;fill-opacity:1;fill-rule:evenodd"
           id="path95" />
        <path
           d="M 194.104,153.598 C 192.639,155.335 190.026,154.521 187.618,153.859 C 183.93,152.818 181.499,153.101 177.589,153.101 C 171.769,153.101 167.927,154.993 164.308,158.906 C 161.505,161.967 159.669,163.836 158.115,167.502 C 155.459,173.719 157.082,178.388 152.804,183.91 C 150.777,182.337 151.656,180.103 152.497,177.857 C 153.796,174.546 154.028,172.49 154.565,169.013 C 155.499,163.197 158.887,160.49 163.135,155.878 C 165.852,152.901 167.776,151.008 171.973,149.803 C 175.998,148.692 179.028,148.361 182.901,149.803 C 187.176,151.421 189.693,152.345 194.104,153.598 L 194.104,153.598 z "
           style="fill:white;fill-rule:evenodd"
           id="path97" />
        <radialGradient
           cx="27.6113"
           cy="153.5435"
           r="1.1313"
           id="XMLID_28_"
           gradientUnits="userSpaceOnUse"
           gradientTransform="matrix(1.1421,0,0,0.9761,-14.3976,2.3427)">
          <stop
             style="stop-color:#f29b7a;stop-opacity:1"
             offset="0"
             id="stop100" />
          <stop
             style="stop-color:#ef8461;stop-opacity:1"
             offset="0.15099999"
             id="stop102" />
          <stop
             style="stop-color:#e75035;stop-opacity:1"
             offset="0.5"
             id="stop104" />
          <stop
             style="stop-color:#d8352a;stop-opacity:1"
             offset="0.72439998"
             id="stop106" />
          <stop
             style="stop-color:#c91122;stop-opacity:1"
             offset="1"
             id="stop108" />
        </radialGradient>
        <path
           d="M 18.24,151.078 C 18.46,151.931 18.427,152.497 18.24,153.349 L 15.884,153.349 C 15.86,152.19 16.875,151.078 18.24,151.078 L 18.24,151.078 z "
           style="fill:#99141b;fill-opacity:1;fill-rule:evenodd"
           id="path110" />
        <path
           d="M 176.396,155.372 C 180.755,155.372 184.255,154.767 187.328,157.392 C 190.344,159.994 193.49,163.08 197.353,161.423 C 196.22,165.159 189.583,164.816 185.859,162.699 C 181.974,160.489 180.949,157.333 176.396,156.387 L 176.396,155.372 L 176.396,155.372 z "
           style="fill:white;fill-rule:evenodd"
           id="path112" />
        <radialGradient
           cx="68.241699"
           cy="165.83791"
           r="2.3750999"
           id="XMLID_29_"
           gradientUnits="userSpaceOnUse"
           gradientTransform="matrix(1.1421,0,0,0.9761,-14.3976,2.3427)">
          <stop
             style="stop-color:#f29b7a;stop-opacity:1"
             offset="0"
             id="stop115" />
          <stop
             style="stop-color:#ef8461;stop-opacity:1"
             offset="0.15099999"
             id="stop117" />
          <stop
             style="stop-color:#e75035;stop-opacity:1"
             offset="0.5"
             id="stop119" />
          <stop
             style="stop-color:#d8352a;stop-opacity:1"
             offset="0.72439998"
             id="stop121" />
          <stop
             style="stop-color:#c91122;stop-opacity:1"
             offset="1"
             id="stop123" />
        </radialGradient>
        <path
           d="M 66.944,162.699 C 66.292,165.099 63.319,165.726 60.442,165.726 C 60.317,165.159 60.22,164.781 60.137,164.225 C 62.801,163.8 64.206,162.96 66.944,162.699 L 66.944,162.699 z "
           style="fill:#99141b;fill-opacity:1;fill-rule:evenodd"
           id="path125" />
        <radialGradient
           cx="37.665501"
           cy="168.4312"
           r="2.7462001"
           id="XMLID_30_"
           gradientUnits="userSpaceOnUse"
           gradientTransform="matrix(1.1421,0,0,0.9761,-14.3976,2.3427)">
          <stop
             style="stop-color:#f29b7a;stop-opacity:1"
             offset="0"
             id="stop128" />
          <stop
             style="stop-color:#ef8461;stop-opacity:1"
             offset="0.15099999"
             id="stop130" />
          <stop
             style="stop-color:#e75035;stop-opacity:1"
             offset="0.5"
             id="stop132" />
          <stop
             style="stop-color:#d8352a;stop-opacity:1"
             offset="0.72439998"
             id="stop134" />
          <stop
             style="stop-color:#c91122;stop-opacity:1"
             offset="1"
             id="stop136" />
        </radialGradient>
        <path
           d="M 26.497,163.458 C 29.831,163.586 31.81,167.501 30.337,170.029 L 29.456,170.029 C 28.682,167.358 25.88,166.141 26.497,163.458 L 26.497,163.458 z "
           style="fill:#99141b;fill-opacity:1;fill-rule:evenodd"
           id="path138" />
        <radialGradient
           cx="34.273399"
           cy="172.561"
           r="1.409"
           id="XMLID_31_"
           gradientUnits="userSpaceOnUse"
           gradientTransform="matrix(1.1421,0,0,0.9761,-14.3976,2.3427)">
          <stop
             style="stop-color:#f29b7a;stop-opacity:1"
             offset="0"
             id="stop141" />
          <stop
             style="stop-color:#ef8461;stop-opacity:1"
             offset="0.15099999"
             id="stop143" />
          <stop
             style="stop-color:#e75035;stop-opacity:1"
             offset="0.5"
             id="stop145" />
          <stop
             style="stop-color:#d8352a;stop-opacity:1"
             offset="0.72439998"
             id="stop147" />
          <stop
             style="stop-color:#c91122;stop-opacity:1"
             offset="1"
             id="stop149" />
        </radialGradient>
        <path
           d="M 24.147,169.013 C 25.764,169.368 25.846,171.142 25.613,172.536 C 23.922,172.618 23.33,170.243 24.147,169.013 L 24.147,169.013 z "
           style="fill:#99141b;fill-opacity:1;fill-rule:evenodd"
           id="path151" />
        <path
           d="M 189.982,175.587 C 192.681,175.681 193.054,178.292 194.103,180.385 C 195.917,183.932 193.966,187.361 190.58,189.974 C 184.932,194.335 178.978,192.763 171.406,192.763 C 163.451,192.763 157.08,188.365 151.031,192.763 C 148.183,194.808 145.947,195.753 144.246,198.568 C 142.512,201.44 143.351,203.816 141.584,206.642 C 138.707,204.857 140.559,201.771 141.293,198.804 C 142.104,195.659 143.617,194.052 145.43,191.238 C 147.049,188.709 149.772,188.496 152.803,187.196 C 155.899,185.872 157.975,184.489 161.364,184.925 C 168.854,185.943 172.942,187.964 180.55,187.964 C 184.603,187.964 188.07,186.818 189.695,183.659 C 191.152,180.8 189.645,178.742 189.982,175.587 L 189.982,175.587 z "
           style="fill:white;fill-rule:evenodd"
           id="path153" />
        <radialGradient
           cx="49.0518"
           cy="183.05521"
           r="1.1344"
           id="XMLID_32_"
           gradientUnits="userSpaceOnUse"
           gradientTransform="matrix(1.1421,0,0,0.9761,-14.3976,2.3427)">
          <stop
             style="stop-color:#f29b7a;stop-opacity:1"
             offset="0"
             id="stop156" />
          <stop
             style="stop-color:#ef8461;stop-opacity:1"
             offset="0.15099999"
             id="stop158" />
          <stop
             style="stop-color:#e75035;stop-opacity:1"
             offset="0.5"
             id="stop160" />
          <stop
             style="stop-color:#d8352a;stop-opacity:1"
             offset="0.72439998"
             id="stop162" />
          <stop
             style="stop-color:#c91122;stop-opacity:1"
             offset="1"
             id="stop164" />
        </radialGradient>
        <path
           d="M 41.256,179.866 C 42.168,180.102 43.248,180.941 42.735,181.639 C 42.253,182.313 41.285,182.147 40.38,182.147 C 40.379,181.226 40.772,180.656 41.256,179.866 L 41.256,179.866 z "
           style="fill:#99141b;fill-opacity:1;fill-rule:evenodd"
           id="path166" />
        <path
           d="M 153.686,194.265 L 154.565,194.265 C 155.313,196.985 156.342,198.533 156.342,201.347 C 155.721,201.466 155.207,201.63 154.877,202.103 C 152.689,199.679 152.059,197.044 153.686,194.265 L 153.686,194.265 z "
           style="fill:white;fill-rule:evenodd"
           id="path168" />
        <path
           d="M 148.965,234.945 C 145.76,234.566 144.861,232.156 143.063,229.884 C 140.262,226.384 138.934,223.796 138.934,219.529 C 138.934,215.332 139.01,212.152 142.465,209.173 C 144.82,207.152 146.936,206.772 149.856,205.39 C 157.561,201.689 163.715,205.636 172.569,205.636 C 177.188,205.636 180.579,207.105 184.382,204.882 C 186.15,203.876 187.618,203.296 188.505,201.593 C 189.237,200.176 189.107,198.439 190.862,198.06 C 194.19,198.06 193.594,202.35 192.942,205.13 C 192.198,208.263 189.071,208.959 186.149,210.945 C 179.733,215.331 173.385,210.945 165.194,210.945 C 157.671,210.945 150.956,211.785 147.497,217.507 C 143.795,223.572 144.73,229.128 148.965,234.945 L 148.965,234.945 z "
           style="fill:white;fill-rule:evenodd"
           id="path170" />
        <path
           d="M 70.471,211.194 C 67.996,215.46 66.972,218.015 64.565,222.304 C 62.94,225.249 64.497,228.05 61.909,230.392 C 60.361,231.8 58.298,230.888 56.009,230.888 C 55.685,233.962 52.503,235.937 48.935,235.937 C 48.935,235.263 48.865,234.837 48.63,234.187 C 46.748,234.966 44.79,233.667 43.317,234.945 C 41.522,236.479 42.294,238.383 40.96,240.239 C 40.149,241.411 38.605,241.184 37.134,241.764 C 34.983,242.569 32.343,244.791 31.216,243.018 C 29.996,241.032 33.288,239.743 33.288,237.473 C 29.38,237.473 26.249,239.328 23.261,237.213 C 20.718,235.417 21.188,232.98 21.188,230.132 C 23.577,229.943 23.814,233.052 26.214,233.171 C 26.401,232.413 26.497,231.941 26.497,231.15 C 29.996,232.248 32.55,233.668 35.953,232.414 C 41.919,230.18 43.995,226.822 49.812,224.316 C 53.651,222.685 56.715,222.236 59.253,219.281 C 62.653,215.332 64.75,211.194 70.471,211.194 L 70.471,211.194 z "
           style="fill:white;fill-opacity:1;fill-rule:evenodd"
           id="path172" />
        <path
           d="M 159.287,213.216 C 161.432,213.782 161.213,215.804 162.242,217.507 C 164.125,220.628 166.371,222.304 166.371,225.839 C 163.01,225.839 162.65,222.566 161.06,220.048 C 159.592,217.671 157.527,215.484 159.287,213.216 L 159.287,213.216 z "
           style="fill:white;fill-rule:evenodd"
           id="path174" />
        <path
           d="M 113.553,216.253 C 116.879,217.128 116.215,220.378 117.696,223.064 C 119.313,226.005 119.798,227.933 121.815,230.64 C 124.696,234.529 127.165,236.232 130.961,239.494 C 132.328,240.652 132.219,242.224 133.914,243.017 C 140.262,246.019 142.988,248.951 148.381,253.124 C 153.244,256.919 157.643,258.419 159.875,263.728 C 160.926,266.222 161.68,267.617 162.838,270.052 C 164.531,273.671 163.135,276.519 165.486,279.9 C 167.146,282.265 168.363,283.992 171.406,284.949 C 175.045,286.095 178.474,285.101 181.117,282.666 C 182.978,281 179.166,279.369 178.474,277.123 C 177.478,273.92 177.884,271.187 180.548,268.777 C 185.224,264.556 191.241,265.347 197.948,266.767 C 197.948,270.798 191.46,270.798 186.737,270.798 C 184.192,270.798 182.007,271.968 181.432,274.085 C 180.838,276.165 182.721,277.312 183.188,279.392 L 184.663,279.392 C 184.663,277.122 182.247,275.41 183.784,273.576 C 184.448,272.795 185.741,272.537 186.737,273.08 C 187.577,273.518 186.885,274.498 186.737,275.35 C 185.928,279.664 186.108,283.059 182.303,285.954 C 180.615,287.255 179.731,288.308 177.586,288.993 C 171.127,291.11 162.565,287.313 162.24,281.415 C 157.668,281.415 157.771,286.251 155.76,289.749 C 155.08,288.579 154.875,287.763 154.563,286.462 L 152.495,286.462 C 152.331,289.941 151.548,292.337 148.665,294.798 C 148.257,293.343 147.933,292.456 147.495,291.015 C 145.565,291.275 145.163,292.753 143.938,294.042 C 142.247,295.874 140.475,296.417 138.932,298.345 C 136.932,300.804 138.338,303.165 136.864,305.909 C 136.319,306.962 135.356,307.516 135.399,308.7 C 140.557,308.7 143.462,307.802 148.379,306.43 C 151.395,305.567 153.318,307.34 156.34,308.178 C 159.065,308.936 160.617,307.008 163.416,306.43 L 163.416,307.422 C 160.725,307.516 160.074,309.738 157.525,310.461 C 155.531,311.027 154.271,309.881 152.205,309.703 C 147.002,309.23 144.168,311.205 138.932,311.205 C 138.83,311.973 138.776,312.482 138.932,313.238 C 141.477,313.238 143.145,314.148 145.428,313.238 C 147.53,312.388 149.233,311.133 151.321,311.972 C 152.397,312.388 152.331,313.521 153.387,314.005 C 152.465,316.134 150.366,316.903 147.78,317.528 C 146.784,317.755 145.678,318.852 146.315,319.549 C 147.165,320.461 148.706,320.401 149.854,319.809 C 154.389,317.338 157.559,316.877 162.836,315.766 C 161.652,317.799 159.285,317.754 156.92,318.793 C 153.092,320.506 150.621,321.559 146.315,321.559 C 146.049,323.913 150.622,324.006 153.092,323.084 C 156.016,322.021 157.932,320.648 161.059,321.324 C 160.924,322.953 158.625,322.871 156.92,323.592 C 153.793,324.987 151.609,325.356 148.08,325.356 C 148.482,327.883 152.465,327.118 155.455,327.118 C 154.092,330.321 149.992,330.415 146.008,330.415 C 146.008,332.591 149.658,332.186 152.205,332.186 C 152.205,336.217 147.371,337.766 142.777,338.749 C 142.804,339.54 142.908,340.013 143.06,340.77 C 144.574,340.77 145.466,340.709 146.894,341.018 C 146.314,344.209 142.101,344.799 138.337,344.799 L 138.337,347.342 C 136.657,347.686 135.101,347.936 134.503,349.352 C 134.175,350.18 135.673,351.29 136.558,350.866 C 138.081,350.18 140.296,349.011 141.001,350.37 C 141.358,351.089 140.155,351.694 139.216,351.882 C 137.487,352.226 136.683,352.982 135.101,353.655 C 133.392,354.366 131.988,351.493 130.363,352.391 C 128.338,353.489 128.308,355.358 128.308,357.44 C 124.29,357.44 122.283,359.461 118.265,359.461 C 118.536,361.848 122.408,364.768 119.753,365.512 C 117.126,366.282 114.288,364.096 114.148,361.729 C 114.027,359.555 115.285,358.418 116.212,356.42 C 117.013,354.719 115.651,353.172 116.79,351.633 C 117.499,350.653 119.114,350.865 120.333,351.373 C 119.671,352.557 119.351,353.359 119.151,354.66 C 122.325,354.529 123.362,352.166 125.354,350.109 C 128.971,346.408 130.928,344.173 134.208,340.259 C 136.931,336.986 135.673,333.97 135.673,329.894 C 135.673,327.54 133.876,325.355 135.98,323.851 C 137.3,322.894 139.216,322.576 139.216,321.062 C 137.017,321.156 135.648,321.003 133.626,320.306 C 130.888,319.359 128.452,321.665 125.937,320.306 C 123.14,318.792 123.003,316.322 123.003,313.495 C 121.189,313.556 120.228,315.624 120.927,317.018 C 122.257,319.608 123.003,321.262 123.003,324.086 C 121.052,322.574 122.665,320.209 120.927,318.541 C 119.193,316.9 118.171,315.67 117.693,313.494 L 115.908,313.494 C 115.908,317.797 116.957,320.363 115.908,324.607 C 115.506,326.332 115.031,329.548 113.267,328.636 C 111.23,327.597 111.48,325.634 111.48,323.589 C 111.48,314.712 112.656,309.734 112.656,300.857 C 112.656,296.187 115.355,293.752 118.578,289.992 C 120.818,287.381 121.523,285.453 124.18,283.183 C 127.008,280.747 128.491,279.14 130.364,276.101 C 131.657,274.009 130.743,272.378 130.364,270.048 C 129.962,267.484 129.864,265.782 128.012,263.724 C 122.623,257.73 117.041,256.24 109.123,252.859 C 106.477,251.736 105.43,250.213 102.637,249.339 C 97.165,247.624 93.375,247.362 89.067,244.028 C 87.579,242.893 85.042,242.421 85.51,240.741 C 86.361,237.774 90.455,238.378 93.188,236.45 C 95.767,234.654 97.608,234.017 100.567,232.656 C 108.51,229.033 111.789,223.832 113.553,216.253 L 113.553,216.253 z "
           style="fill:white;fill-opacity:1;fill-rule:evenodd"
           id="path176" />
        <path
           d="M 190.861,221.3 C 193.672,221.679 193.539,225.083 192.638,227.353 C 191.679,229.789 190.238,231.492 187.327,232.156 C 180.755,233.668 176.079,231.15 169.909,233.668 C 168.55,234.211 167.407,233.607 166.063,234.188 C 162.028,235.985 160.618,238.916 159.874,242.771 C 159.218,246.246 159.95,249.462 163.417,251.353 C 165.044,252.24 166.896,251.638 168.142,252.865 C 161.722,253.906 155.568,251.484 153.093,246.304 C 150.435,240.82 152.427,234.721 158.407,231.657 C 164.352,228.632 168.583,227.768 175.512,227.614 C 182.168,227.46 190.861,226.976 190.861,221.3 L 190.861,221.3 z "
           style="fill:white;fill-rule:evenodd"
           id="path178" />
        <path
           d="M 81.688,237.473 C 78.44,235.369 76.303,233.773 75.188,230.392 C 74.539,228.371 77.179,227.413 79.034,226.101 C 80.063,225.345 80.063,224.103 81.397,223.831 C 86.737,223.202 86.799,231.22 84.636,235.438 C 84.041,236.575 82.499,238.502 81.688,237.473 L 81.688,237.473 z "
           style="fill:white;fill-rule:evenodd"
           id="path180" />
        <path
           d="M 170.797,236.456 C 171.172,236.209 171.432,235.984 171.69,235.701 C 174.338,236.066 175.045,238.147 176.124,240.239 C 177.214,242.427 180.282,244.223 178.476,246.055 C 177.449,247.131 175.792,245.194 174.941,244.034 C 172.906,241.315 172.285,239.448 170.797,236.456 L 170.797,236.456 z "
           style="fill:white;fill-rule:evenodd"
           id="path182" />
        <path
           d="M 41.844,243.018 C 42.002,243.407 42.102,243.62 42.139,244.034 C 39.681,244.638 38.526,246.055 35.952,246.055 C 35.835,243.737 39.148,243.018 41.844,243.018 L 41.844,243.018 z "
           style="fill:white;fill-rule:evenodd"
           id="path184" />
        <radialGradient
           cx="37.8022"
           cy="249.8179"
           r="2.5883"
           id="XMLID_33_"
           gradientUnits="userSpaceOnUse"
           gradientTransform="matrix(1.1421,0,0,0.9761,-14.3976,2.3427)">
          <stop
             style="stop-color:#f29b7a;stop-opacity:1"
             offset="0"
             id="stop187" />
          <stop
             style="stop-color:#ef8461;stop-opacity:1"
             offset="0.15099999"
             id="stop189" />
          <stop
             style="stop-color:#e75035;stop-opacity:1"
             offset="0.5"
             id="stop191" />
          <stop
             style="stop-color:#d8352a;stop-opacity:1"
             offset="0.72439998"
             id="stop193" />
          <stop
             style="stop-color:#c91122;stop-opacity:1"
             offset="1"
             id="stop195" />
        </radialGradient>
        <path
           d="M 26.497,243.278 C 29.341,244.471 30.813,246.364 31.216,249.083 C 28.017,249.083 25.69,245.924 26.497,243.278 L 26.497,243.278 z "
           style="fill:#99141b;fill-opacity:1;fill-rule:evenodd"
           id="path197" />
        <path
           d="M 197.354,247.049 C 197.354,250.051 196.991,252.924 193.827,254.131 C 189.61,255.713 186.638,254.391 182.009,254.391 C 178.435,254.391 176.152,256.069 174.339,258.68 C 172.653,261.139 175.515,264.262 178.767,264.994 L 178.767,265.75 C 174.644,266.412 170.208,264.297 169.621,260.701 C 169.023,257.037 171.09,254.732 173.76,251.859 C 177.887,247.402 183.719,249.082 190.27,248.324 C 193.055,248.018 194.553,247.049 197.354,247.049 L 197.354,247.049 z "
           style="fill:white;fill-rule:evenodd"
           id="path199" />
        <radialGradient
           cx="47.9585"
           cy="252.7896"
           r="1.3171"
           id="XMLID_34_"
           gradientUnits="userSpaceOnUse"
           gradientTransform="matrix(1.1421,0,0,0.9761,-14.3976,2.3427)">
          <stop
             style="stop-color:#f29b7a;stop-opacity:1"
             offset="0"
             id="stop202" />
          <stop
             style="stop-color:#ef8461;stop-opacity:1"
             offset="0.15099999"
             id="stop204" />
          <stop
             style="stop-color:#e75035;stop-opacity:1"
             offset="0.5"
             id="stop206" />
          <stop
             style="stop-color:#d8352a;stop-opacity:1"
             offset="0.72439998"
             id="stop208" />
          <stop
             style="stop-color:#c91122;stop-opacity:1"
             offset="1"
             id="stop210" />
        </radialGradient>
        <path
           d="M 40.083,247.569 C 40.669,247.747 41.003,248.018 41.556,248.325 C 41.368,248.479 41.214,248.54 40.96,248.573 L 40.96,250.594 L 39.195,250.594 C 39.195,249.401 39.409,248.61 40.083,247.569 L 40.083,247.569 z "
           style="fill:#99141b;fill-opacity:1;fill-rule:evenodd"
           id="path212" />
        <path
           d="M 181.434,257.168 C 184.629,257.168 186.149,261.459 184.381,263.729 C 181.393,262.784 181.197,259.911 181.434,257.168 L 181.434,257.168 z "
           style="fill:white;fill-rule:evenodd"
           id="path214" />
        <path
           d="M 110.307,260.208 C 114.444,260.351 117.287,262.819 118.268,266.261 C 119.563,266.261 121.155,266.095 121.223,264.995 C 122.965,265.727 123.034,267.3 124.764,268.034 C 127.239,269.073 129.526,271.214 128.311,273.317 C 126.327,276.733 119.155,273.387 117.696,269.794 C 118.79,270.491 119.825,270.564 121.223,270.564 C 120.998,268.412 118.746,267.761 116.793,266.507 C 113.771,264.534 112.01,263.139 110.307,260.208 L 110.307,260.208 z "
           style="fill:white;fill-opacity:1;fill-rule:evenodd"
           id="path216" />
        <path
           d="M 107.944,269.793 C 109.838,269.793 110.531,271.496 110.904,273.08 C 112.119,273.045 112.744,272.228 113.269,271.307 C 117.042,272.325 118.539,274.215 121.814,276.106 C 123.476,277.053 125.101,276.485 126.835,277.372 C 125.534,278.354 125.245,279.665 123.579,280.151 C 114.956,282.608 106.843,275.067 100.271,280.409 C 96.986,283.059 94.816,284.382 90.832,286.216 C 89.144,286.97 87.582,286.062 85.811,286.712 C 83.089,287.728 81.128,289.585 78.439,288.472 C 77.408,288.072 76.97,287.29 75.783,287.22 C 75.894,289.241 77.857,290.933 80.208,290.765 C 83.264,290.566 84.83,289.242 87.883,289.242 C 87.883,291.299 87.582,293.308 89.641,294.291 C 92.852,295.814 95.524,294.291 99.094,295.047 L 99.094,296.076 L 92.894,296.076 C 92.894,299.16 98.358,297.553 101.456,299.101 C 104.743,300.708 106.317,303.486 105.593,306.665 C 102.812,305.153 102.714,302.517 99.685,301.37 C 97.548,300.567 91.787,301.311 93.785,302.376 C 96.007,303.581 98.498,302.282 100.273,303.899 C 103.048,306.381 104.744,309.385 102.937,312.483 C 102.016,308.534 99.685,304.643 94.962,304.643 C 95.038,306.17 96.624,306.702 97.915,307.682 C 99.839,309.172 99.95,310.84 100.569,312.979 C 101.649,316.549 102.05,319.895 98.798,322.331 C 98.798,320.403 99.139,318.642 97.335,317.53 C 96.283,316.905 94.926,317.602 94.068,316.762 C 92.933,315.674 92.893,313.735 91.122,313.735 C 90.975,315.131 91.122,315.887 91.122,317.284 C 90.941,317.116 90.872,316.999 90.832,316.763 L 89.352,316.763 L 89.352,319.812 C 88.944,319.306 88.694,318.986 88.182,318.546 L 87.292,318.546 C 87.292,320.935 87.373,322.425 88.465,324.612 C 89.028,325.676 88.219,327.012 89.352,327.637 C 87.946,330.063 84.565,329.057 81.397,329.412 C 82.385,327.353 86.005,327.023 85.512,324.848 C 80.25,324.848 77.733,328.903 76.086,333.194 C 75.629,334.329 76.49,335.842 75.188,336.219 C 73.792,336.635 72.656,335.877 71.645,334.965 C 70.113,333.535 73.239,331.645 72.254,329.897 C 69.32,331.149 68.479,332.911 65.753,334.46 C 63.65,332.022 65.688,328.206 68.99,327.12 C 70.511,326.657 71.73,327.509 73.133,326.88 C 75.555,325.771 76.004,324.009 77.551,322.083 C 80.182,318.819 79.475,316.112 80.208,312.224 C 80.873,308.818 81.354,306.382 79.324,303.38 C 76.562,299.349 70.545,302.564 65.753,300.366 C 63.125,299.159 62.061,297.327 61.609,294.798 C 60.219,287.314 67.828,283.685 67.828,276.107 L 66.334,276.107 C 65.152,281.416 59.959,287.031 53.949,285.201 L 53.949,284.441 C 60.621,283.652 63.609,278.849 65.455,273.318 C 67.344,267.738 71.91,264.937 78.439,263.222 C 80.541,262.691 81.396,261.613 83.457,260.952 C 88.285,259.378 91.563,261.46 96.738,261.46 C 100.39,261.46 102.402,262.312 105.88,263.222 C 108.836,264.012 107.944,267.135 107.944,269.793 L 107.944,269.793 z "
           style="fill:white;fill-opacity:1;fill-rule:evenodd"
           id="path218" />
        <path
           d="M 100.272,316.762 C 97.803,315.981 98.171,313.676 96.436,311.973 C 95.189,310.744 93.295,310.578 92.894,308.936 C 97.291,307.86 100.272,312.862 100.272,316.762 L 100.272,316.762 z "
           style="fill:black;fill-rule:evenodd"
           id="path220" />
        <path
           d="M 56.886,322.083 C 59.874,323.786 59.709,327.12 58.076,329.897 L 56.886,329.897 C 57.225,326.846 55.325,324.825 56.886,322.083 L 56.886,322.083 z "
           style="fill:white;fill-rule:evenodd"
           id="path222" />
        <path
           d="M 61.61,324.352 C 63.72,325.108 66.569,326.444 65.456,328.133 C 64.606,329.459 63.169,329.682 61.61,330.416 C 61.132,328.112 60.926,326.633 61.61,324.352 L 61.61,324.352 z "
           style="fill:white;fill-rule:evenodd"
           id="path224" />
        <radialGradient
           cx="59.571301"
           cy="332.75241"
           r="1.8311"
           id="XMLID_35_"
           gradientUnits="userSpaceOnUse"
           gradientTransform="matrix(1.1421,0,0,0.9761,-14.3976,2.3427)">
          <stop
             style="stop-color:#f29b7a;stop-opacity:1"
             offset="0"
             id="stop227" />
          <stop
             style="stop-color:#ef8461;stop-opacity:1"
             offset="0.15099999"
             id="stop229" />
          <stop
             style="stop-color:#e75035;stop-opacity:1"
             offset="0.5"
             id="stop231" />
          <stop
             style="stop-color:#d8352a;stop-opacity:1"
             offset="0.72439998"
             id="stop233" />
          <stop
             style="stop-color:#c91122;stop-opacity:1"
             offset="1"
             id="stop235" />
        </radialGradient>
        <path
           d="M 53.651,325.108 C 54.342,325.262 54.714,325.485 55.413,325.616 C 55.413,327.071 54.675,327.864 53.95,329.151 C 53.174,328.962 52.725,328.676 51.881,328.641 C 51.721,327.153 52.696,326.336 53.651,325.108 L 53.651,325.108 z "
           style="fill:#99141b;fill-opacity:1;fill-rule:evenodd"
           id="path237" />
        <radialGradient
           cx="87.453102"
           cy="338.7095"
           r="1.5855"
           id="XMLID_36_"
           gradientUnits="userSpaceOnUse"
           gradientTransform="matrix(1.1421,0,0,0.9761,-14.3976,2.3427)">
          <stop
             style="stop-color:#f29b7a;stop-opacity:1"
             offset="0"
             id="stop240" />
          <stop
             style="stop-color:#ef8461;stop-opacity:1"
             offset="0.15099999"
             id="stop242" />
          <stop
             style="stop-color:#e75035;stop-opacity:1"
             offset="0.5"
             id="stop244" />
          <stop
             style="stop-color:#d8352a;stop-opacity:1"
             offset="0.72439998"
             id="stop246" />
          <stop
             style="stop-color:#c91122;stop-opacity:1"
             offset="1"
             id="stop248" />
        </radialGradient>
        <path
           d="M 86.391,330.922 C 86.668,332.557 86.141,333.951 84.636,334.965 C 84.315,333.313 84.44,330.922 86.391,330.922 L 86.391,330.922 z "
           style="fill:#99141b;fill-opacity:1;fill-rule:evenodd"
           id="path250" />
        <path
           d="M 63.09,335.463 C 60.926,335.535 60.29,333.762 58.367,332.934 C 59.842,331.551 62.532,333.655 63.09,335.463 L 63.09,335.463 z "
           style="fill:white;fill-rule:evenodd"
           id="path252" />
        <radialGradient
           cx="63.877399"
           cy="342.19971"
           r="0.88340002"
           id="XMLID_37_"
           gradientUnits="userSpaceOnUse"
           gradientTransform="matrix(1.1421,0,0,0.9761,-14.3976,2.3427)">
          <stop
             style="stop-color:#f29b7a;stop-opacity:1"
             offset="0"
             id="stop255" />
          <stop
             style="stop-color:#ef8461;stop-opacity:1"
             offset="0.15099999"
             id="stop257" />
          <stop
             style="stop-color:#e75035;stop-opacity:1"
             offset="0.5"
             id="stop259" />
          <stop
             style="stop-color:#d8352a;stop-opacity:1"
             offset="0.72439998"
             id="stop261" />
          <stop
             style="stop-color:#c91122;stop-opacity:1"
             offset="1"
             id="stop263" />
        </radialGradient>
        <path
           d="M 58.368,335.215 C 59.034,335.877 59.225,336.635 58.965,337.486 L 58.077,337.486 C 57.967,336.635 58.077,336.032 58.368,335.215 L 58.368,335.215 z "
           style="fill:#99141b;fill-opacity:1;fill-rule:evenodd"
           id="path265" />
        <path
           d="M 68.991,337.237 C 71.606,336.505 76.044,340.51 73.709,341.776 C 72.797,342.274 72.054,341.174 71.058,340.772 C 69.117,339.979 67.595,340.772 65.456,340.51 C 65.726,338.809 67.084,337.768 68.991,337.237 L 68.991,337.237 z "
           style="fill:white;fill-rule:evenodd"
           id="path267" />
        <radialGradient
           cx="73.1157"
           cy="351.521"
           r="1.4266"
           id="XMLID_38_"
           gradientUnits="userSpaceOnUse"
           gradientTransform="matrix(1.1421,0,0,0.9761,-14.3976,2.3427)">
          <stop
             style="stop-color:#f29b7a;stop-opacity:1"
             offset="0"
             id="stop270" />
          <stop
             style="stop-color:#ef8461;stop-opacity:1"
             offset="0.15099999"
             id="stop272" />
          <stop
             style="stop-color:#e75035;stop-opacity:1"
             offset="0.5"
             id="stop274" />
          <stop
             style="stop-color:#d8352a;stop-opacity:1"
             offset="0.72439998"
             id="stop276" />
          <stop
             style="stop-color:#c91122;stop-opacity:1"
             offset="1"
             id="stop278" />
        </radialGradient>
        <path
           d="M 68.991,343.549 C 70.028,344.686 69.807,345.949 69.297,347.344 C 68.327,346.116 68.231,344.874 68.991,343.549 L 68.991,343.549 z "
           style="fill:#99141b;fill-opacity:1;fill-rule:evenodd"
           id="path280" />
        <path
           d="M 112.385,350.372 C 114.694,349.757 116.133,353.327 115.033,355.173 C 114.443,356.142 113.67,356.53 112.965,357.443 C 110.598,355.622 109.311,351.151 112.385,350.372 L 112.385,350.372 z "
           style="fill:white;fill-rule:evenodd"
           id="path282" />
        <radialGradient
           cx="134.2285"
           cy="361.86179"
           r="1.1559"
           id="XMLID_39_"
           gradientUnits="userSpaceOnUse"
           gradientTransform="matrix(1.1421,0,0,0.9761,-14.3976,2.3427)">
          <stop
             style="stop-color:#f29b7a;stop-opacity:1"
             offset="0"
             id="stop285" />
          <stop
             style="stop-color:#ef8461;stop-opacity:1"
             offset="0.15099999"
             id="stop287" />
          <stop
             style="stop-color:#e75035;stop-opacity:1"
             offset="0.5"
             id="stop289" />
          <stop
             style="stop-color:#d8352a;stop-opacity:1"
             offset="0.72439998"
             id="stop291" />
          <stop
             style="stop-color:#c91122;stop-opacity:1"
             offset="1"
             id="stop293" />
        </radialGradient>
        <path
           d="M 138.934,354.155 C 139.147,354.436 139.452,354.591 139.821,354.663 C 139.821,355.573 139.452,356.175 138.934,356.933 L 138.041,356.933 C 137.822,355.858 138.234,355.065 138.934,354.155 L 138.934,354.155 z "
           style="fill:#99141b;fill-opacity:1;fill-rule:evenodd"
           id="path295" />
        <radialGradient
           cx="107.2046"
           cy="362.12451"
           r="0.92320001"
           id="XMLID_40_"
           gradientUnits="userSpaceOnUse"
           gradientTransform="matrix(1.1421,0,0,0.9761,-14.3976,2.3427)">
          <stop
             style="stop-color:#f29b7a;stop-opacity:1"
             offset="0"
             id="stop298" />
          <stop
             style="stop-color:#ef8461;stop-opacity:1"
             offset="0.15099999"
             id="stop300" />
          <stop
             style="stop-color:#e75035;stop-opacity:1"
             offset="0.5"
             id="stop302" />
          <stop
             style="stop-color:#d8352a;stop-opacity:1"
             offset="0.72439998"
             id="stop304" />
          <stop
             style="stop-color:#c91122;stop-opacity:1"
             offset="1"
             id="stop306" />
        </radialGradient>
        <path
           d="M 108.54,354.663 C 108.761,355.515 108.794,356.081 108.54,356.933 L 107.362,356.933 C 107.319,355.985 107.616,355.172 108.54,354.663 L 108.54,354.663 z "
           style="fill:#99141b;fill-opacity:1;fill-rule:evenodd"
           id="path308" />
        <radialGradient
           cx="122.8926"
           cy="367.62061"
           r="2.1057999"
           id="XMLID_41_"
           gradientUnits="userSpaceOnUse"
           gradientTransform="matrix(1.1421,0,0,0.9761,-14.3976,2.3427)">
          <stop
             style="stop-color:#f29b7a;stop-opacity:1"
             offset="0"
             id="stop311" />
          <stop
             style="stop-color:#ef8461;stop-opacity:1"
             offset="0.15099999"
             id="stop313" />
          <stop
             style="stop-color:#e75035;stop-opacity:1"
             offset="0.5"
             id="stop315" />
          <stop
             style="stop-color:#d8352a;stop-opacity:1"
             offset="0.72439998"
             id="stop317" />
          <stop
             style="stop-color:#c91122;stop-opacity:1"
             offset="1"
             id="stop319" />
        </radialGradient>
        <path
           d="M 128.9,361.731 C 126.601,361.981 125.246,362.96 123.005,362.489 C 123.22,361.012 124.882,360.62 126.249,359.712 C 127.527,360.03 128.814,360.573 128.9,361.731 L 128.9,361.731 z "
           style="fill:#99141b;fill-opacity:1;fill-rule:evenodd"
           id="path321" />
        <radialGradient
           cx="112.958"
           cy="374.021"
           r="1.0994"
           id="XMLID_42_"
           gradientUnits="userSpaceOnUse"
           gradientTransform="matrix(1.1421,0,0,0.9761,-14.3976,2.3427)">
          <stop
             style="stop-color:#f29b7a;stop-opacity:1"
             offset="0"
             id="stop324" />
          <stop
             style="stop-color:#ef8461;stop-opacity:1"
             offset="0.15099999"
             id="stop326" />
          <stop
             style="stop-color:#e75035;stop-opacity:1"
             offset="0.5"
             id="stop328" />
          <stop
             style="stop-color:#d8352a;stop-opacity:1"
             offset="0.72439998"
             id="stop330" />
          <stop
             style="stop-color:#c91122;stop-opacity:1"
             offset="1"
             id="stop332" />
        </radialGradient>
        <path
           d="M 114.15,366.024 C 115.398,366.19 115.578,367.821 115.033,368.799 C 113.959,368.235 113.594,367.016 114.15,366.024 L 114.15,366.024 z "
           style="fill:#99141b;fill-opacity:1;fill-rule:evenodd"
           id="path334" />
      </g>
    </g>
    <g
       transform="translate(341.1125,90.34325)"
       id="Herzogshut">
      <path
         d="M 183.555,118 L 182.727,59.264 L 179.905,49.587 C 179.776,49.475 179.743,26.04 119.553,35.073 C 116.539,32.635 112.641,31.608 108.46,31.608 C 104.921,31.608 99.725,34.083 99.725,34.083 C 40.084,23.96 38.562,50.428 38.426,50.539 L 35.294,59.546 L 32.555,117.976 L 183.555,118 z "
         style="fill:white;stroke:black;stroke-width:1.98510003;stroke-miterlimit:2.61310005"
         id="Hermelin" />
      <path
         d="M 115.711,32.957 L 118,34.193 C 118,34.193 120.041,35.456 120.104,35.258 C 120.17,35.047 124.1,34.552 124.52,34.367 C 124.934,34.168 129.911,33.859 130.145,33.834 C 130.387,33.81 135.793,33.476 135.793,33.476 L 141.063,33.303 L 145.127,33.129 C 145.127,33.129 150.69,33.327 150.936,33.303 C 151.172,33.29 157.633,34.193 157.633,34.193 L 162.563,35.258 C 162.563,35.258 167.426,36.693 167.68,36.668 C 167.914,36.643 172.95,39.304 172.95,39.304 L 177.194,43.003 L 180.005,47.952 C 180.005,47.952 182.212,59.706 182.294,59.954 C 182.372,60.189 177.528,59.632 177.528,59.632 L 173.84,60.659 L 168.904,60.832 L 164.152,59.41 L 160.095,59.632 C 160.095,59.632 156.331,60.845 156.208,60.832 C 156.101,60.796 151.11,59.632 151.11,59.632 L 147.063,59.632 L 141.778,60.659 L 137.448,59.632 C 137.448,59.632 132.897,59.262 132.958,59.236 C 133.032,59.224 129.438,60.474 129.438,60.474 C 129.438,60.474 125.688,61.204 125.397,61.179 C 125.112,61.155 121.452,59.632 121.518,59.632 C 121.586,59.632 117.811,59.051 117.811,59.051 C 117.811,59.051 115.108,59.632 115.002,59.632 C 114.893,59.633 115.711,32.957 115.711,32.957 L 115.711,32.957 z "
         style="fill:#99141b;fill-rule:evenodd"
         id="Samt_1_" />
      <path
         d="M 38.202,49.018 L 40.132,45.306 C 40.132,45.306 43.598,41.271 43.835,41.074 C 44.08,40.863 46.235,38.797 46.655,38.611 C 47.069,38.389 50.993,35.976 51.057,36.125 C 51.127,36.285 56.696,34.193 56.696,34.193 L 62.321,32.783 C 62.321,32.783 67.893,32.091 68.147,32.077 C 68.389,32.053 74.413,31.915 74.828,31.892 C 75.249,31.866 82.352,32.262 82.588,32.25 C 82.833,32.225 88.688,32.806 88.935,32.782 C 89.169,32.757 93.519,33.302 93.519,33.302 L 99.503,33.833 L 103.026,32.436 L 103.361,60.313 L 100.022,59.632 C 100.022,59.632 96.274,59.979 95.979,60.127 C 95.69,60.276 90.517,60.832 90.517,60.832 L 85.408,59.236 L 81.35,59.954 L 77.317,61.006 C 77.317,61.006 73.9,60.152 73.79,60.313 C 73.667,60.449 67.963,59.236 67.963,59.236 C 67.963,59.236 63.333,60.152 63.388,60.313 C 63.452,60.449 58.558,59.632 58.458,59.632 C 58.354,59.632 53.101,59.621 53.164,59.41 C 53.236,59.224 46.235,61.551 46.481,61.365 C 46.715,61.155 42.782,60.127 42.782,60.127 L 38.376,59.236 L 35.295,59.545 L 38.202,49.018 L 38.202,49.018 z "
         style="fill:#99141b;fill-rule:evenodd"
         id="Samt" />
      <path
         d="M 35.989,59.633 C 36.1,59.633 36.817,58.062 40.893,59.286 C 44.958,60.499 45.219,61.7 49.289,60.548 C 53.353,59.386 54.25,58.619 58.16,59.632 C 62.066,60.673 61.848,60.498 64.644,60.078 C 67.447,59.632 68.82,58.619 72.087,59.632 C 75.371,60.673 75.786,61.229 79.058,60.548 C 82.339,59.856 82.999,58.569 86.791,59.608 C 90.573,60.673 90.194,61.156 93.951,60.387 C 97.694,59.633 100.601,59.002 103.077,60.19 M 115.277,59.633 C 115.382,59.633 116.119,58.062 120.183,59.286 C 124.247,60.498 124.519,61.7 128.568,60.548 C 132.65,59.386 133.541,58.619 137.449,59.632 C 141.361,60.673 141.138,60.498 143.933,60.078 C 146.744,59.632 148.103,58.619 151.382,59.632 C 154.65,60.673 155.075,61.229 158.347,60.548 C 161.617,59.856 162.296,58.569 166.076,59.608 C 169.863,60.673 169.486,61.156 173.234,60.387 C 176.988,59.633 179.892,59.002 182.371,60.19 M 178.52,118 L 169.957,77.897 L 159.836,118 L 152.17,118 L 135.559,72.353 L 117.938,118 L 99.514,118 L 80.786,72.353 L 64.102,118 L 55.235,118 L 45.863,77.897 L 37.478,118 L 32.555,118 L 45.375,59.869 L 59.918,113.681 L 80.277,59.993 L 102.519,110.723 L 115.522,110.723 L 135.313,59.793 L 155.911,113.68 L 170.444,59.868 L 183.555,118 L 178.52,118 z "
         style="fill:#e7bb3a;stroke:black;stroke-width:1.9914;stroke-miterlimit:2.61310005"
         id="Gold" />
      <polyline
         style="fill:white;stroke:black;stroke-width:1.98510003;stroke-miterlimit:2.61310005"
         id="polyline341"
         points="102.7,33.143 102.682,118    115.586,118 115.566,32.561  "
         stroke-miterlimit="2.6131" />
      <polygon
         points="106.086,32.28 112.012,32.28 112.012,117.153 106.086,117.153 106.086,32.28 "
         style="fill:black;fill-rule:evenodd"
         id="polygon343" />
      <path
         d="M 33.476,97.274 L 42.954,93.734 L 42.418,96.977 L 45.651,96.445 C 45.651,96.445 45.12,99.043 45.392,99.166 C 45.651,99.278 49.172,100.368 49.172,100.368 C 49.172,100.368 45.938,103.646 33.205,108.645 L 33.476,97.274 L 33.476,97.274 z "
         style="fill:black;fill-rule:evenodd"
         id="path345" />
      <path
         d="M 67.325,94.541 C 67.864,94.391 78.425,91.558 78.425,91.558 L 77.885,95.9 L 80.045,95.356 C 80.045,95.356 79.505,98.488 79.5,98.611 C 79.5,98.735 81.393,98.882 81.393,98.882 C 81.393,98.882 69.225,108.262 60.01,111.627 C 60.01,111.627 66.786,94.7 67.325,94.541 L 67.325,94.541 z "
         style="fill:black;fill-rule:evenodd"
         id="path347" />
      <path
         d="M 145.295,98.882 C 144.762,98.994 135.545,95.084 135.545,95.084 C 130.668,92.499 134.205,97.807 134.205,97.807 L 130.137,96.705 C 130.137,96.705 130.684,99.576 130.41,99.699 C 130.125,99.811 127.701,99.699 127.701,99.699 C 127.701,99.699 126.625,110.699 148.549,110.006 C 148.549,110.006 145.854,98.772 145.295,98.882 L 145.295,98.882 z "
         style="fill:black;fill-rule:evenodd"
         id="path349" />
      <path
         d="M 165.33,96.445 L 174.812,95.9 L 175.896,98.61 C 175.896,98.61 180.222,98.772 180.222,99.166 C 180.222,99.55 176.972,104.302 176.972,104.302 L 181.042,106.752 C 181.042,106.752 176.704,112.864 163.718,103.498 L 165.33,96.445 L 165.33,96.445 z "
         style="fill:black;fill-rule:evenodd"
         id="path351" />
      <path
         d="M 107.959,109.833 C 107.959,109.265 108.43,108.807 109.005,108.807 C 109.568,108.807 110.036,109.265 110.036,109.833 C 110.036,110.415 109.567,110.886 109.005,110.886 C 108.43,110.886 107.959,110.415 107.959,109.833 L 107.959,109.833 z M 107.959,103.819 C 107.959,104.401 108.43,104.859 109.005,104.859 C 109.568,104.859 110.036,104.401 110.036,103.819 C 110.036,103.238 109.567,102.768 109.005,102.768 C 108.43,102.768 107.959,103.238 107.959,103.819 L 107.959,103.819 z M 107.959,97.781 C 107.959,98.362 108.43,98.833 109.005,98.833 C 109.568,98.833 110.036,98.362 110.036,97.781 C 110.036,97.224 109.567,96.754 109.005,96.754 C 108.43,96.754 107.959,97.225 107.959,97.781 L 107.959,97.781 z M 107.959,91.768 C 107.959,92.325 108.43,92.794 109.005,92.794 C 109.568,92.794 110.036,92.324 110.036,91.768 C 110.036,91.186 109.567,90.729 109.005,90.729 C 108.43,90.729 107.959,91.186 107.959,91.768 L 107.959,91.768 z M 107.959,85.729 C 107.959,86.311 108.43,86.781 109.005,86.781 C 109.568,86.781 110.036,86.311 110.036,85.729 C 110.036,85.172 109.567,84.69 109.005,84.69 C 108.43,84.69 107.959,85.173 107.959,85.729 L 107.959,85.729 z M 107.959,79.716 C 107.959,80.285 108.43,80.755 109.005,80.755 C 109.568,80.755 110.036,80.285 110.036,79.716 C 110.036,79.134 109.567,78.665 109.005,78.665 C 108.43,78.665 107.959,79.134 107.959,79.716 L 107.959,79.716 z M 107.959,73.679 C 107.959,74.26 108.43,74.73 109.005,74.73 C 109.568,74.73 110.036,74.26 110.036,73.679 C 110.036,73.121 109.567,72.638 109.005,72.638 C 108.43,72.638 107.959,73.121 107.959,73.679 L 107.959,73.679 z M 107.959,67.665 C 107.959,68.247 108.43,68.705 109.005,68.705 C 109.568,68.705 110.036,68.247 110.036,67.665 C 110.036,67.083 109.567,66.613 109.005,66.613 C 108.43,66.613 107.959,67.083 107.959,67.665 L 107.959,67.665 z M 107.959,61.626 C 107.959,62.208 108.43,62.678 109.005,62.678 C 109.568,62.678 110.036,62.208 110.036,61.626 C 110.036,61.057 109.567,60.587 109.005,60.587 C 108.43,60.587 107.959,61.057 107.959,61.626 L 107.959,61.626 z M 107.959,55.6 C 107.959,56.181 108.43,56.651 109.005,56.651 C 109.568,56.651 110.036,56.181 110.036,55.6 C 110.036,55.032 109.567,54.561 109.005,54.561 C 108.43,54.562 107.959,55.032 107.959,55.6 L 107.959,55.6 z M 107.959,49.586 C 107.959,50.155 108.43,50.613 109.005,50.613 C 109.568,50.613 110.036,50.155 110.036,49.586 C 110.036,49.004 109.567,48.534 109.005,48.534 C 108.43,48.534 107.959,49.005 107.959,49.586 L 107.959,49.586 z M 107.959,43.548 C 107.959,44.13 108.43,44.599 109.005,44.599 C 109.568,44.599 110.036,44.129 110.036,43.548 C 110.036,42.979 109.567,42.52 109.005,42.52 C 108.43,42.521 107.959,42.979 107.959,43.548 L 107.959,43.548 z M 107.959,37.522 C 107.959,38.091 108.43,38.561 109.005,38.561 C 109.568,38.561 110.036,38.091 110.036,37.522 C 110.036,36.94 109.567,36.483 109.005,36.483 C 108.43,36.483 107.959,36.94 107.959,37.522 L 107.959,37.522 z "
         style="fill:#e7bb3a;fill-rule:evenodd"
         id="Mitte" />
      <path
         d="M 73.815,53.261 C 73.815,49.76 76.648,46.927 80.147,46.927 C 83.647,46.927 86.479,49.76 86.479,53.261 C 86.479,56.776 83.647,59.609 80.147,59.609 C 76.648,59.608 73.815,56.776 73.815,53.261 L 73.815,53.261 z "
         style="fill:#e7bb3a;fill-rule:evenodd;stroke:black;stroke-width:1.9914;stroke-miterlimit:2.61310005"
         id="path354" />
      <path
         d="M 128.814,52.965 C 128.814,49.45 131.648,46.603 135.136,46.603 C 138.644,46.603 141.476,49.45 141.476,52.965 C 141.476,56.454 138.644,59.299 135.136,59.299 C 131.648,59.299 128.814,56.454 128.814,52.965 L 128.814,52.965 z "
         style="fill:#e7bb3a;fill-rule:evenodd;stroke:black;stroke-width:1.9914;stroke-miterlimit:2.61310005"
         id="path356" />
      <path
         d="M 41.061,53.496 C 41.061,50.106 43.182,47.372 45.793,47.372 C 48.41,47.372 50.545,50.106 50.545,53.496 C 50.545,56.874 48.41,59.608 45.793,59.608 C 43.182,59.608 41.061,56.875 41.061,53.496 L 41.061,53.496 z "
         style="fill:#e7bb3a;fill-rule:evenodd;stroke:black;stroke-width:1.9914;stroke-miterlimit:2.61310005"
         id="path358" />
      <path
         d="M 166.629,53.496 C 166.629,50.106 168.742,47.372 171.373,47.372 C 173.971,47.372 176.098,50.106 176.098,53.496 C 176.098,56.874 173.971,59.608 171.373,59.608 C 168.742,59.608 166.629,56.875 166.629,53.496 L 166.629,53.496 z "
         style="fill:#e7bb3a;fill-rule:evenodd;stroke:black;stroke-width:1.9914;stroke-miterlimit:2.61310005"
         id="path360" />
      <path
         d="M 179.076,53.384 C 179.076,49.944 180.447,47.161 182.144,47.161 C 183.849,47.161 185.224,49.944 185.224,53.384 C 185.224,56.824 183.849,59.608 182.144,59.608 C 180.447,59.608 179.076,56.825 179.076,53.384 L 179.076,53.384 z "
         style="fill:#e7bb3a;fill-rule:evenodd;stroke:black;stroke-width:1.9914;stroke-miterlimit:2.61310005"
         id="path362" />
      <path
         d="M 32.551,53.384 C 32.551,49.944 33.935,47.161 35.641,47.161 C 37.35,47.161 38.716,49.944 38.716,53.384 C 38.716,56.824 37.35,59.608 35.641,59.608 C 33.935,59.608 32.551,56.825 32.551,53.384 L 32.551,53.384 z "
         style="fill:#e7bb3a;fill-rule:evenodd;stroke:black;stroke-width:1.9914;stroke-miterlimit:2.61310005"
         id="path364" />
      <path
         d="M 101.333,33.277 C 103.052,32.114 105.788,31.36 108.879,31.36 C 112.147,31.36 115.038,32.201 116.731,33.487 C 114.59,30.976 112.604,25.037 112.147,18.776 C 117.301,19.184 121.663,20.447 124.211,22.215 C 123.406,20.496 122.863,18.095 122.863,15.422 C 122.863,12.935 123.654,10.547 124.359,8.878 C 121.853,10.697 117.447,11.909 112.218,12.33 C 112.622,7.788 113.691,3.878 115.165,1.33 C 113.644,1.601 111.54,2.084 109.77,2.084 C 107.203,2.084 104.63,1.526 102.637,0.995 C 104.252,3.569 105.404,7.677 105.792,12.489 C 99.647,12.094 94.348,10.497 92.024,8.246 C 92.937,9.966 93.487,12.552 93.487,15.422 C 93.487,18.504 93.116,21.362 92.108,23.082 C 94.426,20.806 99.683,19.098 105.846,18.678 C 105.354,25.063 103.573,30.816 101.333,33.277 L 101.333,33.277 z "
         style="fill:#e7bb3a;fill-rule:evenodd;stroke:black;stroke-width:1.9914;stroke-linejoin:round;stroke-miterlimit:2.61310005"
         id="Kreuz" />
    </g>
  </g>
</svg>
