<?xml version="1.0" encoding="UTF-8" standalone="no"?>
<!-- Created with Inkscape (http://www.inkscape.org/) -->
<svg
   xmlns:dc="http://purl.org/dc/elements/1.1/"
   xmlns:cc="http://creativecommons.org/ns#"
   xmlns:rdf="http://www.w3.org/1999/02/22-rdf-syntax-ns#"
   xmlns:svg="http://www.w3.org/2000/svg"
   xmlns="http://www.w3.org/2000/svg"
   xmlns:sodipodi="http://sodipodi.sourceforge.net/DTD/sodipodi-0.dtd"
   xmlns:inkscape="http://www.inkscape.org/namespaces/inkscape"
   version="1.0"
   width="900"
   height="600"
   id="svg2"
   sodipodi:version="0.32"
   inkscape:version="0.46"
   sodipodi:docname="Wuerttemberg_Banner.svg"
   inkscape:output_extension="org.inkscape.output.svg.inkscape"
   sodipodi:docbase="C:\My Pictures\armor">
  <metadata
     id="metadata8">
    <rdf:RDF>
      <cc:Work
         rdf:about="">
        <dc:format>image/svg+xml</dc:format>
        <dc:type
           rdf:resource="http://purl.org/dc/dcmitype/StillImage" />
      </cc:Work>
    </rdf:RDF>
  </metadata>
  <sodipodi:namedview
     inkscape:window-height="712"
     inkscape:window-width="1024"
     inkscape:pageshadow="2"
     inkscape:pageopacity="0.0"
     guidetolerance="10.0"
     gridtolerance="10.0"
     objecttolerance="10.0"
     borderopacity="1.0"
     bordercolor="#666666"
     pagecolor="#ffffff"
     id="base"
     inkscape:zoom="0.33256564"
     inkscape:cx="513.01163"
     inkscape:cy="367.34896"
     inkscape:window-x="-4"
     inkscape:window-y="-4"
     inkscape:current-layer="svg2"
     showgrid="true">
    <inkscape:grid
       type="xygrid"
       id="grid2438"
       visible="true"
       enabled="true" />
  </sodipodi:namedview>
  <defs
     id="defs4">
    <inkscape:perspective
       sodipodi:type="inkscape:persp3d"
       inkscape:vp_x="0 : 400.79193 : 1"
       inkscape:vp_y="0 : 1000 : 0"
       inkscape:vp_z="717.80786 : 400.79193 : 1"
       inkscape:persp3d-origin="358.90393 : 267.19462 : 1"
       id="perspective2436" />
  </defs>
  <g
     id="g2448">
    <rect
       y="0"
       x="0"
       height="600"
       width="900"
       id="rect2442"
       style="fill:#fcf104;fill-opacity:1;stroke:none;stroke-width:12;stroke-linecap:square;stroke-miterlimit:4;stroke-dasharray:none;stroke-opacity:1" />
    <path
       sodipodi:nodetypes="cssssssssssssssssssssssssssccssccsssssssssssssssssssssssssssssssssssssssccssssssssssssssssssssssssssssssssssssssssssc"
       d="M 280,560 C 278.24773,554.58343 275.13554,553.13144 268.7754,554.76328 C 257.4394,557.67172 237.56545,547.18703 237.56545,538.29816 C 237.56545,534.5289 240.65123,529.37473 244.4227,526.84449 C 248.1942,524.31423 251.27997,517.49711 251.27997,511.69535 C 251.27997,497.15445 269.79469,487.10403 285.7534,492.98192 C 296.77578,497.04163 296.99489,496.80241 296.99489,480.71062 C 296.99489,445.95895 328.91742,401.37001 358.02521,395.46436 C 364.92181,394.06511 371.65128,393.7988 372.97958,394.8725 C 374.30783,395.94621 367.62922,409.69805 358.13817,425.43211 C 345.02145,447.17675 340.82686,458.73682 340.65292,473.62053 C 340.38558,496.49314 344.47303,500.88325 368.44237,503.4675 C 395.18514,506.35076 409.00343,495.86436 415.0546,468.09432 C 420.98603,440.87399 434.60953,418.78158 451.17928,409.51325 C 468.22899,399.9764 502.29296,389.46685 507.58491,392.11072 C 514.73901,395.68494 512.59417,399.47947 493.51638,416.99973 C 471.27836,437.42216 457.23266,461.32933 457.09752,478.98828 C 456.97787,494.62317 463.63923,500.97628 480.1524,500.97628 C 496.79796,500.97628 512.56084,490.09128 533.58889,464.07589 C 543.34759,452.00262 556.33562,439.07003 562.45116,435.33677 C 576.60402,426.69702 634.8112,406.97462 638.1622,409.6835 C 643.93757,414.35208 632.81075,429.1986 609.84158,447.47184 C 583.21169,468.65728 562.14145,491.70304 562.14145,499.64424 C 562.14145,503.31373 569.39977,504.67173 589.01216,504.67173 C 603.791,504.67173 623.08793,507.10533 631.89424,510.07974 C 647.99842,515.51904 676.31431,538.70233 668.94917,540.41802 C 664.31192,541.49827 512.39848,545.6145 474.14024,545.69654 C 443.67313,545.76187 419.67453,545.78328 400.72487,545.86988 C 371.58642,546.00303 354.38583,546.29029 343.96172,547.12835 C 327.1175,548.48255 327.96744,551.27494 324.73442,557.17919 C 319.907,565.9952 316.42158,567.49455 300.75522,567.49455 C 286.18457,567.49455 281.92711,565.9572 280,560 z M 194.84482,401.8317 C 190.68362,398.11478 187.27906,393.49051 187.27906,391.55552 C 187.27906,389.62054 181.10755,386.15427 173.56458,383.8527 C 156.55121,378.66152 154.88824,364.33288 170.14043,354.34993 C 176.43419,350.23051 179.87599,344.47359 179.00234,339.5271 C 177.3055,329.92039 192.73233,316.20323 205.23322,316.20323 C 210.07936,316.20323 218.00475,320.2732 222.84515,325.24758 C 230.97754,333.60506 232.39351,333.86865 241.48905,328.71874 C 253.20386,322.08575 263.50812,306.80883 272.1691,283.23284 C 280.3373,260.99845 303.64055,239.18782 333.05611,226.24583 C 355.19991,216.50323 365.56727,215.89768 365.56727,224.34691 C 365.56727,226.43112 356.43636,237.55792 345.2764,249.07316 C 315.30344,280.00022 301.85991,313.3169 313.79531,327.09169 C 332.22798,348.365 375.10637,323.86822 390.71516,283.14671 C 397.21977,266.17688 420.92861,238.94987 435.5451,231.66434 C 443.57223,227.66326 459.38973,221.81966 470.69503,218.67855 C 487.85697,213.91023 492.25955,213.78344 497.36492,217.9105 C 502.47034,222.03755 499.74596,225.39854 480.86135,238.27081 C 454.58389,256.18231 435.27853,282.58694 431.29855,306.05964 C 428.57228,322.13822 428.89109,322.68034 443.49154,326.79472 C 469.03877,333.99393 486.46166,323.91068 520.99802,281.93904 C 552.48936,243.668 571.92278,229.92443 602.36494,224.39525 C 647.39751,216.21607 654.84285,224.75522 620.53969,245.24031 C 590.3016,263.29785 569.00482,282.62845 556.58866,303.28734 C 545.42314,321.86531 548.03157,330.98509 564.51078,330.98509 C 582.5442,330.98509 602.78405,321.11597 633.8721,297.16386 C 665.83105,272.54066 681.06407,266.32666 718.71511,262.55375 C 757.6311,258.65414 751.79259,270.77454 705.69352,289.58592 C 674.21355,302.43172 644.0783,326.72015 654.24201,331.05478 C 657.6446,332.50589 672.4345,334.77822 687.10839,336.10432 C 701.78229,337.43041 719.72157,340.99567 726.97342,344.02713 C 750.77649,353.97739 756.72157,375.05437 733.73223,367.9888 C 723.74823,364.9203 643.39465,367.94792 577.26877,373.88416 C 562.22961,375.23428 545.03515,373.99949 530.32138,370.51282 C 510.21323,365.74788 504.26436,365.70208 485.8957,370.1709 C 462.26794,375.91914 428.29071,376.59446 398.31303,371.91162 C 383.21191,369.55272 370.33635,370.62967 344.29013,376.4304 C 315.77997,382.77991 305.66307,383.45396 283.44849,380.48409 C 253.38288,376.4646 246.70844,377.29319 246.70844,385.0452 C 246.70844,393.54782 225.38942,408.58975 213.33856,408.58975 C 207.32821,408.58975 199.006,405.54865 194.84482,401.8317 z M 186.13619,234.60709 C 181.73614,232.53542 178.13607,227.10952 178.13607,222.54959 C 178.13607,216.38479 174.3262,213.35208 163.2787,210.72296 C 143.37017,205.98506 140.43638,191.0225 157.31185,180.29196 C 164.35003,175.81669 168.99308,169.14121 168.99308,163.49759 C 168.99308,147.00577 192.48128,134.87849 209.86051,142.39716 C 214.92724,144.5892 220.70018,151.45958 222.68929,157.6647 C 226.30575,168.94673 226.30575,168.94673 238.68558,161.07483 C 246.97223,155.80566 254.14713,145.1375 260.38605,128.80898 C 271.03483,100.93901 291.57447,70.159406 307.02033,58.925205 C 312.82078,54.706399 326.37107,48.500752 337.13213,45.134902 C 354.36185,39.745728 357.01207,39.677395 359.33114,44.562663 C 360.87019,47.804938 355.78432,55.800236 347.092,63.803081 C 328.96645,80.490987 307.54793,116.73458 303.51368,137.54466 C 300.92163,150.91554 301.83916,153.46096 310.62064,157.26004 C 334.49256,167.58772 358.58055,153.18429 381.31008,114.99126 C 411.75976,63.825649 444.46468,40.527331 491.90614,36.204694 C 517.92388,33.834069 518.65665,41.414539 493.53095,53.013391 C 461.86649,67.63071 420.7703,116.03766 420.52557,139.0059 C 420.38805,151.91233 428.42584,157.31347 447.62559,157.21625 C 468.57539,157.11019 478.59818,150.19754 504.50487,117.98682 C 543.30998,69.739132 587.10945,44.949264 629.64666,47.158512 C 641.54807,47.776629 651.2856,49.932249 651.2856,51.948726 C 651.2856,53.965228 643.17923,58.700665 633.27145,62.471873 C 594.02235,77.411375 531.41022,144.97652 548.64674,153.79097 C 552.29734,155.65785 564.31997,157.21075 575.3637,157.24185 C 594.4276,157.29559 597.2952,155.79323 632.0602,127.53881 C 675.54058,92.201209 687.37531,86.709865 725.36578,84.244723 C 763.93299,81.74217 763.74993,88.858295 724.83602,104.8378 C 697.13447,116.21304 669.65225,136.21853 658.41945,153.1852 C 654.07473,159.74764 654.81968,161.03871 663.75646,162.43485 C 714.53192,170.36694 727.74096,173.51656 738.24571,180.19613 C 750.35476,187.89585 759.31772,201.18521 755.73137,206.12209 C 754.68036,207.56878 748.53393,207.12768 742.07255,205.14183 C 732.29822,202.13777 679.29154,198.8784 614.71364,197.31048 C 607.17067,197.12734 587.62755,198.8404 571.28446,201.11728 C 549.92148,204.09353 534.78771,204.15023 517.43983,201.31902 C 500.29805,198.52147 486.66254,198.53341 470.357,201.36021 C 441.40071,206.38022 400.34723,206.43539 378.29266,201.48399 C 365.0849,198.51874 355.50276,199.03289 335.24287,203.79399 C 318.24194,207.78918 301.39128,209.17227 286.77089,207.77251 C 257.25575,204.94674 237.56545,208.26531 237.56545,216.06545 C 237.56545,219.4242 234.36304,225.86814 230.44901,230.38537 C 222.7282,239.29605 200.57717,241.40636 186.13619,234.60709 z"
       style="fill:#000000"
       id="path2170" />
  </g>
</svg>
